<?xml version="1.0" encoding="utf-8"?>
<svg xmlns="http://www.w3.org/2000/svg" xmlns:xlink="http://www.w3.org/1999/xlink" width="600" height="400" viewBox="0 0 2400 1600">
<defs>
  <clipPath id="clip500">
    <rect x="0" y="0" width="2400" height="1600"/>
  </clipPath>
</defs>
<path clip-path="url(#clip500)" d="M0 1600 L2400 1600 L2400 0 L0 0  Z" fill="#ffffff" fill-rule="evenodd" fill-opacity="1"/>
<defs>
  <clipPath id="clip501">
    <rect x="193" y="123" width="2160" height="1364"/>
  </clipPath>
</defs>
<path clip-path="url(#clip500)" d="M193.936 1486.45 L2352.76 1486.45 L2352.76 123.472 L193.936 123.472  Z" fill="#ffffff" fill-rule="evenodd" fill-opacity="1"/>
<polyline clip-path="url(#clip501)" style="stroke:#000000; stroke-linecap:round; stroke-linejoin:round; stroke-width:2; stroke-opacity:0.1; fill:none" points="254.284,1486.45 254.284,123.472 "/>
<polyline clip-path="url(#clip501)" style="stroke:#000000; stroke-linecap:round; stroke-linejoin:round; stroke-width:2; stroke-opacity:0.1; fill:none" points="629.629,1486.45 629.629,123.472 "/>
<polyline clip-path="url(#clip501)" style="stroke:#000000; stroke-linecap:round; stroke-linejoin:round; stroke-width:2; stroke-opacity:0.1; fill:none" points="1004.97,1486.45 1004.97,123.472 "/>
<polyline clip-path="url(#clip501)" style="stroke:#000000; stroke-linecap:round; stroke-linejoin:round; stroke-width:2; stroke-opacity:0.1; fill:none" points="1380.32,1486.45 1380.32,123.472 "/>
<polyline clip-path="url(#clip501)" style="stroke:#000000; stroke-linecap:round; stroke-linejoin:round; stroke-width:2; stroke-opacity:0.1; fill:none" points="1755.66,1486.45 1755.66,123.472 "/>
<polyline clip-path="url(#clip501)" style="stroke:#000000; stroke-linecap:round; stroke-linejoin:round; stroke-width:2; stroke-opacity:0.1; fill:none" points="2131.01,1486.45 2131.01,123.472 "/>
<polyline clip-path="url(#clip501)" style="stroke:#000000; stroke-linecap:round; stroke-linejoin:round; stroke-width:2; stroke-opacity:0.1; fill:none" points="193.936,1479.67 2352.76,1479.67 "/>
<polyline clip-path="url(#clip501)" style="stroke:#000000; stroke-linecap:round; stroke-linejoin:round; stroke-width:2; stroke-opacity:0.1; fill:none" points="193.936,1187.14 2352.76,1187.14 "/>
<polyline clip-path="url(#clip501)" style="stroke:#000000; stroke-linecap:round; stroke-linejoin:round; stroke-width:2; stroke-opacity:0.1; fill:none" points="193.936,894.6 2352.76,894.6 "/>
<polyline clip-path="url(#clip501)" style="stroke:#000000; stroke-linecap:round; stroke-linejoin:round; stroke-width:2; stroke-opacity:0.1; fill:none" points="193.936,602.063 2352.76,602.063 "/>
<polyline clip-path="url(#clip501)" style="stroke:#000000; stroke-linecap:round; stroke-linejoin:round; stroke-width:2; stroke-opacity:0.1; fill:none" points="193.936,309.527 2352.76,309.527 "/>
<polyline clip-path="url(#clip500)" style="stroke:#000000; stroke-linecap:round; stroke-linejoin:round; stroke-width:4; stroke-opacity:1; fill:none" points="193.936,1486.45 2352.76,1486.45 "/>
<polyline clip-path="url(#clip500)" style="stroke:#000000; stroke-linecap:round; stroke-linejoin:round; stroke-width:4; stroke-opacity:1; fill:none" points="254.284,1486.45 254.284,1467.55 "/>
<polyline clip-path="url(#clip500)" style="stroke:#000000; stroke-linecap:round; stroke-linejoin:round; stroke-width:4; stroke-opacity:1; fill:none" points="629.629,1486.45 629.629,1467.55 "/>
<polyline clip-path="url(#clip500)" style="stroke:#000000; stroke-linecap:round; stroke-linejoin:round; stroke-width:4; stroke-opacity:1; fill:none" points="1004.97,1486.45 1004.97,1467.55 "/>
<polyline clip-path="url(#clip500)" style="stroke:#000000; stroke-linecap:round; stroke-linejoin:round; stroke-width:4; stroke-opacity:1; fill:none" points="1380.32,1486.45 1380.32,1467.55 "/>
<polyline clip-path="url(#clip500)" style="stroke:#000000; stroke-linecap:round; stroke-linejoin:round; stroke-width:4; stroke-opacity:1; fill:none" points="1755.66,1486.45 1755.66,1467.55 "/>
<polyline clip-path="url(#clip500)" style="stroke:#000000; stroke-linecap:round; stroke-linejoin:round; stroke-width:4; stroke-opacity:1; fill:none" points="2131.01,1486.45 2131.01,1467.55 "/>
<path clip-path="url(#clip500)" d="M254.284 1517.37 Q250.673 1517.37 248.844 1520.93 Q247.039 1524.47 247.039 1531.6 Q247.039 1538.71 248.844 1542.27 Q250.673 1545.82 254.284 1545.82 Q257.918 1545.82 259.724 1542.27 Q261.552 1538.71 261.552 1531.6 Q261.552 1524.47 259.724 1520.93 Q257.918 1517.37 254.284 1517.37 M254.284 1513.66 Q260.094 1513.66 263.15 1518.27 Q266.228 1522.85 266.228 1531.6 Q266.228 1540.33 263.15 1544.94 Q260.094 1549.52 254.284 1549.52 Q248.474 1549.52 245.395 1544.94 Q242.34 1540.33 242.34 1531.6 Q242.34 1522.85 245.395 1518.27 Q248.474 1513.66 254.284 1513.66 Z" fill="#000000" fill-rule="nonzero" fill-opacity="1" /><path clip-path="url(#clip500)" d="M589.247 1514.29 L607.604 1514.29 L607.604 1518.22 L593.53 1518.22 L593.53 1526.7 Q594.548 1526.35 595.567 1526.19 Q596.585 1526 597.604 1526 Q603.391 1526 606.77 1529.17 Q610.15 1532.34 610.15 1537.76 Q610.15 1543.34 606.678 1546.44 Q603.206 1549.52 596.886 1549.52 Q594.71 1549.52 592.442 1549.15 Q590.196 1548.78 587.789 1548.04 L587.789 1543.34 Q589.872 1544.47 592.095 1545.03 Q594.317 1545.58 596.794 1545.58 Q600.798 1545.58 603.136 1543.48 Q605.474 1541.37 605.474 1537.76 Q605.474 1534.15 603.136 1532.04 Q600.798 1529.94 596.794 1529.94 Q594.919 1529.94 593.044 1530.35 Q591.192 1530.77 589.247 1531.65 L589.247 1514.29 Z" fill="#000000" fill-rule="nonzero" fill-opacity="1" /><path clip-path="url(#clip500)" d="M629.363 1517.37 Q625.752 1517.37 623.923 1520.93 Q622.118 1524.47 622.118 1531.6 Q622.118 1538.71 623.923 1542.27 Q625.752 1545.82 629.363 1545.82 Q632.997 1545.82 634.803 1542.27 Q636.631 1538.71 636.631 1531.6 Q636.631 1524.47 634.803 1520.93 Q632.997 1517.37 629.363 1517.37 M629.363 1513.66 Q635.173 1513.66 638.229 1518.27 Q641.307 1522.85 641.307 1531.6 Q641.307 1540.33 638.229 1544.94 Q635.173 1549.52 629.363 1549.52 Q623.553 1549.52 620.474 1544.94 Q617.419 1540.33 617.419 1531.6 Q617.419 1522.85 620.474 1518.27 Q623.553 1513.66 629.363 1513.66 Z" fill="#000000" fill-rule="nonzero" fill-opacity="1" /><path clip-path="url(#clip500)" d="M659.525 1517.37 Q655.914 1517.37 654.085 1520.93 Q652.279 1524.47 652.279 1531.6 Q652.279 1538.71 654.085 1542.27 Q655.914 1545.82 659.525 1545.82 Q663.159 1545.82 664.965 1542.27 Q666.793 1538.71 666.793 1531.6 Q666.793 1524.47 664.965 1520.93 Q663.159 1517.37 659.525 1517.37 M659.525 1513.66 Q665.335 1513.66 668.39 1518.27 Q671.469 1522.85 671.469 1531.6 Q671.469 1540.33 668.39 1544.94 Q665.335 1549.52 659.525 1549.52 Q653.715 1549.52 650.636 1544.94 Q647.58 1540.33 647.58 1531.6 Q647.58 1522.85 650.636 1518.27 Q653.715 1513.66 659.525 1513.66 Z" fill="#000000" fill-rule="nonzero" fill-opacity="1" /><path clip-path="url(#clip500)" d="M949.5 1544.91 L957.139 1544.91 L957.139 1518.55 L948.829 1520.21 L948.829 1515.95 L957.093 1514.29 L961.768 1514.29 L961.768 1544.91 L969.407 1544.91 L969.407 1548.85 L949.5 1548.85 L949.5 1544.91 Z" fill="#000000" fill-rule="nonzero" fill-opacity="1" /><path clip-path="url(#clip500)" d="M988.852 1517.37 Q985.241 1517.37 983.412 1520.93 Q981.606 1524.47 981.606 1531.6 Q981.606 1538.71 983.412 1542.27 Q985.241 1545.82 988.852 1545.82 Q992.486 1545.82 994.291 1542.27 Q996.12 1538.71 996.12 1531.6 Q996.12 1524.47 994.291 1520.93 Q992.486 1517.37 988.852 1517.37 M988.852 1513.66 Q994.662 1513.66 997.717 1518.27 Q1000.8 1522.85 1000.8 1531.6 Q1000.8 1540.33 997.717 1544.94 Q994.662 1549.52 988.852 1549.52 Q983.041 1549.52 979.963 1544.94 Q976.907 1540.33 976.907 1531.6 Q976.907 1522.85 979.963 1518.27 Q983.041 1513.66 988.852 1513.66 Z" fill="#000000" fill-rule="nonzero" fill-opacity="1" /><path clip-path="url(#clip500)" d="M1019.01 1517.37 Q1015.4 1517.37 1013.57 1520.93 Q1011.77 1524.47 1011.77 1531.6 Q1011.77 1538.71 1013.57 1542.27 Q1015.4 1545.82 1019.01 1545.82 Q1022.65 1545.82 1024.45 1542.27 Q1026.28 1538.71 1026.28 1531.6 Q1026.28 1524.47 1024.45 1520.93 Q1022.65 1517.37 1019.01 1517.37 M1019.01 1513.66 Q1024.82 1513.66 1027.88 1518.27 Q1030.96 1522.85 1030.96 1531.6 Q1030.96 1540.33 1027.88 1544.94 Q1024.82 1549.52 1019.01 1549.52 Q1013.2 1549.52 1010.12 1544.94 Q1007.07 1540.33 1007.07 1531.6 Q1007.07 1522.85 1010.12 1518.27 Q1013.2 1513.66 1019.01 1513.66 Z" fill="#000000" fill-rule="nonzero" fill-opacity="1" /><path clip-path="url(#clip500)" d="M1049.18 1517.37 Q1045.56 1517.37 1043.74 1520.93 Q1041.93 1524.47 1041.93 1531.6 Q1041.93 1538.71 1043.74 1542.27 Q1045.56 1545.82 1049.18 1545.82 Q1052.81 1545.82 1054.62 1542.27 Q1056.44 1538.71 1056.44 1531.6 Q1056.44 1524.47 1054.62 1520.93 Q1052.81 1517.37 1049.18 1517.37 M1049.18 1513.66 Q1054.99 1513.66 1058.04 1518.27 Q1061.12 1522.85 1061.12 1531.6 Q1061.12 1540.33 1058.04 1544.94 Q1054.99 1549.52 1049.18 1549.52 Q1043.37 1549.52 1040.29 1544.94 Q1037.23 1540.33 1037.23 1531.6 Q1037.23 1522.85 1040.29 1518.27 Q1043.37 1513.66 1049.18 1513.66 Z" fill="#000000" fill-rule="nonzero" fill-opacity="1" /><path clip-path="url(#clip500)" d="M1324.85 1544.91 L1332.48 1544.91 L1332.48 1518.55 L1324.17 1520.21 L1324.17 1515.95 L1332.44 1514.29 L1337.11 1514.29 L1337.11 1544.91 L1344.75 1544.91 L1344.75 1548.85 L1324.85 1548.85 L1324.85 1544.91 Z" fill="#000000" fill-rule="nonzero" fill-opacity="1" /><path clip-path="url(#clip500)" d="M1354.24 1514.29 L1372.6 1514.29 L1372.6 1518.22 L1358.53 1518.22 L1358.53 1526.7 Q1359.54 1526.35 1360.56 1526.19 Q1361.58 1526 1362.6 1526 Q1368.39 1526 1371.77 1529.17 Q1375.15 1532.34 1375.15 1537.76 Q1375.15 1543.34 1371.67 1546.44 Q1368.2 1549.52 1361.88 1549.52 Q1359.71 1549.52 1357.44 1549.15 Q1355.19 1548.78 1352.78 1548.04 L1352.78 1543.34 Q1354.87 1544.47 1357.09 1545.03 Q1359.31 1545.58 1361.79 1545.58 Q1365.79 1545.58 1368.13 1543.48 Q1370.47 1541.37 1370.47 1537.76 Q1370.47 1534.15 1368.13 1532.04 Q1365.79 1529.94 1361.79 1529.94 Q1359.91 1529.94 1358.04 1530.35 Q1356.19 1530.77 1354.24 1531.65 L1354.24 1514.29 Z" fill="#000000" fill-rule="nonzero" fill-opacity="1" /><path clip-path="url(#clip500)" d="M1394.36 1517.37 Q1390.75 1517.37 1388.92 1520.93 Q1387.11 1524.47 1387.11 1531.6 Q1387.11 1538.71 1388.92 1542.27 Q1390.75 1545.82 1394.36 1545.82 Q1397.99 1545.82 1399.8 1542.27 Q1401.63 1538.71 1401.63 1531.6 Q1401.63 1524.47 1399.8 1520.93 Q1397.99 1517.37 1394.36 1517.37 M1394.36 1513.66 Q1400.17 1513.66 1403.22 1518.27 Q1406.3 1522.85 1406.3 1531.6 Q1406.3 1540.33 1403.22 1544.94 Q1400.17 1549.52 1394.36 1549.52 Q1388.55 1549.52 1385.47 1544.94 Q1382.41 1540.33 1382.41 1531.6 Q1382.41 1522.85 1385.47 1518.27 Q1388.55 1513.66 1394.36 1513.66 Z" fill="#000000" fill-rule="nonzero" fill-opacity="1" /><path clip-path="url(#clip500)" d="M1424.52 1517.37 Q1420.91 1517.37 1419.08 1520.93 Q1417.28 1524.47 1417.28 1531.6 Q1417.28 1538.71 1419.08 1542.27 Q1420.91 1545.82 1424.52 1545.82 Q1428.15 1545.82 1429.96 1542.27 Q1431.79 1538.71 1431.79 1531.6 Q1431.79 1524.47 1429.96 1520.93 Q1428.15 1517.37 1424.52 1517.37 M1424.52 1513.66 Q1430.33 1513.66 1433.39 1518.27 Q1436.46 1522.85 1436.46 1531.6 Q1436.46 1540.33 1433.39 1544.94 Q1430.33 1549.52 1424.52 1549.52 Q1418.71 1549.52 1415.63 1544.94 Q1412.58 1540.33 1412.58 1531.6 Q1412.58 1522.85 1415.63 1518.27 Q1418.71 1513.66 1424.52 1513.66 Z" fill="#000000" fill-rule="nonzero" fill-opacity="1" /><path clip-path="url(#clip500)" d="M1704.28 1544.91 L1720.6 1544.91 L1720.6 1548.85 L1698.65 1548.85 L1698.65 1544.91 Q1701.31 1542.16 1705.9 1537.53 Q1710.5 1532.88 1711.68 1531.53 Q1713.93 1529.01 1714.81 1527.27 Q1715.71 1525.51 1715.71 1523.82 Q1715.71 1521.07 1713.77 1519.33 Q1711.85 1517.6 1708.74 1517.6 Q1706.54 1517.6 1704.09 1518.36 Q1701.66 1519.13 1698.88 1520.68 L1698.88 1515.95 Q1701.71 1514.82 1704.16 1514.24 Q1706.61 1513.66 1708.65 1513.66 Q1714.02 1513.66 1717.22 1516.35 Q1720.41 1519.03 1720.41 1523.52 Q1720.41 1525.65 1719.6 1527.57 Q1718.81 1529.47 1716.71 1532.07 Q1716.13 1532.74 1713.03 1535.95 Q1709.92 1539.15 1704.28 1544.91 Z" fill="#000000" fill-rule="nonzero" fill-opacity="1" /><path clip-path="url(#clip500)" d="M1740.41 1517.37 Q1736.8 1517.37 1734.97 1520.93 Q1733.16 1524.47 1733.16 1531.6 Q1733.16 1538.71 1734.97 1542.27 Q1736.8 1545.82 1740.41 1545.82 Q1744.04 1545.82 1745.85 1542.27 Q1747.68 1538.71 1747.68 1531.6 Q1747.68 1524.47 1745.85 1520.93 Q1744.04 1517.37 1740.41 1517.37 M1740.41 1513.66 Q1746.22 1513.66 1749.28 1518.27 Q1752.35 1522.85 1752.35 1531.6 Q1752.35 1540.33 1749.28 1544.94 Q1746.22 1549.52 1740.41 1549.52 Q1734.6 1549.52 1731.52 1544.94 Q1728.47 1540.33 1728.47 1531.6 Q1728.47 1522.85 1731.52 1518.27 Q1734.6 1513.66 1740.41 1513.66 Z" fill="#000000" fill-rule="nonzero" fill-opacity="1" /><path clip-path="url(#clip500)" d="M1770.57 1517.37 Q1766.96 1517.37 1765.13 1520.93 Q1763.33 1524.47 1763.33 1531.6 Q1763.33 1538.71 1765.13 1542.27 Q1766.96 1545.82 1770.57 1545.82 Q1774.21 1545.82 1776.01 1542.27 Q1777.84 1538.71 1777.84 1531.6 Q1777.84 1524.47 1776.01 1520.93 Q1774.21 1517.37 1770.57 1517.37 M1770.57 1513.66 Q1776.38 1513.66 1779.44 1518.27 Q1782.52 1522.85 1782.52 1531.6 Q1782.52 1540.33 1779.44 1544.94 Q1776.38 1549.52 1770.57 1549.52 Q1764.76 1549.52 1761.68 1544.94 Q1758.63 1540.33 1758.63 1531.6 Q1758.63 1522.85 1761.68 1518.27 Q1764.76 1513.66 1770.57 1513.66 Z" fill="#000000" fill-rule="nonzero" fill-opacity="1" /><path clip-path="url(#clip500)" d="M1800.73 1517.37 Q1797.12 1517.37 1795.29 1520.93 Q1793.49 1524.47 1793.49 1531.6 Q1793.49 1538.71 1795.29 1542.27 Q1797.12 1545.82 1800.73 1545.82 Q1804.37 1545.82 1806.17 1542.27 Q1808 1538.71 1808 1531.6 Q1808 1524.47 1806.17 1520.93 Q1804.37 1517.37 1800.73 1517.37 M1800.73 1513.66 Q1806.54 1513.66 1809.6 1518.27 Q1812.68 1522.85 1812.68 1531.6 Q1812.68 1540.33 1809.6 1544.94 Q1806.54 1549.52 1800.73 1549.52 Q1794.92 1549.52 1791.84 1544.94 Q1788.79 1540.33 1788.79 1531.6 Q1788.79 1522.85 1791.84 1518.27 Q1794.92 1513.66 1800.73 1513.66 Z" fill="#000000" fill-rule="nonzero" fill-opacity="1" /><path clip-path="url(#clip500)" d="M2079.62 1544.91 L2095.94 1544.91 L2095.94 1548.85 L2074 1548.85 L2074 1544.91 Q2076.66 1542.16 2081.24 1537.53 Q2085.85 1532.88 2087.03 1531.53 Q2089.27 1529.01 2090.15 1527.27 Q2091.06 1525.51 2091.06 1523.82 Q2091.06 1521.07 2089.11 1519.33 Q2087.19 1517.6 2084.09 1517.6 Q2081.89 1517.6 2079.44 1518.36 Q2077.01 1519.13 2074.23 1520.68 L2074.23 1515.95 Q2077.05 1514.82 2079.51 1514.24 Q2081.96 1513.66 2084 1513.66 Q2089.37 1513.66 2092.56 1516.35 Q2095.76 1519.03 2095.76 1523.52 Q2095.76 1525.65 2094.94 1527.57 Q2094.16 1529.47 2092.05 1532.07 Q2091.47 1532.74 2088.37 1535.95 Q2085.27 1539.15 2079.62 1544.91 Z" fill="#000000" fill-rule="nonzero" fill-opacity="1" /><path clip-path="url(#clip500)" d="M2105.8 1514.29 L2124.16 1514.29 L2124.16 1518.22 L2110.08 1518.22 L2110.08 1526.7 Q2111.1 1526.35 2112.12 1526.19 Q2113.14 1526 2114.16 1526 Q2119.94 1526 2123.32 1529.17 Q2126.7 1532.34 2126.7 1537.76 Q2126.7 1543.34 2123.23 1546.44 Q2119.76 1549.52 2113.44 1549.52 Q2111.26 1549.52 2109 1549.15 Q2106.75 1548.78 2104.34 1548.04 L2104.34 1543.34 Q2106.43 1544.47 2108.65 1545.03 Q2110.87 1545.58 2113.35 1545.58 Q2117.35 1545.58 2119.69 1543.48 Q2122.03 1541.37 2122.03 1537.76 Q2122.03 1534.15 2119.69 1532.04 Q2117.35 1529.94 2113.35 1529.94 Q2111.47 1529.94 2109.6 1530.35 Q2107.75 1530.77 2105.8 1531.65 L2105.8 1514.29 Z" fill="#000000" fill-rule="nonzero" fill-opacity="1" /><path clip-path="url(#clip500)" d="M2145.92 1517.37 Q2142.31 1517.37 2140.48 1520.93 Q2138.67 1524.47 2138.67 1531.6 Q2138.67 1538.71 2140.48 1542.27 Q2142.31 1545.82 2145.92 1545.82 Q2149.55 1545.82 2151.36 1542.27 Q2153.19 1538.71 2153.19 1531.6 Q2153.19 1524.47 2151.36 1520.93 Q2149.55 1517.37 2145.92 1517.37 M2145.92 1513.66 Q2151.73 1513.66 2154.78 1518.27 Q2157.86 1522.85 2157.86 1531.6 Q2157.86 1540.33 2154.78 1544.94 Q2151.73 1549.52 2145.92 1549.52 Q2140.11 1549.52 2137.03 1544.94 Q2133.97 1540.33 2133.97 1531.6 Q2133.97 1522.85 2137.03 1518.27 Q2140.11 1513.66 2145.92 1513.66 Z" fill="#000000" fill-rule="nonzero" fill-opacity="1" /><path clip-path="url(#clip500)" d="M2176.08 1517.37 Q2172.47 1517.37 2170.64 1520.93 Q2168.83 1524.47 2168.83 1531.6 Q2168.83 1538.71 2170.64 1542.27 Q2172.47 1545.82 2176.08 1545.82 Q2179.71 1545.82 2181.52 1542.27 Q2183.35 1538.71 2183.35 1531.6 Q2183.35 1524.47 2181.52 1520.93 Q2179.71 1517.37 2176.08 1517.37 M2176.08 1513.66 Q2181.89 1513.66 2184.94 1518.27 Q2188.02 1522.85 2188.02 1531.6 Q2188.02 1540.33 2184.94 1544.94 Q2181.89 1549.52 2176.08 1549.52 Q2170.27 1549.52 2167.19 1544.94 Q2164.13 1540.33 2164.13 1531.6 Q2164.13 1522.85 2167.19 1518.27 Q2170.27 1513.66 2176.08 1513.66 Z" fill="#000000" fill-rule="nonzero" fill-opacity="1" /><polyline clip-path="url(#clip500)" style="stroke:#000000; stroke-linecap:round; stroke-linejoin:round; stroke-width:4; stroke-opacity:1; fill:none" points="193.936,1486.45 193.936,123.472 "/>
<polyline clip-path="url(#clip500)" style="stroke:#000000; stroke-linecap:round; stroke-linejoin:round; stroke-width:4; stroke-opacity:1; fill:none" points="193.936,1479.67 212.834,1479.67 "/>
<polyline clip-path="url(#clip500)" style="stroke:#000000; stroke-linecap:round; stroke-linejoin:round; stroke-width:4; stroke-opacity:1; fill:none" points="193.936,1187.14 212.834,1187.14 "/>
<polyline clip-path="url(#clip500)" style="stroke:#000000; stroke-linecap:round; stroke-linejoin:round; stroke-width:4; stroke-opacity:1; fill:none" points="193.936,894.6 212.834,894.6 "/>
<polyline clip-path="url(#clip500)" style="stroke:#000000; stroke-linecap:round; stroke-linejoin:round; stroke-width:4; stroke-opacity:1; fill:none" points="193.936,602.063 212.834,602.063 "/>
<polyline clip-path="url(#clip500)" style="stroke:#000000; stroke-linecap:round; stroke-linejoin:round; stroke-width:4; stroke-opacity:1; fill:none" points="193.936,309.527 212.834,309.527 "/>
<path clip-path="url(#clip500)" d="M51.9875 1480.12 L81.6633 1480.12 L81.6633 1484.06 L51.9875 1484.06 L51.9875 1480.12 Z" fill="#000000" fill-rule="nonzero" fill-opacity="1" /><path clip-path="url(#clip500)" d="M90.5752 1462.39 L112.797 1462.39 L112.797 1464.38 L100.251 1496.95 L95.3669 1496.95 L107.172 1466.33 L90.5752 1466.33 L90.5752 1462.39 Z" fill="#000000" fill-rule="nonzero" fill-opacity="1" /><path clip-path="url(#clip500)" d="M121.918 1491.07 L126.802 1491.07 L126.802 1496.95 L121.918 1496.95 L121.918 1491.07 Z" fill="#000000" fill-rule="nonzero" fill-opacity="1" /><path clip-path="url(#clip500)" d="M137.033 1462.39 L155.39 1462.39 L155.39 1466.33 L141.316 1466.33 L141.316 1474.8 Q142.334 1474.45 143.353 1474.29 Q144.371 1474.11 145.39 1474.11 Q151.177 1474.11 154.556 1477.28 Q157.936 1480.45 157.936 1485.86 Q157.936 1491.44 154.464 1494.55 Q150.992 1497.62 144.672 1497.62 Q142.496 1497.62 140.228 1497.25 Q137.982 1496.88 135.575 1496.14 L135.575 1491.44 Q137.658 1492.58 139.881 1493.13 Q142.103 1493.69 144.58 1493.69 Q148.584 1493.69 150.922 1491.58 Q153.26 1489.48 153.26 1485.86 Q153.26 1482.25 150.922 1480.15 Q148.584 1478.04 144.58 1478.04 Q142.705 1478.04 140.83 1478.46 Q138.978 1478.87 137.033 1479.75 L137.033 1462.39 Z" fill="#000000" fill-rule="nonzero" fill-opacity="1" /><path clip-path="url(#clip500)" d="M50.9921 1187.59 L80.6679 1187.59 L80.6679 1191.52 L50.9921 1191.52 L50.9921 1187.59 Z" fill="#000000" fill-rule="nonzero" fill-opacity="1" /><path clip-path="url(#clip500)" d="M90.8067 1169.86 L109.163 1169.86 L109.163 1173.79 L95.0891 1173.79 L95.0891 1182.26 Q96.1076 1181.92 97.1261 1181.75 Q98.1447 1181.57 99.1632 1181.57 Q104.95 1181.57 108.33 1184.74 Q111.709 1187.91 111.709 1193.33 Q111.709 1198.91 108.237 1202.01 Q104.765 1205.09 98.4456 1205.09 Q96.2697 1205.09 94.0012 1204.72 Q91.7558 1204.35 89.3484 1203.61 L89.3484 1198.91 Q91.4317 1200.04 93.6539 1200.6 Q95.8761 1201.15 98.353 1201.15 Q102.358 1201.15 104.696 1199.05 Q107.033 1196.94 107.033 1193.33 Q107.033 1189.72 104.696 1187.61 Q102.358 1185.5 98.353 1185.5 Q96.478 1185.5 94.603 1185.92 Q92.7512 1186.34 90.8067 1187.22 L90.8067 1169.86 Z" fill="#000000" fill-rule="nonzero" fill-opacity="1" /><path clip-path="url(#clip500)" d="M120.922 1198.54 L125.807 1198.54 L125.807 1204.42 L120.922 1204.42 L120.922 1198.54 Z" fill="#000000" fill-rule="nonzero" fill-opacity="1" /><path clip-path="url(#clip500)" d="M145.992 1172.94 Q142.381 1172.94 140.552 1176.5 Q138.746 1180.04 138.746 1187.17 Q138.746 1194.28 140.552 1197.84 Q142.381 1201.38 145.992 1201.38 Q149.626 1201.38 151.431 1197.84 Q153.26 1194.28 153.26 1187.17 Q153.26 1180.04 151.431 1176.5 Q149.626 1172.94 145.992 1172.94 M145.992 1169.23 Q151.802 1169.23 154.857 1173.84 Q157.936 1178.42 157.936 1187.17 Q157.936 1195.9 154.857 1200.5 Q151.802 1205.09 145.992 1205.09 Q140.181 1205.09 137.103 1200.5 Q134.047 1195.9 134.047 1187.17 Q134.047 1178.42 137.103 1173.84 Q140.181 1169.23 145.992 1169.23 Z" fill="#000000" fill-rule="nonzero" fill-opacity="1" /><path clip-path="url(#clip500)" d="M51.9875 895.051 L81.6633 895.051 L81.6633 898.986 L51.9875 898.986 L51.9875 895.051 Z" fill="#000000" fill-rule="nonzero" fill-opacity="1" /><path clip-path="url(#clip500)" d="M95.7836 907.945 L112.103 907.945 L112.103 911.88 L90.1586 911.88 L90.1586 907.945 Q92.8206 905.19 97.4039 900.561 Q102.01 895.908 103.191 894.565 Q105.436 892.042 106.316 890.306 Q107.219 888.547 107.219 886.857 Q107.219 884.102 105.274 882.366 Q103.353 880.63 100.251 880.63 Q98.0521 880.63 95.5984 881.394 Q93.1678 882.158 90.3901 883.709 L90.3901 878.987 Q93.2141 877.852 95.6678 877.274 Q98.1215 876.695 100.159 876.695 Q105.529 876.695 108.723 879.38 Q111.918 882.065 111.918 886.556 Q111.918 888.686 111.108 890.607 Q110.321 892.505 108.214 895.098 Q107.635 895.769 104.534 898.986 Q101.432 902.181 95.7836 907.945 Z" fill="#000000" fill-rule="nonzero" fill-opacity="1" /><path clip-path="url(#clip500)" d="M121.918 906 L126.802 906 L126.802 911.88 L121.918 911.88 L121.918 906 Z" fill="#000000" fill-rule="nonzero" fill-opacity="1" /><path clip-path="url(#clip500)" d="M137.033 877.32 L155.39 877.32 L155.39 881.255 L141.316 881.255 L141.316 889.727 Q142.334 889.38 143.353 889.218 Q144.371 889.033 145.39 889.033 Q151.177 889.033 154.556 892.204 Q157.936 895.375 157.936 900.792 Q157.936 906.371 154.464 909.473 Q150.992 912.551 144.672 912.551 Q142.496 912.551 140.228 912.181 Q137.982 911.81 135.575 911.07 L135.575 906.371 Q137.658 907.505 139.881 908.061 Q142.103 908.616 144.58 908.616 Q148.584 908.616 150.922 906.51 Q153.26 904.403 153.26 900.792 Q153.26 897.181 150.922 895.074 Q148.584 892.968 144.58 892.968 Q142.705 892.968 140.83 893.385 Q138.978 893.801 137.033 894.681 L137.033 877.32 Z" fill="#000000" fill-rule="nonzero" fill-opacity="1" /><path clip-path="url(#clip500)" d="M100.76 587.862 Q97.1493 587.862 95.3206 591.427 Q93.515 594.969 93.515 602.098 Q93.515 609.205 95.3206 612.769 Q97.1493 616.311 100.76 616.311 Q104.395 616.311 106.2 612.769 Q108.029 609.205 108.029 602.098 Q108.029 594.969 106.2 591.427 Q104.395 587.862 100.76 587.862 M100.76 584.158 Q106.571 584.158 109.626 588.765 Q112.705 593.348 112.705 602.098 Q112.705 610.825 109.626 615.431 Q106.571 620.015 100.76 620.015 Q94.9502 620.015 91.8715 615.431 Q88.816 610.825 88.816 602.098 Q88.816 593.348 91.8715 588.765 Q94.9502 584.158 100.76 584.158 Z" fill="#000000" fill-rule="nonzero" fill-opacity="1" /><path clip-path="url(#clip500)" d="M120.922 613.464 L125.807 613.464 L125.807 619.343 L120.922 619.343 L120.922 613.464 Z" fill="#000000" fill-rule="nonzero" fill-opacity="1" /><path clip-path="url(#clip500)" d="M145.992 587.862 Q142.381 587.862 140.552 591.427 Q138.746 594.969 138.746 602.098 Q138.746 609.205 140.552 612.769 Q142.381 616.311 145.992 616.311 Q149.626 616.311 151.431 612.769 Q153.26 609.205 153.26 602.098 Q153.26 594.969 151.431 591.427 Q149.626 587.862 145.992 587.862 M145.992 584.158 Q151.802 584.158 154.857 588.765 Q157.936 593.348 157.936 602.098 Q157.936 610.825 154.857 615.431 Q151.802 620.015 145.992 620.015 Q140.181 620.015 137.103 615.431 Q134.047 610.825 134.047 602.098 Q134.047 593.348 137.103 588.765 Q140.181 584.158 145.992 584.158 Z" fill="#000000" fill-rule="nonzero" fill-opacity="1" /><path clip-path="url(#clip500)" d="M95.7836 322.872 L112.103 322.872 L112.103 326.807 L90.1586 326.807 L90.1586 322.872 Q92.8206 320.117 97.4039 315.488 Q102.01 310.835 103.191 309.492 Q105.436 306.969 106.316 305.233 Q107.219 303.474 107.219 301.784 Q107.219 299.029 105.274 297.293 Q103.353 295.557 100.251 295.557 Q98.0521 295.557 95.5984 296.321 Q93.1678 297.085 90.3901 298.636 L90.3901 293.914 Q93.2141 292.779 95.6678 292.201 Q98.1215 291.622 100.159 291.622 Q105.529 291.622 108.723 294.307 Q111.918 296.992 111.918 301.483 Q111.918 303.613 111.108 305.534 Q110.321 307.432 108.214 310.025 Q107.635 310.696 104.534 313.914 Q101.432 317.108 95.7836 322.872 Z" fill="#000000" fill-rule="nonzero" fill-opacity="1" /><path clip-path="url(#clip500)" d="M121.918 320.927 L126.802 320.927 L126.802 326.807 L121.918 326.807 L121.918 320.927 Z" fill="#000000" fill-rule="nonzero" fill-opacity="1" /><path clip-path="url(#clip500)" d="M137.033 292.247 L155.39 292.247 L155.39 296.182 L141.316 296.182 L141.316 304.654 Q142.334 304.307 143.353 304.145 Q144.371 303.96 145.39 303.96 Q151.177 303.96 154.556 307.131 Q157.936 310.302 157.936 315.719 Q157.936 321.298 154.464 324.4 Q150.992 327.478 144.672 327.478 Q142.496 327.478 140.228 327.108 Q137.982 326.738 135.575 325.997 L135.575 321.298 Q137.658 322.432 139.881 322.988 Q142.103 323.543 144.58 323.543 Q148.584 323.543 150.922 321.437 Q153.26 319.33 153.26 315.719 Q153.26 312.108 150.922 310.002 Q148.584 307.895 144.58 307.895 Q142.705 307.895 140.83 308.312 Q138.978 308.728 137.033 309.608 L137.033 292.247 Z" fill="#000000" fill-rule="nonzero" fill-opacity="1" /><path clip-path="url(#clip500)" d="M800.99 43.6931 L800.99 65.8515 L814.115 65.8515 Q820.718 65.8515 823.878 63.1374 Q827.078 60.3828 827.078 54.752 Q827.078 49.0808 823.878 46.4072 Q820.718 43.6931 814.115 43.6931 L800.99 43.6931 M800.99 18.8205 L800.99 37.0496 L813.102 37.0496 Q819.098 37.0496 822.014 34.8216 Q824.972 32.5531 824.972 27.935 Q824.972 23.3575 822.014 21.089 Q819.098 18.8205 813.102 18.8205 L800.99 18.8205 M792.807 12.096 L813.71 12.096 Q823.068 12.096 828.131 15.9849 Q833.195 19.8737 833.195 27.0438 Q833.195 32.5936 830.602 35.8748 Q828.01 39.156 822.987 39.9662 Q829.023 41.2625 832.344 45.3944 Q835.707 49.4858 835.707 55.6432 Q835.707 63.745 830.197 68.1605 Q824.688 72.576 814.52 72.576 L792.807 72.576 L792.807 12.096 Z" fill="#000000" fill-rule="nonzero" fill-opacity="1" /><path clip-path="url(#clip500)" d="M872.813 17.6457 Q863.901 17.6457 858.635 24.2892 Q853.409 30.9327 853.409 42.3968 Q853.409 53.8203 858.635 60.4638 Q863.901 67.1073 872.813 67.1073 Q881.725 67.1073 886.91 60.4638 Q892.136 53.8203 892.136 42.3968 Q892.136 30.9327 886.91 24.2892 Q881.725 17.6457 872.813 17.6457 M872.813 11.0023 Q885.533 11.0023 893.148 19.5497 Q900.764 28.0566 900.764 42.3968 Q900.764 56.6965 893.148 65.2439 Q885.533 73.7508 872.813 73.7508 Q860.052 73.7508 852.396 65.2439 Q844.781 56.737 844.781 42.3968 Q844.781 28.0566 852.396 19.5497 Q860.052 11.0023 872.813 11.0023 Z" fill="#000000" fill-rule="nonzero" fill-opacity="1" /><path clip-path="url(#clip500)" d="M913.565 12.096 L921.748 12.096 L921.748 65.6895 L951.198 65.6895 L951.198 72.576 L913.565 72.576 L913.565 12.096 Z" fill="#000000" fill-rule="nonzero" fill-opacity="1" /><path clip-path="url(#clip500)" d="M967.969 18.8205 L967.969 65.8515 L977.853 65.8515 Q990.37 65.8515 996.163 60.1802 Q1002 54.509 1002 42.2752 Q1002 30.1225 996.163 24.4918 Q990.37 18.8205 977.853 18.8205 L967.969 18.8205 M959.786 12.096 L976.597 12.096 Q994.178 12.096 1002.4 19.4281 Q1010.62 26.7198 1010.62 42.2752 Q1010.62 57.9117 1002.36 65.2439 Q994.097 72.576 976.597 72.576 L959.786 72.576 L959.786 12.096 Z" fill="#000000" fill-rule="nonzero" fill-opacity="1" /><path clip-path="url(#clip500)" d="M1078.64 28.5427 L1078.64 35.5912 Q1075.48 33.9709 1072.08 33.1607 Q1068.67 32.3505 1065.03 32.3505 Q1059.48 32.3505 1056.68 34.0519 Q1053.93 35.7533 1053.93 39.156 Q1053.93 41.7486 1055.91 43.2475 Q1057.9 44.7058 1063.89 46.0426 L1066.45 46.6097 Q1074.39 48.3111 1077.71 51.4303 Q1081.07 54.509 1081.07 60.0587 Q1081.07 66.3781 1076.05 70.0644 Q1071.06 73.7508 1062.31 73.7508 Q1058.67 73.7508 1054.7 73.0216 Q1050.77 72.3329 1046.39 70.9151 L1046.39 63.2184 Q1050.53 65.3654 1054.54 66.4591 Q1058.55 67.5124 1062.48 67.5124 Q1067.74 67.5124 1070.58 65.73 Q1073.41 63.9071 1073.41 60.6258 Q1073.41 57.5877 1071.35 55.9673 Q1069.32 54.3469 1062.4 52.8481 L1059.8 52.2405 Q1052.88 50.7821 1049.8 47.7845 Q1046.72 44.7463 1046.72 39.4801 Q1046.72 33.0797 1051.26 29.5959 Q1055.79 26.1121 1064.14 26.1121 Q1068.27 26.1121 1071.91 26.7198 Q1075.56 27.3274 1078.64 28.5427 Z" fill="#000000" fill-rule="nonzero" fill-opacity="1" /><path clip-path="url(#clip500)" d="M1092.94 27.2059 L1100.39 27.2059 L1100.39 72.576 L1092.94 72.576 L1092.94 27.2059 M1092.94 9.54393 L1100.39 9.54393 L1100.39 18.9825 L1092.94 18.9825 L1092.94 9.54393 Z" fill="#000000" fill-rule="nonzero" fill-opacity="1" /><path clip-path="url(#clip500)" d="M1145.84 49.3643 Q1145.84 41.2625 1142.48 36.8065 Q1139.16 32.3505 1133.12 32.3505 Q1127.13 32.3505 1123.77 36.8065 Q1120.44 41.2625 1120.44 49.3643 Q1120.44 57.4256 1123.77 61.8816 Q1127.13 66.3376 1133.12 66.3376 Q1139.16 66.3376 1142.48 61.8816 Q1145.84 57.4256 1145.84 49.3643 M1153.3 66.9452 Q1153.3 78.5308 1148.15 84.1616 Q1143.01 89.8329 1132.39 89.8329 Q1128.47 89.8329 1124.98 89.2252 Q1121.5 88.6581 1118.22 87.4428 L1118.22 80.1917 Q1121.5 81.9741 1124.7 82.8248 Q1127.9 83.6755 1131.22 83.6755 Q1138.55 83.6755 1142.2 79.8271 Q1145.84 76.0193 1145.84 68.282 L1145.84 64.5957 Q1143.53 68.6061 1139.93 70.5911 Q1136.32 72.576 1131.3 72.576 Q1122.96 72.576 1117.85 66.2161 Q1112.75 59.8562 1112.75 49.3643 Q1112.75 38.832 1117.85 32.472 Q1122.96 26.1121 1131.3 26.1121 Q1136.32 26.1121 1139.93 28.0971 Q1143.53 30.082 1145.84 34.0924 L1145.84 27.2059 L1153.3 27.2059 L1153.3 66.9452 Z" fill="#000000" fill-rule="nonzero" fill-opacity="1" /><path clip-path="url(#clip500)" d="M1206.36 45.1919 L1206.36 72.576 L1198.91 72.576 L1198.91 45.4349 Q1198.91 38.994 1196.4 35.7938 Q1193.89 32.5936 1188.86 32.5936 Q1182.83 32.5936 1179.34 36.4419 Q1175.86 40.2903 1175.86 46.9338 L1175.86 72.576 L1168.37 72.576 L1168.37 27.2059 L1175.86 27.2059 L1175.86 34.2544 Q1178.53 30.163 1182.14 28.1376 Q1185.79 26.1121 1190.53 26.1121 Q1198.34 26.1121 1202.35 30.9732 Q1206.36 35.7938 1206.36 45.1919 Z" fill="#000000" fill-rule="nonzero" fill-opacity="1" /><path clip-path="url(#clip500)" d="M1241.85 49.7694 Q1232.82 49.7694 1229.33 51.8354 Q1225.85 53.9013 1225.85 58.8839 Q1225.85 62.8538 1228.44 65.2034 Q1231.07 67.5124 1235.57 67.5124 Q1241.77 67.5124 1245.5 63.1374 Q1249.26 58.7219 1249.26 51.4303 L1249.26 49.7694 L1241.85 49.7694 M1256.72 46.6907 L1256.72 72.576 L1249.26 72.576 L1249.26 65.6895 Q1246.71 69.8214 1242.9 71.8063 Q1239.1 73.7508 1233.59 73.7508 Q1226.62 73.7508 1222.49 69.8619 Q1218.4 65.9325 1218.4 59.3701 Q1218.4 51.7138 1223.5 47.825 Q1228.64 43.9361 1238.81 43.9361 L1249.26 43.9361 L1249.26 43.2069 Q1249.26 38.0623 1245.86 35.2672 Q1242.5 32.4315 1236.38 32.4315 Q1232.49 32.4315 1228.81 33.3632 Q1225.12 34.295 1221.72 36.1584 L1221.72 29.2718 Q1225.81 27.692 1229.66 26.9223 Q1233.51 26.1121 1237.15 26.1121 Q1246.99 26.1121 1251.86 31.2163 Q1256.72 36.3204 1256.72 46.6907 Z" fill="#000000" fill-rule="nonzero" fill-opacity="1" /><path clip-path="url(#clip500)" d="M1272.07 9.54393 L1279.52 9.54393 L1279.52 72.576 L1272.07 72.576 L1272.07 9.54393 Z" fill="#000000" fill-rule="nonzero" fill-opacity="1" /><path clip-path="url(#clip500)" d="M1339.07 32.4315 Q1333.08 32.4315 1329.59 37.1306 Q1326.11 41.7891 1326.11 49.9314 Q1326.11 58.0738 1329.55 62.7728 Q1333.04 67.4314 1339.07 67.4314 Q1345.03 67.4314 1348.51 62.7323 Q1351.99 58.0333 1351.99 49.9314 Q1351.99 41.8701 1348.51 37.1711 Q1345.03 32.4315 1339.07 32.4315 M1339.07 26.1121 Q1348.79 26.1121 1354.34 32.4315 Q1359.89 38.7509 1359.89 49.9314 Q1359.89 61.0714 1354.34 67.4314 Q1348.79 73.7508 1339.07 73.7508 Q1329.31 73.7508 1323.76 67.4314 Q1318.25 61.0714 1318.25 49.9314 Q1318.25 38.7509 1323.76 32.4315 Q1329.31 26.1121 1339.07 26.1121 Z" fill="#000000" fill-rule="nonzero" fill-opacity="1" /><path clip-path="url(#clip500)" d="M1395.22 9.54393 L1395.22 15.7418 L1388.09 15.7418 Q1384.08 15.7418 1382.5 17.3622 Q1380.96 18.9825 1380.96 23.1955 L1380.96 27.2059 L1393.23 27.2059 L1393.23 32.9987 L1380.96 32.9987 L1380.96 72.576 L1373.46 72.576 L1373.46 32.9987 L1366.33 32.9987 L1366.33 27.2059 L1373.46 27.2059 L1373.46 24.0462 Q1373.46 16.471 1376.99 13.0277 Q1380.51 9.54393 1388.17 9.54393 L1395.22 9.54393 Z" fill="#000000" fill-rule="nonzero" fill-opacity="1" /><path clip-path="url(#clip500)" d="M1454.12 34.1734 Q1452.86 33.4443 1451.36 33.1202 Q1449.9 32.7556 1448.12 32.7556 Q1441.8 32.7556 1438.4 36.8875 Q1435.04 40.9789 1435.04 48.6757 L1435.04 72.576 L1427.54 72.576 L1427.54 27.2059 L1435.04 27.2059 L1435.04 34.2544 Q1437.39 30.1225 1441.15 28.1376 Q1444.92 26.1121 1450.31 26.1121 Q1451.08 26.1121 1452.01 26.2337 Q1452.94 26.3147 1454.08 26.5172 L1454.12 34.1734 Z" fill="#000000" fill-rule="nonzero" fill-opacity="1" /><path clip-path="url(#clip500)" d="M1498.92 48.0275 L1498.92 51.6733 L1464.65 51.6733 Q1465.14 59.3701 1469.27 63.421 Q1473.44 67.4314 1480.85 67.4314 Q1485.15 67.4314 1489.16 66.3781 Q1493.21 65.3249 1497.18 63.2184 L1497.18 70.267 Q1493.17 71.9684 1488.96 72.8596 Q1484.74 73.7508 1480.41 73.7508 Q1469.55 73.7508 1463.19 67.4314 Q1456.87 61.1119 1456.87 50.3365 Q1456.87 39.1965 1462.87 32.6746 Q1468.9 26.1121 1479.11 26.1121 Q1488.27 26.1121 1493.57 32.0264 Q1498.92 37.9003 1498.92 48.0275 M1491.47 45.84 Q1491.39 39.7232 1488.02 36.0774 Q1484.7 32.4315 1479.19 32.4315 Q1472.95 32.4315 1469.19 35.9558 Q1465.46 39.4801 1464.89 45.8805 L1491.47 45.84 Z" fill="#000000" fill-rule="nonzero" fill-opacity="1" /><path clip-path="url(#clip500)" d="M1541.01 49.3643 Q1541.01 41.2625 1537.65 36.8065 Q1534.33 32.3505 1528.29 32.3505 Q1522.29 32.3505 1518.93 36.8065 Q1515.61 41.2625 1515.61 49.3643 Q1515.61 57.4256 1518.93 61.8816 Q1522.29 66.3376 1528.29 66.3376 Q1534.33 66.3376 1537.65 61.8816 Q1541.01 57.4256 1541.01 49.3643 M1548.46 66.9452 Q1548.46 78.5308 1543.32 84.1616 Q1538.17 89.8329 1527.56 89.8329 Q1523.63 89.8329 1520.15 89.2252 Q1516.66 88.6581 1513.38 87.4428 L1513.38 80.1917 Q1516.66 81.9741 1519.86 82.8248 Q1523.06 83.6755 1526.39 83.6755 Q1533.72 83.6755 1537.36 79.8271 Q1541.01 76.0193 1541.01 68.282 L1541.01 64.5957 Q1538.7 68.6061 1535.1 70.5911 Q1531.49 72.576 1526.47 72.576 Q1518.12 72.576 1513.02 66.2161 Q1507.91 59.8562 1507.91 49.3643 Q1507.91 38.832 1513.02 32.472 Q1518.12 26.1121 1526.47 26.1121 Q1531.49 26.1121 1535.1 28.0971 Q1538.7 30.082 1541.01 34.0924 L1541.01 27.2059 L1548.46 27.2059 L1548.46 66.9452 Z" fill="#000000" fill-rule="nonzero" fill-opacity="1" /><path clip-path="url(#clip500)" d="M1563.82 27.2059 L1571.27 27.2059 L1571.27 72.576 L1563.82 72.576 L1563.82 27.2059 M1563.82 9.54393 L1571.27 9.54393 L1571.27 18.9825 L1563.82 18.9825 L1563.82 9.54393 Z" fill="#000000" fill-rule="nonzero" fill-opacity="1" /><path clip-path="url(#clip500)" d="M1604.45 32.4315 Q1598.45 32.4315 1594.97 37.1306 Q1591.48 41.7891 1591.48 49.9314 Q1591.48 58.0738 1594.93 62.7728 Q1598.41 67.4314 1604.45 67.4314 Q1610.4 67.4314 1613.89 62.7323 Q1617.37 58.0333 1617.37 49.9314 Q1617.37 41.8701 1613.89 37.1711 Q1610.4 32.4315 1604.45 32.4315 M1604.45 26.1121 Q1614.17 26.1121 1619.72 32.4315 Q1625.27 38.7509 1625.27 49.9314 Q1625.27 61.0714 1619.72 67.4314 Q1614.17 73.7508 1604.45 73.7508 Q1594.68 73.7508 1589.13 67.4314 Q1583.62 61.0714 1583.62 49.9314 Q1583.62 38.7509 1589.13 32.4315 Q1594.68 26.1121 1604.45 26.1121 Z" fill="#000000" fill-rule="nonzero" fill-opacity="1" /><path clip-path="url(#clip500)" d="M1675.34 45.1919 L1675.34 72.576 L1667.88 72.576 L1667.88 45.4349 Q1667.88 38.994 1665.37 35.7938 Q1662.86 32.5936 1657.84 32.5936 Q1651.8 32.5936 1648.32 36.4419 Q1644.83 40.2903 1644.83 46.9338 L1644.83 72.576 L1637.34 72.576 L1637.34 27.2059 L1644.83 27.2059 L1644.83 34.2544 Q1647.51 30.163 1651.11 28.1376 Q1654.76 26.1121 1659.5 26.1121 Q1667.32 26.1121 1671.33 30.9732 Q1675.34 35.7938 1675.34 45.1919 Z" fill="#000000" fill-rule="nonzero" fill-opacity="1" /><path clip-path="url(#clip500)" d="M1719.05 65.6895 L1732.41 65.6895 L1732.41 19.5497 L1717.87 22.4663 L1717.87 15.0127 L1732.33 12.096 L1740.52 12.096 L1740.52 65.6895 L1753.88 65.6895 L1753.88 72.576 L1719.05 72.576 L1719.05 65.6895 Z" fill="#000000" fill-rule="nonzero" fill-opacity="1" /><polyline clip-path="url(#clip501)" style="stroke:#009af9; stroke-linecap:round; stroke-linejoin:round; stroke-width:4; stroke-opacity:1; fill:none" points="255.035,524.993 255.785,607.094 256.536,576.368 257.287,583.6 258.037,606.333 258.788,562.966 259.539,537.305 260.29,605.494 261.04,638.386 261.791,656.684 262.542,615.53 263.292,656.429 264.043,574.08 264.794,685.812 265.544,590.827 266.295,618.338 267.046,715.324 267.796,612.254 268.547,688.363 269.298,683.164 270.048,512.539 270.799,565.285 271.55,544.161 272.301,490.307 273.051,515.052 273.802,577.696 274.553,668.292 275.303,642.739 276.054,478.86 276.805,645.963 277.555,590.6 278.306,596.742 279.057,612.396 279.807,494.623 280.558,564.339 281.309,594.906 282.06,603.619 282.81,557.86 283.561,624.731 284.312,566.837 285.062,812.407 285.813,645.191 286.564,648.108 287.314,530.192 288.065,604.577 288.816,514.537 289.566,555.575 290.317,622.67 291.068,507.72 291.818,583.624 292.569,474.706 293.32,635.688 294.071,699.662 294.821,579.913 295.572,505.419 296.323,560.798 297.073,600.948 297.824,579.748 298.575,538.988 299.325,675.383 300.076,566.165 300.827,595.526 301.577,432.021 302.328,536.865 303.079,488.641 303.83,669.648 304.58,546.21 305.331,749.764 306.082,592.71 306.832,599.511 307.583,449.794 308.334,389.752 309.084,492.854 309.835,390.348 310.586,426.34 311.336,408.125 312.087,319.48 312.838,384.624 313.589,404.072 314.339,396.899 315.09,291.352 315.841,378.9 316.591,358.34 317.342,369.189 318.093,288.303 318.843,256.583 319.594,293.7 320.345,419.802 321.095,287.065 321.846,480.615 322.597,449.724 323.347,392.27 324.098,492.452 324.849,467.572 325.6,522.358 326.35,476.719 327.101,409.46 327.852,562.502 328.602,529.711 329.353,654.779 330.104,615.237 330.854,650.511 331.605,713.689 332.356,741.04 333.106,635.169 333.857,846.871 334.608,848.191 335.359,850.99 336.109,936.602 336.86,921.594 337.611,1079.61 338.361,946.908 339.112,940.751 339.863,977.812 340.613,1036.18 341.364,993.939 342.115,973.774 342.865,1013.47 343.616,1047.54 344.367,995.683 345.117,1029.53 345.868,827.384 346.619,843.245 347.37,882.348 348.12,779.838 348.871,901.857 349.622,789.329 350.372,863.461 351.123,759.311 351.874,749.223 352.624,823.698 353.375,800.866 354.126,891.2 354.876,784.005 355.627,735.948 356.378,694.879 357.129,658.012 357.879,680.715 358.63,758.595 359.381,643.523 360.131,684.524 360.882,638.22 361.633,759.06 362.383,718.208 363.134,665.956 363.885,514.011 364.635,603.376 365.386,643.748 366.137,585.689 366.888,792.743 367.638,628.714 368.389,654.56 369.14,707.191 369.89,623.581 370.641,540.044 371.392,607.402 372.142,636.165 372.893,467.191 373.644,615.436 374.394,592.775 375.145,649.911 375.896,579.648 376.646,531.382 377.397,531.035 378.148,582.335 378.899,554.587 379.649,575.392 380.4,556.139 381.151,505.308 381.901,506.407 382.652,680.019 383.403,618.735 384.153,596.977 384.904,664.384 385.655,566.624 386.405,680.582 387.156,624.227 387.907,517.285 388.658,551.228 389.408,512.499 390.159,589.974 390.91,660.265 391.66,449.689 392.411,639.539 393.162,552.974 393.912,537.74 394.663,565.94 395.414,565.426 396.164,591.66 396.915,468.947 397.666,489.345 398.417,453.485 399.167,443.352 399.918,455.254 400.669,277.889 401.419,388.728 402.17,513.626 402.921,417.95 403.671,366.623 404.422,367.57 405.173,283.366 405.923,344.558 406.674,241.357 407.425,364.886 408.175,351.776 408.926,338.861 409.677,321.438 410.428,289.258 411.178,301.453 411.929,347.096 412.68,308.035 413.43,437.444 414.181,336.526 414.932,392.745 415.682,367.857 416.433,343.239 417.184,414.883 417.934,306.299 418.685,448.735 419.436,346.93 420.187,415.534 420.937,596.271 421.688,532.082 422.439,643.442 423.189,690.538 423.94,509.188 424.691,529.33 425.441,531.868 426.192,708.26 426.943,744.704 427.693,571.852 428.444,706.238 429.195,637.604 429.945,547.411 430.696,638.554 431.447,556.607 432.198,723.426 432.948,542.844 433.699,792.689 434.45,535.026 435.2,603.814 435.951,585.728 436.702,668.027 437.452,712.991 438.203,606.951 438.954,787.545 439.704,604.615 440.455,627.5 441.206,776.48 441.957,597.965 442.707,789.205 443.458,772.337 444.209,783.852 444.959,718.991 445.71,787.605 446.461,814.138 447.211,747.985 447.962,737.549 448.713,918.354 449.463,782.817 450.214,843.978 450.965,908.863 451.716,709.209 452.466,842.357 453.217,842.423 453.968,797.495 454.718,833.631 455.469,841.679 456.22,773.154 456.97,766.12 457.721,871.322 458.472,626.003 459.222,674.391 459.973,637.085 460.724,940.895 461.474,750.917 462.225,714.907 462.976,727.152 463.727,686.341 464.477,817.629 465.228,620.276 465.979,673.453 466.729,580.049 467.48,441.917 468.231,585.614 468.981,606.879 469.732,670.463 470.483,675.572 471.233,513.836 471.984,644.559 472.735,609.556 473.486,540.166 474.236,597.265 474.987,541.373 475.738,683.516 476.488,590.17 477.239,689.406 477.99,552.925 478.74,647.376 479.491,600.618 480.242,578.683 480.992,542.86 481.743,520.005 482.494,453.881 483.244,500.26 483.995,507.292 484.746,394.837 485.497,581.646 486.247,519.073 486.998,494.825 487.749,473.25 488.499,343.519 489.25,318.823 490.001,184.063 490.751,230.021 491.502,336.542 492.253,226.647 493.003,325.443 493.754,162.047 494.505,205.555 495.256,250.991 496.006,269.695 496.757,172.549 497.508,268.437 498.258,378.644 499.009,274.263 499.76,389.626 500.51,372.92 501.261,269.137 502.012,454.886 502.762,339.378 503.513,384.595 504.264,401.003 505.015,415.47 505.765,381.642 506.516,413.723 507.267,540.856 508.017,544.8 508.768,460.635 509.519,524.615 510.269,593.784 511.02,672.231 511.771,537.622 512.521,591.642 513.272,605.773 514.023,542.644 514.773,697.071 515.524,661.607 516.275,617.404 517.026,657.473 517.776,738.593 518.527,703.691 519.278,719.083 520.028,605.523 520.779,638.315 521.53,579.179 522.28,714.335 523.031,601.733 523.782,568.338 524.532,570.725 525.283,498.692 526.034,694.135 526.785,532.356 527.535,553.542 528.286,679.764 529.037,564.197 529.787,661.285 530.538,674.604 531.289,614.225 532.039,594.7 532.79,557.318 533.541,553.999 534.291,503.708 535.042,624.165 535.793,688.317 536.544,639.317 537.294,616.044 538.045,496.129 538.796,540.289 539.546,621.63 540.297,461.907 541.048,745.63 541.798,609.972 542.549,630.631 543.3,647.731 544.05,634.465 544.801,605.751 545.552,645.603 546.302,627.169 547.053,715.692 547.804,615.851 548.555,578.959 549.305,574.942 550.056,611.392 550.807,534.305 551.557,671.846 552.308,662.699 553.059,579.703 553.809,728.888 554.56,551.124 555.311,578.32 556.061,600.552 556.812,583.389 557.563,612.867 558.314,646.248 559.064,740.858 559.815,710.174 560.566,560.737 561.316,589.522 562.067,611.89 562.818,575.427 563.568,583.449 564.319,637.646 565.07,636.324 565.82,549.303 566.571,518.53 567.322,641.28 568.072,608.154 568.823,684.574 569.574,548.677 570.325,617.855 571.075,724.503 571.826,624.911 572.577,629.82 573.327,602.735 574.078,573.066 574.829,653.086 575.579,511.035 576.33,621.685 577.081,629.871 577.831,647.997 578.582,491.059 579.333,586.405 580.084,648.343 580.834,640.704 581.585,607.419 582.336,520.157 583.086,680.654 583.837,625.418 584.588,483.716 585.338,604.856 586.089,678.163 586.84,652.233 587.59,612.04 588.341,579.23 589.092,741.301 589.843,660.813 590.593,639.455 591.344,735.801 592.095,641.644 592.845,645.863 593.596,692.599 594.347,704.448 595.097,772.957 595.848,667.582 596.599,671.332 597.349,569.276 598.1,741.928 598.851,706.225 599.601,729.25 600.352,626.702 601.103,707.045 601.854,763.309 602.604,624.775 603.355,729.476 604.106,657.619 604.856,750.837 605.607,615.472 606.358,609.007 607.108,575.322 607.859,580.042 608.61,670.88 609.36,676.416 610.111,588.873 610.862,733.634 611.613,731.039 612.363,701.069 613.114,762.047 613.865,736.391 614.615,828.793 615.366,704.473 616.117,770.465 616.867,735.031 617.618,818.685 618.369,809.271 619.119,915.805 619.87,931.978 620.621,888.221 621.371,979.438 622.122,1061.09 622.873,934.968 623.624,986.874 624.374,1082.54 625.125,1070.51 625.876,1054.71 626.626,1040.15 627.377,1113.26 628.128,1016.07 628.878,1035.48 629.629,1082.3 630.38,1055.64 631.13,1024.52 631.881,1249.26 632.632,1041.65 633.383,1073.07 634.133,1124.52 634.884,1113.68 635.635,1183.84 636.385,1049.78 637.136,978.947 637.887,884.933 638.637,975.548 639.388,952.644 640.139,903.553 640.889,901.89 641.64,918.518 642.391,911.656 643.142,889.244 643.892,814.992 644.643,881.971 645.394,803.413 646.144,705.062 646.895,684.972 647.646,793.676 648.396,738.636 649.147,772.471 649.898,648.169 650.648,726.976 651.399,664.295 652.15,618.25 652.9,597.961 653.651,656.169 654.402,737.75 655.153,668.042 655.903,707.035 656.654,890.058 657.405,764.348 658.155,770.369 658.906,648.654 659.657,851.142 660.407,713.398 661.158,792.326 661.909,864.849 662.659,746.738 663.41,881.449 664.161,904.217 664.912,874.961 665.662,895.911 666.413,974.313 667.164,910.745 667.914,958.544 668.665,950.33 669.416,902.661 670.166,938.944 670.917,945.056 671.668,950.133 672.418,1010.26 673.169,938.391 673.92,943.71 674.671,922.16 675.421,976.071 676.172,998.874 676.923,1045.4 677.673,986.992 678.424,968.251 679.175,952.853 679.925,890.689 680.676,949.529 681.427,896.397 682.177,967.553 682.928,1014.82 683.679,977.26 684.429,1008.83 685.18,829.293 685.931,903.081 686.682,884.331 687.432,784.948 688.183,780.67 688.934,883.389 689.684,928.546 690.435,908.312 691.186,867.666 691.936,878.949 692.687,887.916 693.438,904.068 694.188,910.199 694.939,870.258 695.69,894.161 696.441,839.66 697.191,728.684 697.942,849.6 698.693,687.555 699.443,868.499 700.194,691.038 700.945,739.437 701.695,788.778 702.446,795.22 703.197,766.522 703.947,641.238 704.698,687.724 705.449,515.852 706.199,609.309 706.95,705.582 707.701,611.778 708.452,694.792 709.202,610.342 709.953,658.411 710.704,717.696 711.454,695.589 712.205,791.156 712.956,760.082 713.706,627.403 714.457,605.604 715.208,548.731 715.958,580.223 716.709,554.095 717.46,509.972 718.211,668.136 718.961,620.466 719.712,547.163 720.463,593.635 721.213,598.774 721.964,665.252 722.715,620.463 723.465,650.677 724.216,672.353 724.967,579.387 725.717,570.283 726.468,592.509 727.219,654 727.97,620.436 728.72,542.154 729.471,660.364 730.222,604.996 730.972,601.987 731.723,711.827 732.474,484.765 733.224,523.586 733.975,494.366 734.726,493.58 735.476,704.136 736.227,570.916 736.978,583.313 737.728,539.225 738.479,569.566 739.23,568.877 739.981,564.058 740.731,684 741.482,659.475 742.233,585.796 742.983,556.235 743.734,593.732 744.485,651.037 745.235,603.273 745.986,530.069 746.737,750.188 747.487,686.551 748.238,741.472 748.989,634.498 749.74,725.485 750.49,629.241 751.241,705.831 751.992,620.422 752.742,690.245 753.493,776.827 754.244,655.283 754.994,725.064 755.745,640.129 756.496,670.893 757.246,732.041 757.997,685.453 758.748,600.476 759.498,780.67 760.249,768.697 761,780.01 761.751,712.355 762.501,871.743 763.252,830.314 764.003,772.092 764.753,792.435 765.504,874.078 766.255,904.305 767.005,769.21 767.756,735.85 768.507,865.983 769.257,949.72 770.008,902.302 770.759,867.378 771.51,789.591 772.26,906.107 773.011,913.033 773.762,851.082 774.512,811.693 775.263,744.365 776.014,756.516 776.764,816.57 777.515,822.605 778.266,768.718 779.016,737.751 779.767,759.163 780.518,886.569 781.269,727.323 782.019,724.985 782.77,779.523 783.521,772.513 784.271,647.064 785.022,600.819 785.773,715.513 786.523,506.366 787.274,676.379 788.025,532.509 788.775,703.208 789.526,653.969 790.277,772.77 791.027,579.161 791.778,594.178 792.529,631.46 793.28,520.909 794.03,650.519 794.781,671.946 795.532,610.081 796.282,628.211 797.033,676.525 797.784,595.627 798.534,578.726 799.285,615.332 800.036,681.229 800.786,732.54 801.537,562.017 802.288,596.609 803.039,638.671 803.789,600.238 804.54,713.755 805.291,539.369 806.041,571.688 806.792,564.976 807.543,439.576 808.293,635.54 809.044,661.281 809.795,667.694 810.545,700.989 811.296,657.232 812.047,720.395 812.798,593.957 813.548,609.73 814.299,672.61 815.05,510.567 815.8,617.35 816.551,605.586 817.302,594.887 818.052,545.864 818.803,511.475 819.554,513.4 820.304,473.912 821.055,665.548 821.806,481.368 822.556,571.93 823.307,451.928 824.058,631.621 824.809,476.691 825.559,542.24 826.31,567.428 827.061,631.443 827.811,587.735 828.562,450.522 829.313,523.272 830.063,534.212 830.814,622.181 831.565,513.703 832.315,597.02 833.066,618.353 833.817,657.157 834.568,519.801 835.318,499.847 836.069,658.181 836.82,607.008 837.57,663.031 838.321,622.318 839.072,793.543 839.822,727.394 840.573,791.14 841.324,706.166 842.074,806.85 842.825,811.873 843.576,841.487 844.326,853.933 845.077,975.215 845.828,947.115 846.579,962.132 847.329,911.262 848.08,1095.64 848.831,1211.47 849.581,1170.32 850.332,1144.46 851.083,1233.35 851.833,1235.68 852.584,1320.43 853.335,1252.69 854.085,1282.68 854.836,1294.94 855.587,1281 856.338,1430.29 857.088,1249.6 857.839,1360.21 858.59,1447.87 859.34,1429.29 860.091,1263.28 860.842,1372.27 861.592,1407.5 862.343,1358.7 863.094,1348.98 863.844,1309.39 864.595,1174.14 865.346,1320.79 866.097,1235.99 866.847,1202.42 867.598,1184.92 868.349,1010.12 869.099,1096.68 869.85,1135.72 870.601,1153.27 871.351,1100.09 872.102,987.505 872.853,872.603 873.603,979.252 874.354,980.916 875.105,901.569 875.855,934.598 876.606,852.891 877.357,892.574 878.108,745.446 878.858,719.58 879.609,767.884 880.36,690.623 881.11,847.735 881.861,616.984 882.612,715.183 883.362,730.028 884.113,720.798 884.864,636.11 885.614,636.249 886.365,676.521 887.116,662.263 887.867,618.854 888.617,728.96 889.368,648.106 890.119,673.786 890.869,574.195 891.62,665.243 892.371,674.949 893.121,688.471 893.872,593.443 894.623,606.492 895.373,540.072 896.124,553.256 896.875,639.882 897.625,713.972 898.376,699.311 899.127,660.857 899.878,449.738 900.628,645.189 901.379,645.641 902.13,635.047 902.88,516.6 903.631,602.972 904.382,654.181 905.132,580.246 905.883,588.346 906.634,595.312 907.384,614.306 908.135,599.913 908.886,555.646 909.637,649.014 910.387,584.416 911.138,678.013 911.889,550.353 912.639,564.012 913.39,469.717 914.141,606.87 914.891,690.06 915.642,624.352 916.393,610.333 917.143,686.557 917.894,653.224 918.645,692.113 919.396,727.539 920.146,688.352 920.897,578.696 921.648,628.31 922.398,603.752 923.149,559.579 923.9,543.601 924.65,652.18 925.401,564.399 926.152,723.477 926.902,635.982 927.653,546.15 928.404,583.415 929.154,687.734 929.905,652.921 930.656,616.688 931.407,656.104 932.157,749.927 932.908,541.382 933.659,631.332 934.409,680.18 935.16,584.967 935.911,633.496 936.661,638.08 937.412,651.321 938.163,673.402 938.913,612.345 939.664,549.63 940.415,563.08 941.166,586.654 941.916,607.518 942.667,598.435 943.418,561.167 944.168,736.671 944.919,577.379 945.67,690.753 946.42,592.432 947.171,559.735 947.922,636.868 948.672,685.653 949.423,648.813 950.174,606.528 950.925,549.661 951.675,574.712 952.426,589.474 953.177,629.989 953.927,605.923 954.678,547.19 955.429,639.771 956.179,554.923 956.93,642.464 957.681,618.261 958.431,545.147 959.182,555.464 959.933,615.019 960.683,564.537 961.434,548.021 962.185,678.109 962.936,719.515 963.686,665.446 964.437,609.842 965.188,749.691 965.938,650.691 966.689,704.988 967.44,794.452 968.19,732.105 968.941,694.826 969.692,706.542 970.442,818.867 971.193,702.31 971.944,731.832 972.695,792.112 973.445,814.765 974.196,772.176 974.947,842.698 975.697,755.219 976.448,695.904 977.199,771.56 977.949,837.82 978.7,854.65 979.451,887.71 980.201,729.805 980.952,718.042 981.703,668.352 982.453,826.649 983.204,858.759 983.955,810.937 984.706,721.849 985.456,797.385 986.207,706.731 986.958,719.995 987.708,699.554 988.459,705.396 989.21,661.61 989.96,739.965 990.711,656.835 991.462,691.613 992.212,635.917 992.963,652.27 993.714,539.214 994.465,578.03 995.215,774.097 995.966,703.097 996.717,686.447 997.467,595.72 998.218,628.634 998.969,674.435 999.719,566.407 1000.47,614.194 1001.22,582.565 1001.97,656.702 1002.72,500.092 1003.47,615.106 1004.22,650.8 1004.97,613.457 1005.72,660.231 1006.48,717.751 1007.23,516.624 1007.98,641.024 1008.73,569.261 1009.48,609.501 1010.23,465.176 1010.98,575.482 1011.73,568.502 1012.48,417.682 1013.23,503.118 1013.98,408.444 1014.73,450.722 1015.48,646.253 1016.23,518.36 1016.99,508.762 1017.74,444.955 1018.49,467.675 1019.24,438.166 1019.99,435.771 1020.74,411.964 1021.49,567.267 1022.24,581.189 1022.99,589.316 1023.74,617.224 1024.49,710.282 1025.24,616.967 1025.99,708.916 1026.74,711.557 1027.49,758.173 1028.25,749.234 1029,794.422 1029.75,816.467 1030.5,933.525 1031.25,805.318 1032,891.82 1032.75,811.589 1033.5,985.457 1034.25,961.625 1035,1080.4 1035.75,965.271 1036.5,1095.35 1037.25,1174.89 1038,1098.65 1038.76,1023.29 1039.51,1120.03 1040.26,1020.22 1041.01,1124.53 1041.76,991.595 1042.51,1070.07 1043.26,1016.63 1044.01,1031.49 1044.76,976.167 1045.51,975.811 1046.26,840.59 1047.01,887.025 1047.76,846.11 1048.51,884.761 1049.26,750.939 1050.02,860.801 1050.77,688.455 1051.52,818.412 1052.27,696.583 1053.02,737.036 1053.77,690.151 1054.52,612.85 1055.27,643.454 1056.02,671.621 1056.77,664.243 1057.52,702.201 1058.27,699.485 1059.02,628.628 1059.77,751.26 1060.53,631.284 1061.28,641.177 1062.03,630.027 1062.78,749.666 1063.53,712.269 1064.28,705.118 1065.03,851.509 1065.78,819.744 1066.53,866.59 1067.28,847.801 1068.03,822.075 1068.78,871.328 1069.53,921.235 1070.28,792.431 1071.03,849.417 1071.79,1050.05 1072.54,1076.33 1073.29,1003.8 1074.04,1190.71 1074.79,1093.3 1075.54,1012.18 1076.29,1105.52 1077.04,1136.94 1077.79,1099.36 1078.54,1165.97 1079.29,1142.17 1080.04,1218.8 1080.79,1160.28 1081.54,1122.26 1082.3,1118.33 1083.05,1231.43 1083.8,1099.78 1084.55,1036.35 1085.3,1133.06 1086.05,1023.05 1086.8,1106.02 1087.55,1012.31 1088.3,1011.7 1089.05,971.905 1089.8,897.111 1090.55,970.5 1091.3,843.917 1092.05,882.871 1092.8,933.697 1093.56,866.831 1094.31,899.551 1095.06,843.896 1095.81,814.067 1096.56,777.767 1097.31,652.475 1098.06,681.163 1098.81,688.96 1099.56,834.73 1100.31,689.284 1101.06,744.743 1101.81,717.52 1102.56,626.571 1103.31,668.896 1104.07,647.631 1104.82,704.361 1105.57,659.251 1106.32,734.303 1107.07,662.214 1107.82,780.625 1108.57,718.292 1109.32,845.604 1110.07,832.109 1110.82,910.127 1111.57,811.894 1112.32,692.19 1113.07,738.309 1113.82,780.596 1114.57,633.142 1115.33,648.379 1116.08,671.114 1116.83,783.78 1117.58,799.99 1118.33,707.591 1119.08,797.263 1119.83,759.353 1120.58,623.391 1121.33,665.336 1122.08,715.241 1122.83,673.367 1123.58,752.245 1124.33,698.34 1125.08,685.031 1125.84,638.947 1126.59,836.791 1127.34,783.386 1128.09,601.988 1128.84,603.164 1129.59,680.898 1130.34,653.964 1131.09,706.365 1131.84,597.821 1132.59,539.326 1133.34,572.509 1134.09,580.543 1134.84,746.113 1135.59,657.747 1136.34,572.51 1137.1,750.691 1137.85,559.801 1138.6,725.284 1139.35,589.537 1140.1,597.763 1140.85,625.691 1141.6,572.421 1142.35,540.184 1143.1,572.604 1143.85,632.055 1144.6,663.275 1145.35,644.912 1146.1,695.49 1146.85,478.783 1147.61,707.135 1148.36,674.903 1149.11,552.277 1149.86,704.209 1150.61,555.034 1151.36,728.379 1152.11,650.015 1152.86,693.538 1153.61,653.962 1154.36,700.688 1155.11,680.302 1155.86,711.868 1156.61,666.657 1157.36,718.044 1158.12,649.168 1158.87,792.19 1159.62,823.432 1160.37,790.696 1161.12,818.859 1161.87,766.065 1162.62,736.035 1163.37,927.381 1164.12,900.438 1164.87,908.881 1165.62,930.88 1166.37,826.281 1167.12,829.506 1167.87,887.691 1168.62,878.685 1169.38,883.643 1170.13,925.812 1170.88,794.812 1171.63,903.796 1172.38,865.414 1173.13,988.228 1173.88,873.987 1174.63,863.398 1175.38,891.957 1176.13,904.288 1176.88,906.218 1177.63,795.581 1178.38,886.549 1179.13,934.661 1179.89,944.955 1180.64,852.44 1181.39,830.124 1182.14,926.487 1182.89,834.693 1183.64,867.433 1184.39,856.352 1185.14,863.349 1185.89,905.772 1186.64,864.008 1187.39,737.656 1188.14,817.304 1188.89,893.911 1189.64,940.894 1190.39,852.058 1191.15,895.381 1191.9,893.666 1192.65,929.897 1193.4,1027.98 1194.15,964.673 1194.9,1013.93 1195.65,795.33 1196.4,850.472 1197.15,1038.65 1197.9,953.064 1198.65,1024.29 1199.4,1073.78 1200.15,962.48 1200.9,1089.26 1201.66,1006.33 1202.41,1009.55 1203.16,1023.91 1203.91,1037.86 1204.66,1016.04 1205.41,974.629 1206.16,1010.12 1206.91,1105.56 1207.66,1157.95 1208.41,1006.06 1209.16,1016.15 1209.91,979.176 1210.66,1078.06 1211.41,926.445 1212.16,840.851 1212.92,852.251 1213.67,902.891 1214.42,869.129 1215.17,995.463 1215.92,823.3 1216.67,907.549 1217.42,925.071 1218.17,904.665 1218.92,711.193 1219.67,778.783 1220.42,960.122 1221.17,851.036 1221.92,610.994 1222.67,812.594 1223.43,878.751 1224.18,691.016 1224.93,835.439 1225.68,678.95 1226.43,681.457 1227.18,708.711 1227.93,644.603 1228.68,706.877 1229.43,649.142 1230.18,740.268 1230.93,723.212 1231.68,738.395 1232.43,695.488 1233.18,695.526 1233.93,685.848 1234.69,721.02 1235.44,729.12 1236.19,803.26 1236.94,838.833 1237.69,829.229 1238.44,755.621 1239.19,786.189 1239.94,730.2 1240.69,833.578 1241.44,747.595 1242.19,843.12 1242.94,876.988 1243.69,862.199 1244.44,962.509 1245.2,956.057 1245.95,940.463 1246.7,1088.13 1247.45,1172.51 1248.2,1117.98 1248.95,1130.28 1249.7,1031.73 1250.45,1040.07 1251.2,1070.87 1251.95,1196.83 1252.7,1146.15 1253.45,1060.71 1254.2,1160.89 1254.95,1118.99 1255.7,1136.86 1256.46,1106.35 1257.21,1154.39 1257.96,1061.72 1258.71,1082.64 1259.46,1020.48 1260.21,1192.21 1260.96,1107.29 1261.71,1024.39 1262.46,1009.13 1263.21,961.337 1263.96,954.078 1264.71,941.819 1265.46,937.127 1266.21,926.7 1266.97,955.953 1267.72,834.385 1268.47,864.514 1269.22,818.355 1269.97,678.959 1270.72,810.624 1271.47,841.517 1272.22,756.973 1272.97,758.524 1273.72,719.245 1274.47,579.036 1275.22,756.368 1275.97,800.709 1276.72,721.939 1277.47,690.376 1278.23,662.602 1278.98,665.221 1279.73,693.873 1280.48,634.041 1281.23,649.586 1281.98,711.919 1282.73,598.642 1283.48,651.015 1284.23,650.074 1284.98,623.047 1285.73,543.371 1286.48,677.345 1287.23,609.652 1287.98,625.671 1288.74,636.651 1289.49,607.394 1290.24,746.188 1290.99,582.863 1291.74,555.002 1292.49,546.003 1293.24,661.053 1293.99,607.315 1294.74,620.332 1295.49,629.685 1296.24,594.035 1296.99,708.003 1297.74,616.961 1298.49,713.957 1299.24,699.631 1300,584.185 1300.75,592.844 1301.5,478.768 1302.25,607.138 1303,573.285 1303.75,489.153 1304.5,537.747 1305.25,546.202 1306,722.029 1306.75,498.326 1307.5,590.44 1308.25,537.23 1309,536.544 1309.75,638.19 1310.51,691.223 1311.26,567.534 1312.01,642.201 1312.76,518.217 1313.51,574.225 1314.26,616.673 1315.01,820.881 1315.76,531.754 1316.51,575.397 1317.26,748.04 1318.01,634.431 1318.76,546.136 1319.51,784.058 1320.26,687.189 1321.01,747.385 1321.77,773.293 1322.52,733.522 1323.27,712.84 1324.02,908.66 1324.77,846.193 1325.52,825.061 1326.27,839.123 1327.02,898.898 1327.77,962.536 1328.52,929.175 1329.27,979.215 1330.02,1095.51 1330.77,1236.83 1331.52,1022.35 1332.28,1037.78 1333.03,1047.65 1333.78,1054.28 1334.53,1056.35 1335.28,1140.51 1336.03,1074.31 1336.78,1083 1337.53,1078.84 1338.28,1195.67 1339.03,1215.15 1339.78,1167.33 1340.53,1184.18 1341.28,1096.51 1342.03,1102.17 1342.78,1216.8 1343.54,1053.23 1344.29,1076.36 1345.04,1153.31 1345.79,1117.97 1346.54,1014.73 1347.29,1028.44 1348.04,1004.97 1348.79,1007.44 1349.54,1013.24 1350.29,1049.79 1351.04,783.179 1351.79,1155.37 1352.54,846.755 1353.29,904.71 1354.05,677.498 1354.8,743.87 1355.55,862.943 1356.3,893.984 1357.05,753.517 1357.8,703.211 1358.55,663.414 1359.3,733.322 1360.05,823.975 1360.8,687.32 1361.55,666.267 1362.3,586.425 1363.05,734.014 1363.8,728.038 1364.55,758.037 1365.31,785.927 1366.06,789.192 1366.81,609.889 1367.56,829.067 1368.31,740.944 1369.06,748.256 1369.81,792.227 1370.56,806.584 1371.31,934.955 1372.06,940.096 1372.81,965.917 1373.56,947.814 1374.31,909.107 1375.06,909.508 1375.82,930.601 1376.57,1071.44 1377.32,1038.81 1378.07,925.599 1378.82,981.373 1379.57,955.8 1380.32,1059.03 1381.07,1105.4 1381.82,1102.48 1382.57,1047.1 1383.32,1079.85 1384.07,1095.33 1384.82,1046.74 1385.57,1017.16 1386.32,932.686 1387.08,939.166 1387.83,1025.36 1388.58,790.14 1389.33,934.292 1390.08,1063.84 1390.83,861.559 1391.58,881.2 1392.33,927.835 1393.08,887.042 1393.83,788.196 1394.58,872.386 1395.33,868.172 1396.08,865.265 1396.83,848.454 1397.59,800.62 1398.34,804.235 1399.09,587.399 1399.84,592.892 1400.59,765.021 1401.34,660.719 1402.09,705.686 1402.84,732.92 1403.59,623.679 1404.34,737.832 1405.09,605.227 1405.84,684.542 1406.59,657.188 1407.34,862.264 1408.09,709.317 1408.85,792.216 1409.6,706.176 1410.35,855.506 1411.1,695.357 1411.85,649.903 1412.6,724.912 1413.35,518.128 1414.1,733.438 1414.85,733.925 1415.6,846.543 1416.35,741.325 1417.1,845.844 1417.85,730.074 1418.6,797.195 1419.36,797.975 1420.11,775.947 1420.86,782.773 1421.61,921.134 1422.36,640.247 1423.11,886.241 1423.86,895.508 1424.61,841.083 1425.36,808.249 1426.11,744.099 1426.86,859.751 1427.61,818.5 1428.36,676.855 1429.11,622.71 1429.86,790.116 1430.62,824.025 1431.37,806.887 1432.12,622.228 1432.87,810.875 1433.62,736.535 1434.37,768.707 1435.12,815.373 1435.87,718.131 1436.62,781.254 1437.37,720.096 1438.12,695.618 1438.87,700.718 1439.62,627.776 1440.37,648.265 1441.13,677.04 1441.88,648.962 1442.63,667.562 1443.38,692.609 1444.13,575.061 1444.88,595.754 1445.63,576.145 1446.38,475.497 1447.13,481.304 1447.88,547.508 1448.63,444.681 1449.38,466.194 1450.13,404.056 1450.88,353.203 1451.63,340.947 1452.39,350.121 1453.14,393.242 1453.89,338.294 1454.64,301.114 1455.39,310.782 1456.14,270.31 1456.89,281.327 1457.64,340.184 1458.39,278.308 1459.14,243.328 1459.89,389.018 1460.64,235.713 1461.39,353.862 1462.14,268.691 1462.9,327.745 1463.65,421.547 1464.4,379.937 1465.15,400.48 1465.9,400.596 1466.65,470.441 1467.4,549.317 1468.15,485.065 1468.9,527.696 1469.65,434.045 1470.4,484.811 1471.15,596.922 1471.9,610.337 1472.65,668.341 1473.4,572.556 1474.16,725.725 1474.91,709.293 1475.66,675.598 1476.41,569.425 1477.16,763.635 1477.91,675.724 1478.66,825.784 1479.41,689.5 1480.16,664.297 1480.91,719.616 1481.66,694.073 1482.41,713.86 1483.16,734.328 1483.91,597.22 1484.67,768.564 1485.42,763.032 1486.17,674.51 1486.92,662.437 1487.67,698.544 1488.42,686.38 1489.17,735.906 1489.92,729.665 1490.67,876.694 1491.42,727.107 1492.17,921.966 1492.92,780.131 1493.67,821.85 1494.42,829.093 1495.17,826.915 1495.93,870.426 1496.68,1031.29 1497.43,946.995 1498.18,958.308 1498.93,1034.31 1499.68,1027.65 1500.43,1087.19 1501.18,1013.47 1501.93,995.572 1502.68,1104.91 1503.43,1103.77 1504.18,1025.78 1504.93,1008.25 1505.68,983.162 1506.44,1077.65 1507.19,1053.26 1507.94,1170.65 1508.69,1109.34 1509.44,1098.62 1510.19,1113.13 1510.94,1078.09 1511.69,1107.12 1512.44,1076.72 1513.19,1118.47 1513.94,1082.47 1514.69,1026.69 1515.44,928.767 1516.19,1013.25 1516.94,910.295 1517.7,914.725 1518.45,982.378 1519.2,982.609 1519.95,913.815 1520.7,827.296 1521.45,835.382 1522.2,838.336 1522.95,799.961 1523.7,855.876 1524.45,710.384 1525.2,747.719 1525.95,789.288 1526.7,736.197 1527.45,683.54 1528.21,723.119 1528.96,843.574 1529.71,764.461 1530.46,835.953 1531.21,613.272 1531.96,804.185 1532.71,708.018 1533.46,600.27 1534.21,623.628 1534.96,587.766 1535.71,737.343 1536.46,529.109 1537.21,747.743 1537.96,707.926 1538.71,674.935 1539.47,771.082 1540.22,702.881 1540.97,765.34 1541.72,885.829 1542.47,699.157 1543.22,786.293 1543.97,787.919 1544.72,857.457 1545.47,896.066 1546.22,921.087 1546.97,881.566 1547.72,926.055 1548.47,928.335 1549.22,954.395 1549.98,923.654 1550.73,971.155 1551.48,889.73 1552.23,1057.25 1552.98,1012.63 1553.73,1149.61 1554.48,1070.22 1555.23,1147.62 1555.98,1119.95 1556.73,1270.36 1557.48,1244.05 1558.23,1213.97 1558.98,1162.48 1559.73,1226.8 1560.48,1233.81 1561.24,1185.49 1561.99,1222.88 1562.74,1161.33 1563.49,1237.22 1564.24,1129.89 1564.99,1152.33 1565.74,1166.95 1566.49,1171.19 1567.24,1117 1567.99,1114.64 1568.74,1181.18 1569.49,963.862 1570.24,1024.62 1570.99,972.704 1571.75,929.581 1572.5,945.693 1573.25,934.987 1574,967.701 1574.75,754.069 1575.5,881.412 1576.25,773.906 1577,823.303 1577.75,696.406 1578.5,801.342 1579.25,716.772 1580,687.575 1580.75,728.767 1581.5,746.926 1582.25,752.135 1583.01,708.413 1583.76,749.041 1584.51,666.683 1585.26,491.253 1586.01,636.455 1586.76,703.501 1587.51,627.202 1588.26,729.929 1589.01,739.159 1589.76,660.729 1590.51,603.221 1591.26,661.847 1592.01,584.48 1592.76,755.316 1593.52,532.444 1594.27,549.668 1595.02,664.859 1595.77,557.161 1596.52,679.064 1597.27,641.434 1598.02,657.066 1598.77,646.387 1599.52,698.82 1600.27,578.722 1601.02,567.52 1601.77,519.909 1602.52,506.888 1603.27,580.219 1604.02,599.212 1604.78,588.73 1605.53,604.39 1606.28,565.623 1607.03,594.185 1607.78,622.836 1608.53,720.951 1609.28,619.745 1610.03,610.476 1610.78,616.437 1611.53,600.275 1612.28,616.914 1613.03,656.984 1613.78,605.374 1614.53,542.959 1615.29,639.144 1616.04,525.314 1616.79,728.256 1617.54,611.912 1618.29,662.849 1619.04,556.642 1619.79,623.819 1620.54,706.054 1621.29,698.924 1622.04,523.139 1622.79,536.314 1623.54,645.765 1624.29,584.459 1625.04,496.764 1625.8,596.089 1626.55,649.613 1627.3,580.152 1628.05,661.325 1628.8,713.379 1629.55,554.67 1630.3,630.209 1631.05,631.415 1631.8,540.379 1632.55,657.02 1633.3,587.634 1634.05,674.495 1634.8,673.455 1635.55,562.68 1636.3,635.942 1637.06,624.83 1637.81,594.021 1638.56,546.618 1639.31,543.096 1640.06,539.271 1640.81,547.788 1641.56,711.751 1642.31,632.989 1643.06,581.482 1643.81,560.731 1644.56,626.098 1645.31,612.753 1646.06,551.077 1646.81,623.754 1647.57,564.341 1648.32,597.361 1649.07,582.131 1649.82,636.969 1650.57,648.956 1651.32,669.723 1652.07,584.71 1652.82,724.377 1653.57,593.402 1654.32,651.106 1655.07,608.825 1655.82,556.337 1656.57,530.475 1657.32,573.799 1658.07,564.261 1658.83,600.814 1659.58,527.007 1660.33,623.911 1661.08,544.977 1661.83,590.989 1662.58,601.967 1663.33,602.175 1664.08,615.111 1664.83,630.96 1665.58,745.313 1666.33,620.481 1667.08,641.83 1667.83,469.672 1668.58,587.363 1669.34,643.861 1670.09,637.009 1670.84,555.843 1671.59,596.28 1672.34,650.441 1673.09,643.432 1673.84,803.453 1674.59,563.39 1675.34,631.261 1676.09,618.629 1676.84,596.75 1677.59,646.713 1678.34,610.211 1679.09,617.316 1679.84,660.092 1680.6,681.91 1681.35,602.205 1682.1,567.83 1682.85,577.071 1683.6,593.586 1684.35,501.341 1685.1,557.071 1685.85,630.938 1686.6,548.375 1687.35,508.487 1688.1,456.047 1688.85,647.33 1689.6,534.594 1690.35,543.494 1691.11,576.587 1691.86,520.01 1692.61,539.024 1693.36,557.283 1694.11,485.126 1694.86,497.274 1695.61,496.747 1696.36,499.513 1697.11,446.521 1697.86,486.502 1698.61,578.484 1699.36,517.137 1700.11,670.948 1700.86,498.424 1701.61,432.668 1702.37,593.082 1703.12,572.912 1703.87,615.877 1704.62,518.51 1705.37,478.44 1706.12,489.49 1706.87,551.166 1707.62,556.205 1708.37,534.282 1709.12,557.405 1709.87,572.539 1710.62,617.469 1711.37,527.473 1712.12,471.157 1712.88,574.24 1713.63,478.127 1714.38,459.511 1715.13,649.649 1715.88,610.279 1716.63,472.881 1717.38,621.97 1718.13,630.193 1718.88,705.562 1719.63,614.58 1720.38,734.701 1721.13,580.14 1721.88,554.819 1722.63,613.413 1723.38,611.52 1724.14,714.423 1724.89,780.85 1725.64,756.23 1726.39,690.579 1727.14,816.396 1727.89,800.7 1728.64,754.645 1729.39,848.117 1730.14,780.791 1730.89,710.052 1731.64,842.004 1732.39,791.433 1733.14,872.594 1733.89,862.005 1734.65,881.174 1735.4,871.653 1736.15,825.492 1736.9,870.532 1737.65,862.345 1738.4,796.616 1739.15,870.823 1739.9,933.353 1740.65,852.713 1741.4,790.291 1742.15,927.293 1742.9,799.464 1743.65,814.834 1744.4,949.899 1745.15,800.2 1745.91,904.771 1746.66,797.335 1747.41,702.009 1748.16,1007.4 1748.91,850.971 1749.66,881.356 1750.41,920.76 1751.16,892.936 1751.91,849.291 1752.66,858.132 1753.41,666.941 1754.16,785.2 1754.91,742.438 1755.66,755.045 1756.42,788.741 1757.17,754.876 1757.92,628.396 1758.67,671.601 1759.42,728.65 1760.17,735.434 1760.92,705.525 1761.67,726.115 1762.42,771.722 1763.17,785.189 1763.92,709.471 1764.67,673.39 1765.42,668.554 1766.17,668.109 1766.92,657.762 1767.68,647.283 1768.43,606.552 1769.18,682.827 1769.93,757.409 1770.68,710.648 1771.43,535.795 1772.18,632.674 1772.93,646.019 1773.68,713.113 1774.43,611.705 1775.18,667.383 1775.93,535.636 1776.68,644.055 1777.43,670.469 1778.19,669.658 1778.94,606.502 1779.69,620.448 1780.44,408.721 1781.19,615.373 1781.94,582.312 1782.69,587.339 1783.44,606.345 1784.19,515.079 1784.94,605.244 1785.69,475.737 1786.44,587.219 1787.19,560.844 1787.94,541.659 1788.69,580.124 1789.45,570.19 1790.2,600.556 1790.95,435.916 1791.7,502.216 1792.45,568.439 1793.2,562.951 1793.95,692.511 1794.7,584.53 1795.45,591.793 1796.2,643.997 1796.95,646.946 1797.7,530.403 1798.45,499.194 1799.2,749.015 1799.96,626.487 1800.71,523.107 1801.46,597.783 1802.21,617.18 1802.96,610.304 1803.71,540.774 1804.46,655.639 1805.21,574.799 1805.96,644.92 1806.71,611.038 1807.46,763.788 1808.21,620.348 1808.96,692.607 1809.71,767.107 1810.46,641.45 1811.22,745.647 1811.97,735.453 1812.72,735.794 1813.47,789.17 1814.22,801.992 1814.97,709.203 1815.72,776.057 1816.47,855.213 1817.22,833.494 1817.97,1028.07 1818.72,828.552 1819.47,896.577 1820.22,827.585 1820.97,909.082 1821.73,758.946 1822.48,900.652 1823.23,990.344 1823.98,1002.12 1824.73,952.165 1825.48,968.104 1826.23,805.065 1826.98,846.177 1827.73,893.719 1828.48,1011.65 1829.23,852.232 1829.98,881.981 1830.73,873.556 1831.48,876.08 1832.23,901.864 1832.99,789.164 1833.74,789.348 1834.49,750.881 1835.24,778.219 1835.99,780.279 1836.74,756.376 1837.49,618.066 1838.24,944.603 1838.99,727.131 1839.74,766.364 1840.49,664.036 1841.24,671.923 1841.99,700.126 1842.74,715.535 1843.5,575.677 1844.25,645.06 1845,689.12 1845.75,599.866 1846.5,629.902 1847.25,806.637 1848,637.077 1848.75,657.249 1849.5,766.697 1850.25,677.95 1851,890.405 1851.75,747.513 1852.5,830.394 1853.25,836.713 1854,909.988 1854.76,880.215 1855.51,840.242 1856.26,956.612 1857.01,951.152 1857.76,1066.9 1858.51,1083.57 1859.26,981.302 1860.01,996.077 1860.76,1102.87 1861.51,1221.91 1862.26,1193.54 1863.01,1192.84 1863.76,1301.49 1864.51,1194.65 1865.27,1300.99 1866.02,1170.5 1866.77,1269.21 1867.52,1164.88 1868.27,1236.33 1869.02,1208.81 1869.77,1231.04 1870.52,1193.45 1871.27,1200.46 1872.02,1244.67 1872.77,1200.62 1873.52,1145.25 1874.27,1133.1 1875.02,1103.61 1875.77,1085.85 1876.53,1091.78 1877.28,1115.53 1878.03,1043.95 1878.78,929.487 1879.53,979.071 1880.28,1034.75 1881.03,944.119 1881.78,830.315 1882.53,806.115 1883.28,909.079 1884.03,778.857 1884.78,770.672 1885.53,683.132 1886.28,779.241 1887.04,707.12 1887.79,738.486 1888.54,766.677 1889.29,785.376 1890.04,887.246 1890.79,759.612 1891.54,736.559 1892.29,854.637 1893.04,750.92 1893.79,746.196 1894.54,818.032 1895.29,870.519 1896.04,917.667 1896.79,904.59 1897.54,848.327 1898.3,846.784 1899.05,932.572 1899.8,894.83 1900.55,938.711 1901.3,896.751 1902.05,959.719 1902.8,939.425 1903.55,955.732 1904.3,1052.66 1905.05,954.817 1905.8,1059.07 1906.55,1074.66 1907.3,995.515 1908.05,982.049 1908.81,1019.41 1909.56,1057.99 1910.31,1129.11 1911.06,1017.6 1911.81,994.744 1912.56,1062.09 1913.31,1098.69 1914.06,1012.31 1914.81,1009.81 1915.56,1017.21 1916.31,985.734 1917.06,1006.42 1917.81,1018.32 1918.56,844.632 1919.31,803.888 1920.07,805.618 1920.82,807.557 1921.57,808.613 1922.32,758.07 1923.07,800.404 1923.82,880.124 1924.57,796.558 1925.32,957.511 1926.07,918.355 1926.82,810.367 1927.57,766.149 1928.32,692.992 1929.07,691.214 1929.82,852.761 1930.58,734.107 1931.33,776.817 1932.08,612.219 1932.83,716.13 1933.58,790.258 1934.33,609.544 1935.08,840.038 1935.83,711.105 1936.58,749.285 1937.33,634.375 1938.08,764.391 1938.83,709.167 1939.58,710.521 1940.33,736.538 1941.08,840.373 1941.84,716.938 1942.59,717.999 1943.34,750.48 1944.09,813.328 1944.84,804.827 1945.59,697.793 1946.34,807.815 1947.09,807.878 1947.84,903.621 1948.59,975.51 1949.34,890.98 1950.09,872.61 1950.84,898.761 1951.59,903.257 1952.35,855.728 1953.1,1027.61 1953.85,1063.57 1954.6,969.277 1955.35,812.144 1956.1,902.465 1956.85,893.098 1957.6,929.973 1958.35,864.072 1959.1,961.192 1959.85,890.134 1960.6,829.547 1961.35,820.916 1962.1,962.67 1962.85,781.115 1963.61,855.102 1964.36,900.282 1965.11,856.892 1965.86,760.537 1966.61,861.704 1967.36,719.061 1968.11,784.972 1968.86,808.85 1969.61,673.43 1970.36,792.749 1971.11,773.189 1971.86,814.903 1972.61,634.35 1973.36,692.613 1974.12,705.299 1974.87,729.244 1975.62,624.586 1976.37,639.714 1977.12,607.473 1977.87,641.809 1978.62,773.859 1979.37,760.603 1980.12,804.987 1980.87,683.189 1981.62,780.224 1982.37,854.329 1983.12,924.917 1983.87,856.524 1984.62,753.508 1985.38,962.86 1986.13,1072.39 1986.88,1029.27 1987.63,1232.81 1988.38,987.225 1989.13,1051.35 1989.88,1008.83 1990.63,1053.98 1991.38,1081.81 1992.13,1221.24 1992.88,1234.43 1993.63,1311.23 1994.38,1194.21 1995.13,1251.07 1995.89,1259.5 1996.64,1290.8 1997.39,1323.12 1998.14,1297.56 1998.89,1160.06 1999.64,1169.93 2000.39,1334.06 2001.14,1341.55 2001.89,1282.43 2002.64,1203.82 2003.39,1237.19 2004.14,1179.78 2004.89,1247.62 2005.64,1053.53 2006.39,1104.69 2007.15,1133.55 2007.9,985.559 2008.65,1095.81 2009.4,1005.61 2010.15,1064.02 2010.9,1006.51 2011.65,951.46 2012.4,820.222 2013.15,780.012 2013.9,929.704 2014.65,720.051 2015.4,773.308 2016.15,843.86 2016.9,723.839 2017.66,709.506 2018.41,612.816 2019.16,512.592 2019.91,524.255 2020.66,578.981 2021.41,492.382 2022.16,390.071 2022.91,429.832 2023.66,418.235 2024.41,448.393 2025.16,423.227 2025.91,405.936 2026.66,361.853 2027.41,363.439 2028.16,271.695 2028.92,354.946 2029.67,418.152 2030.42,345.5 2031.17,286.845 2031.92,319.045 2032.67,321.035 2033.42,298.358 2034.17,351.466 2034.92,384.622 2035.67,468.235 2036.42,494.08 2037.17,390.367 2037.92,490.135 2038.67,528.59 2039.43,535.463 2040.18,528.177 2040.93,548.95 2041.68,628.69 2042.43,619.516 2043.18,697.709 2043.93,573.126 2044.68,818.545 2045.43,767.716 2046.18,595.956 2046.93,772.331 2047.68,736.417 2048.43,723.812 2049.18,745.056 2049.93,690.111 2050.69,716.584 2051.44,637.108 2052.19,618.909 2052.94,730.92 2053.69,770.092 2054.44,701.947 2055.19,638.879 2055.94,764.134 2056.69,598.556 2057.44,643.113 2058.19,617.706 2058.94,566.15 2059.69,657.207 2060.44,641.549 2061.2,632.618 2061.95,626.002 2062.7,729.078 2063.45,568.307 2064.2,618.411 2064.95,623.672 2065.7,574.603 2066.45,719.241 2067.2,692.432 2067.95,666.319 2068.7,647.882 2069.45,614.916 2070.2,738.16 2070.95,698.934 2071.7,602.816 2072.46,739.708 2073.21,655.353 2073.96,738.951 2074.71,678.434 2075.46,767.295 2076.21,732.03 2076.96,791.747 2077.71,808.687 2078.46,879.342 2079.21,694.55 2079.96,813.744 2080.71,780.566 2081.46,902.263 2082.21,843.758 2082.97,731.952 2083.72,677.726 2084.47,925.147 2085.22,960.704 2085.97,847.124 2086.72,864.625 2087.47,912.103 2088.22,857.041 2088.97,845.072 2089.72,939.866 2090.47,787.129 2091.22,917.05 2091.97,721.505 2092.72,836.041 2093.48,718.418 2094.23,748.795 2094.98,827.945 2095.73,747.567 2096.48,741.458 2097.23,829.174 2097.98,649.076 2098.73,791.611 2099.48,733.355 2100.23,705.497 2100.98,649.616 2101.73,736.604 2102.48,696.342 2103.23,751.875 2103.98,678.125 2104.74,562.334 2105.49,675.879 2106.24,650.335 2106.99,675.308 2107.74,593.648 2108.49,642.459 2109.24,595.432 2109.99,650.829 2110.74,705.106 2111.49,586.782 2112.24,711.258 2112.99,683.841 2113.74,652.032 2114.49,579.432 2115.25,742.69 2116,678.77 2116.75,779.695 2117.5,785.38 2118.25,741.285 2119,660.175 2119.75,725.273 2120.5,729.561 2121.25,710.671 2122,847.884 2122.75,773.214 2123.5,881.616 2124.25,852.646 2125,821.965 2125.75,748.966 2126.51,792.624 2127.26,847.901 2128.01,763.093 2128.76,780.434 2129.51,875.345 2130.26,834.146 2131.01,823.436 2131.76,848.045 2132.51,823.048 2133.26,803.064 2134.01,759.674 2134.76,733.029 2135.51,861.571 2136.26,629.558 2137.02,690.385 2137.77,812.472 2138.52,717.267 2139.27,715.869 2140.02,800.595 2140.77,663.08 2141.52,789.223 2142.27,629.895 2143.02,765.894 2143.77,718.885 2144.52,981.727 2145.27,632.429 2146.02,748.812 2146.77,727.987 2147.52,576.194 2148.28,677.387 2149.03,701.669 2149.78,675.746 2150.53,641.336 2151.28,664.805 2152.03,679.478 2152.78,610.012 2153.53,536.938 2154.28,621.395 2155.03,713.794 2155.78,582.868 2156.53,590.409 2157.28,570.616 2158.03,641.706 2158.79,618.467 2159.54,703.37 2160.29,681.629 2161.04,693.459 2161.79,651.231 2162.54,728.608 2163.29,599.277 2164.04,594.476 2164.79,633.638 2165.54,689.602 2166.29,675.977 2167.04,655.25 2167.79,688.815 2168.54,632.066 2169.29,661.36 2170.05,571.129 2170.8,696.657 2171.55,606.274 2172.3,726.598 2173.05,642.307 2173.8,715.751 2174.55,692.35 2175.3,638.75 2176.05,616.857 2176.8,691.152 2177.55,579.511 2178.3,517.733 2179.05,721.987 2179.8,792.763 2180.56,651.818 2181.31,644.44 2182.06,663.644 2182.81,510.096 2183.56,630.48 2184.31,623.362 2185.06,640.017 2185.81,570.25 2186.56,673.19 2187.31,516.619 2188.06,657.76 2188.81,580.791 2189.56,627.088 2190.31,666.312 2191.06,574.493 2191.82,654.418 2192.57,593.257 2193.32,514.44 2194.07,535.822 2194.82,546.985 2195.57,561.672 2196.32,566.349 2197.07,594.788 2197.82,554.239 2198.57,647.792 2199.32,568.969 2200.07,557.945 2200.82,639.036 2201.57,765.683 2202.33,675.307 2203.08,720.247 2203.83,801.019 2204.58,767.299 2205.33,859.672 2206.08,844.193 2206.83,820.983 2207.58,833.93 2208.33,878.86 2209.08,850.901 2209.83,816.851 2210.58,953.885 2211.33,929.084 2212.08,940.935 2212.83,1082.74 2213.59,885.687 2214.34,987.919 2215.09,964.09 2215.84,1116.93 2216.59,1165.51 2217.34,1056.27 2218.09,1089.18 2218.84,1066.38 2219.59,1162.06 2220.34,1039.2 2221.09,1022.33 2221.84,1173.57 2222.59,1173.58 2223.34,1007.32 2224.1,1094.85 2224.85,1008.48 2225.6,1063.7 2226.35,1072.33 2227.1,1080.93 2227.85,825.737 2228.6,982.002 2229.35,943.307 2230.1,975.197 2230.85,780.154 2231.6,857.455 2232.35,848.498 2233.1,835.302 2233.85,774.316 2234.6,838.67 2235.36,930.685 2236.11,706.11 2236.86,792.323 2237.61,811.132 2238.36,647.694 2239.11,784.764 2239.86,759.567 2240.61,624.465 2241.36,707.356 2242.11,758.714 2242.86,656.144 2243.61,750.869 2244.36,746.062 2245.11,714.415 2245.87,789.079 2246.62,705.05 2247.37,609.109 2248.12,658.546 2248.87,670.051 2249.62,804.702 2250.37,657.361 2251.12,821.969 2251.87,886.574 2252.62,691.755 2253.37,875.704 2254.12,910.884 2254.87,844.174 2255.62,832.578 2256.37,846.275 2257.13,746.689 2257.88,840.712 2258.63,769.499 2259.38,897.385 2260.13,723.031 2260.88,882.509 2261.63,722.372 2262.38,821.139 2263.13,755.263 2263.88,835.274 2264.63,893.592 2265.38,827.482 2266.13,881.526 2266.88,802.796 2267.64,839.453 2268.39,690.311 2269.14,729.725 2269.89,835.489 2270.64,746.387 2271.39,764.724 2272.14,807.662 2272.89,705.279 2273.64,721.126 2274.39,804.026 2275.14,694.701 2275.89,792.628 2276.64,805.076 2277.39,721.144 2278.14,804.836 2278.9,601.814 2279.65,618.244 2280.4,610.034 2281.15,683.751 2281.9,599.156 2282.65,695.595 2283.4,720.89 2284.15,592.18 2284.9,624.36 2285.65,707.167 2286.4,689.607 2287.15,699.057 2287.9,624.657 2288.65,618.542 2289.41,579.792 2290.16,588.42 2290.91,530.478 2291.66,563.212 "/>
<path clip-path="url(#clip500)" d="M265.897 1441.02 L728.652 1441.02 L728.652 1337.34 L265.897 1337.34  Z" fill="#ffffff" fill-rule="evenodd" fill-opacity="1"/>
<polyline clip-path="url(#clip500)" style="stroke:#000000; stroke-linecap:round; stroke-linejoin:round; stroke-width:4; stroke-opacity:1; fill:none" points="265.897,1441.02 728.652,1441.02 728.652,1337.34 265.897,1337.34 265.897,1441.02 "/>
<polyline clip-path="url(#clip500)" style="stroke:#009af9; stroke-linecap:round; stroke-linejoin:round; stroke-width:4; stroke-opacity:1; fill:none" points="289.884,1389.18 433.805,1389.18 "/>
<path clip-path="url(#clip500)" d="M465.199 1373.17 L465.199 1380.53 L473.972 1380.53 L473.972 1383.84 L465.199 1383.84 L465.199 1397.91 Q465.199 1401.09 466.056 1401.99 Q466.935 1402.89 469.597 1402.89 L473.972 1402.89 L473.972 1406.46 L469.597 1406.46 Q464.667 1406.46 462.792 1404.63 Q460.917 1402.77 460.917 1397.91 L460.917 1383.84 L457.792 1383.84 L457.792 1380.53 L460.917 1380.53 L460.917 1373.17 L465.199 1373.17 Z" fill="#000000" fill-rule="nonzero" fill-opacity="1" /><path clip-path="url(#clip500)" d="M494.597 1384.51 Q493.88 1384.09 493.023 1383.91 Q492.19 1383.7 491.171 1383.7 Q487.56 1383.7 485.616 1386.06 Q483.694 1388.4 483.694 1392.8 L483.694 1406.46 L479.412 1406.46 L479.412 1380.53 L483.694 1380.53 L483.694 1384.56 Q485.037 1382.2 487.19 1381.06 Q489.343 1379.9 492.421 1379.9 Q492.861 1379.9 493.393 1379.97 Q493.926 1380.02 494.574 1380.14 L494.597 1384.51 Z" fill="#000000" fill-rule="nonzero" fill-opacity="1" /><path clip-path="url(#clip500)" d="M498.625 1396.22 L498.625 1380.53 L502.884 1380.53 L502.884 1396.06 Q502.884 1399.74 504.319 1401.59 Q505.754 1403.42 508.625 1403.42 Q512.074 1403.42 514.065 1401.22 Q516.078 1399.02 516.078 1395.23 L516.078 1380.53 L520.338 1380.53 L520.338 1406.46 L516.078 1406.46 L516.078 1402.47 Q514.528 1404.83 512.467 1405.99 Q510.43 1407.13 507.722 1407.13 Q503.254 1407.13 500.94 1404.35 Q498.625 1401.57 498.625 1396.22 M509.342 1379.9 L509.342 1379.9 Z" fill="#000000" fill-rule="nonzero" fill-opacity="1" /><path clip-path="url(#clip500)" d="M551.287 1392.43 L551.287 1394.51 L531.703 1394.51 Q531.981 1398.91 534.342 1401.22 Q536.727 1403.52 540.963 1403.52 Q543.416 1403.52 545.708 1402.91 Q548.023 1402.31 550.291 1401.11 L550.291 1405.14 Q548 1406.11 545.592 1406.62 Q543.185 1407.13 540.708 1407.13 Q534.504 1407.13 530.87 1403.52 Q527.259 1399.9 527.259 1393.75 Q527.259 1387.38 530.685 1383.65 Q534.134 1379.9 539.967 1379.9 Q545.199 1379.9 548.231 1383.28 Q551.287 1386.64 551.287 1392.43 M547.027 1391.18 Q546.981 1387.68 545.06 1385.6 Q543.162 1383.52 540.014 1383.52 Q536.449 1383.52 534.296 1385.53 Q532.166 1387.54 531.842 1391.2 L547.027 1391.18 Z" fill="#000000" fill-rule="nonzero" fill-opacity="1" /><path clip-path="url(#clip500)" d="M589.874 1381.29 L589.874 1385.32 Q588.069 1384.4 586.124 1383.93 Q584.18 1383.47 582.097 1383.47 Q578.925 1383.47 577.328 1384.44 Q575.754 1385.41 575.754 1387.36 Q575.754 1388.84 576.888 1389.7 Q578.023 1390.53 581.449 1391.29 L582.907 1391.62 Q587.444 1392.59 589.342 1394.37 Q591.263 1396.13 591.263 1399.3 Q591.263 1402.91 588.393 1405.02 Q585.546 1407.13 580.546 1407.13 Q578.462 1407.13 576.194 1406.71 Q573.949 1406.32 571.449 1405.51 L571.449 1401.11 Q573.81 1402.34 576.101 1402.96 Q578.393 1403.56 580.638 1403.56 Q583.648 1403.56 585.268 1402.54 Q586.888 1401.5 586.888 1399.63 Q586.888 1397.89 585.708 1396.96 Q584.55 1396.04 580.592 1395.18 L579.111 1394.84 Q575.152 1394 573.393 1392.29 Q571.634 1390.55 571.634 1387.54 Q571.634 1383.89 574.226 1381.9 Q576.819 1379.9 581.587 1379.9 Q583.948 1379.9 586.032 1380.25 Q588.115 1380.6 589.874 1381.29 Z" fill="#000000" fill-rule="nonzero" fill-opacity="1" /><path clip-path="url(#clip500)" d="M598.046 1380.53 L602.305 1380.53 L602.305 1406.46 L598.046 1406.46 L598.046 1380.53 M598.046 1370.44 L602.305 1370.44 L602.305 1375.83 L598.046 1375.83 L598.046 1370.44 Z" fill="#000000" fill-rule="nonzero" fill-opacity="1" /><path clip-path="url(#clip500)" d="M628.277 1393.19 Q628.277 1388.56 626.356 1386.02 Q624.458 1383.47 621.008 1383.47 Q617.583 1383.47 615.661 1386.02 Q613.763 1388.56 613.763 1393.19 Q613.763 1397.8 615.661 1400.34 Q617.583 1402.89 621.008 1402.89 Q624.458 1402.89 626.356 1400.34 Q628.277 1397.8 628.277 1393.19 M632.536 1403.24 Q632.536 1409.86 629.596 1413.08 Q626.657 1416.32 620.592 1416.32 Q618.346 1416.32 616.356 1415.97 Q614.365 1415.65 612.49 1414.95 L612.49 1410.81 Q614.365 1411.83 616.194 1412.31 Q618.022 1412.8 619.921 1412.8 Q624.11 1412.8 626.194 1410.6 Q628.277 1408.42 628.277 1404 L628.277 1401.9 Q626.958 1404.19 624.897 1405.32 Q622.837 1406.46 619.967 1406.46 Q615.198 1406.46 612.282 1402.82 Q609.365 1399.19 609.365 1393.19 Q609.365 1387.17 612.282 1383.54 Q615.198 1379.9 619.967 1379.9 Q622.837 1379.9 624.897 1381.04 Q626.958 1382.17 628.277 1384.46 L628.277 1380.53 L632.536 1380.53 L632.536 1403.24 Z" fill="#000000" fill-rule="nonzero" fill-opacity="1" /><path clip-path="url(#clip500)" d="M662.86 1390.81 L662.86 1406.46 L658.601 1406.46 L658.601 1390.95 Q658.601 1387.27 657.166 1385.44 Q655.731 1383.61 652.86 1383.61 Q649.411 1383.61 647.42 1385.81 Q645.43 1388.01 645.43 1391.8 L645.43 1406.46 L641.147 1406.46 L641.147 1380.53 L645.43 1380.53 L645.43 1384.56 Q646.957 1382.22 649.018 1381.06 Q651.101 1379.9 653.809 1379.9 Q658.277 1379.9 660.568 1382.68 Q662.86 1385.44 662.86 1390.81 Z" fill="#000000" fill-rule="nonzero" fill-opacity="1" /><path clip-path="url(#clip500)" d="M683.138 1393.42 Q677.976 1393.42 675.985 1394.6 Q673.994 1395.78 673.994 1398.63 Q673.994 1400.9 675.476 1402.24 Q676.98 1403.56 679.55 1403.56 Q683.091 1403.56 685.221 1401.06 Q687.374 1398.54 687.374 1394.37 L687.374 1393.42 L683.138 1393.42 M691.633 1391.66 L691.633 1406.46 L687.374 1406.46 L687.374 1402.52 Q685.916 1404.88 683.74 1406.02 Q681.564 1407.13 678.416 1407.13 Q674.434 1407.13 672.073 1404.9 Q669.735 1402.66 669.735 1398.91 Q669.735 1394.53 672.652 1392.31 Q675.592 1390.09 681.402 1390.09 L687.374 1390.09 L687.374 1389.67 Q687.374 1386.73 685.429 1385.14 Q683.508 1383.52 680.013 1383.52 Q677.791 1383.52 675.684 1384.05 Q673.578 1384.58 671.633 1385.65 L671.633 1381.71 Q673.971 1380.81 676.17 1380.37 Q678.369 1379.9 680.453 1379.9 Q686.078 1379.9 688.855 1382.82 Q691.633 1385.74 691.633 1391.66 Z" fill="#000000" fill-rule="nonzero" fill-opacity="1" /><path clip-path="url(#clip500)" d="M700.406 1370.44 L704.665 1370.44 L704.665 1406.46 L700.406 1406.46 L700.406 1370.44 Z" fill="#000000" fill-rule="nonzero" fill-opacity="1" /></svg>
