<?xml version="1.0" encoding="utf-8"?>
<svg xmlns="http://www.w3.org/2000/svg" xmlns:xlink="http://www.w3.org/1999/xlink" width="600" height="400" viewBox="0 0 2400 1600">
<defs>
  <clipPath id="clip150">
    <rect x="0" y="0" width="2400" height="1600"/>
  </clipPath>
</defs>
<path clip-path="url(#clip150)" d="M0 1600 L2400 1600 L2400 0 L0 0  Z" fill="#ffffff" fill-rule="evenodd" fill-opacity="1"/>
<defs>
  <clipPath id="clip151">
    <rect x="480" y="0" width="1681" height="1600"/>
  </clipPath>
</defs>
<path clip-path="url(#clip150)" d="M193.936 1486.45 L2352.76 1486.45 L2352.76 123.472 L193.936 123.472  Z" fill="#ffffff" fill-rule="evenodd" fill-opacity="1"/>
<defs>
  <clipPath id="clip152">
    <rect x="193" y="123" width="2160" height="1364"/>
  </clipPath>
</defs>
<polyline clip-path="url(#clip152)" style="stroke:#000000; stroke-linecap:round; stroke-linejoin:round; stroke-width:2; stroke-opacity:0.1; fill:none" points="254.284,1486.45 254.284,123.472 "/>
<polyline clip-path="url(#clip152)" style="stroke:#000000; stroke-linecap:round; stroke-linejoin:round; stroke-width:2; stroke-opacity:0.1; fill:none" points="629.629,1486.45 629.629,123.472 "/>
<polyline clip-path="url(#clip152)" style="stroke:#000000; stroke-linecap:round; stroke-linejoin:round; stroke-width:2; stroke-opacity:0.1; fill:none" points="1004.97,1486.45 1004.97,123.472 "/>
<polyline clip-path="url(#clip152)" style="stroke:#000000; stroke-linecap:round; stroke-linejoin:round; stroke-width:2; stroke-opacity:0.1; fill:none" points="1380.32,1486.45 1380.32,123.472 "/>
<polyline clip-path="url(#clip152)" style="stroke:#000000; stroke-linecap:round; stroke-linejoin:round; stroke-width:2; stroke-opacity:0.1; fill:none" points="1755.66,1486.45 1755.66,123.472 "/>
<polyline clip-path="url(#clip152)" style="stroke:#000000; stroke-linecap:round; stroke-linejoin:round; stroke-width:2; stroke-opacity:0.1; fill:none" points="2131.01,1486.45 2131.01,123.472 "/>
<polyline clip-path="url(#clip152)" style="stroke:#000000; stroke-linecap:round; stroke-linejoin:round; stroke-width:2; stroke-opacity:0.1; fill:none" points="193.936,1479.68 2352.76,1479.68 "/>
<polyline clip-path="url(#clip152)" style="stroke:#000000; stroke-linecap:round; stroke-linejoin:round; stroke-width:2; stroke-opacity:0.1; fill:none" points="193.936,1187.14 2352.76,1187.14 "/>
<polyline clip-path="url(#clip152)" style="stroke:#000000; stroke-linecap:round; stroke-linejoin:round; stroke-width:2; stroke-opacity:0.1; fill:none" points="193.936,894.599 2352.76,894.599 "/>
<polyline clip-path="url(#clip152)" style="stroke:#000000; stroke-linecap:round; stroke-linejoin:round; stroke-width:2; stroke-opacity:0.1; fill:none" points="193.936,602.061 2352.76,602.061 "/>
<polyline clip-path="url(#clip152)" style="stroke:#000000; stroke-linecap:round; stroke-linejoin:round; stroke-width:2; stroke-opacity:0.1; fill:none" points="193.936,309.522 2352.76,309.522 "/>
<polyline clip-path="url(#clip150)" style="stroke:#000000; stroke-linecap:round; stroke-linejoin:round; stroke-width:4; stroke-opacity:1; fill:none" points="193.936,1486.45 2352.76,1486.45 "/>
<polyline clip-path="url(#clip150)" style="stroke:#000000; stroke-linecap:round; stroke-linejoin:round; stroke-width:4; stroke-opacity:1; fill:none" points="254.284,1486.45 254.284,1467.55 "/>
<polyline clip-path="url(#clip150)" style="stroke:#000000; stroke-linecap:round; stroke-linejoin:round; stroke-width:4; stroke-opacity:1; fill:none" points="629.629,1486.45 629.629,1467.55 "/>
<polyline clip-path="url(#clip150)" style="stroke:#000000; stroke-linecap:round; stroke-linejoin:round; stroke-width:4; stroke-opacity:1; fill:none" points="1004.97,1486.45 1004.97,1467.55 "/>
<polyline clip-path="url(#clip150)" style="stroke:#000000; stroke-linecap:round; stroke-linejoin:round; stroke-width:4; stroke-opacity:1; fill:none" points="1380.32,1486.45 1380.32,1467.55 "/>
<polyline clip-path="url(#clip150)" style="stroke:#000000; stroke-linecap:round; stroke-linejoin:round; stroke-width:4; stroke-opacity:1; fill:none" points="1755.66,1486.45 1755.66,1467.55 "/>
<polyline clip-path="url(#clip150)" style="stroke:#000000; stroke-linecap:round; stroke-linejoin:round; stroke-width:4; stroke-opacity:1; fill:none" points="2131.01,1486.45 2131.01,1467.55 "/>
<path clip-path="url(#clip150)" d="M254.284 1517.37 Q250.673 1517.37 248.844 1520.93 Q247.039 1524.47 247.039 1531.6 Q247.039 1538.71 248.844 1542.27 Q250.673 1545.82 254.284 1545.82 Q257.918 1545.82 259.724 1542.27 Q261.552 1538.71 261.552 1531.6 Q261.552 1524.47 259.724 1520.93 Q257.918 1517.37 254.284 1517.37 M254.284 1513.66 Q260.094 1513.66 263.15 1518.27 Q266.228 1522.85 266.228 1531.6 Q266.228 1540.33 263.15 1544.94 Q260.094 1549.52 254.284 1549.52 Q248.474 1549.52 245.395 1544.94 Q242.34 1540.33 242.34 1531.6 Q242.34 1522.85 245.395 1518.27 Q248.474 1513.66 254.284 1513.66 Z" fill="#000000" fill-rule="nonzero" fill-opacity="1" /><path clip-path="url(#clip150)" d="M589.247 1514.29 L607.604 1514.29 L607.604 1518.22 L593.53 1518.22 L593.53 1526.7 Q594.548 1526.35 595.567 1526.19 Q596.585 1526 597.604 1526 Q603.391 1526 606.77 1529.17 Q610.15 1532.34 610.15 1537.76 Q610.15 1543.34 606.678 1546.44 Q603.206 1549.52 596.886 1549.52 Q594.71 1549.52 592.442 1549.15 Q590.196 1548.78 587.789 1548.04 L587.789 1543.34 Q589.872 1544.47 592.095 1545.03 Q594.317 1545.58 596.794 1545.58 Q600.798 1545.58 603.136 1543.48 Q605.474 1541.37 605.474 1537.76 Q605.474 1534.15 603.136 1532.04 Q600.798 1529.94 596.794 1529.94 Q594.919 1529.94 593.044 1530.35 Q591.192 1530.77 589.247 1531.65 L589.247 1514.29 Z" fill="#000000" fill-rule="nonzero" fill-opacity="1" /><path clip-path="url(#clip150)" d="M629.363 1517.37 Q625.752 1517.37 623.923 1520.93 Q622.118 1524.47 622.118 1531.6 Q622.118 1538.71 623.923 1542.27 Q625.752 1545.82 629.363 1545.82 Q632.997 1545.82 634.803 1542.27 Q636.631 1538.71 636.631 1531.6 Q636.631 1524.47 634.803 1520.93 Q632.997 1517.37 629.363 1517.37 M629.363 1513.66 Q635.173 1513.66 638.229 1518.27 Q641.307 1522.85 641.307 1531.6 Q641.307 1540.33 638.229 1544.94 Q635.173 1549.52 629.363 1549.52 Q623.553 1549.52 620.474 1544.94 Q617.419 1540.33 617.419 1531.6 Q617.419 1522.85 620.474 1518.27 Q623.553 1513.66 629.363 1513.66 Z" fill="#000000" fill-rule="nonzero" fill-opacity="1" /><path clip-path="url(#clip150)" d="M659.525 1517.37 Q655.914 1517.37 654.085 1520.93 Q652.279 1524.47 652.279 1531.6 Q652.279 1538.71 654.085 1542.27 Q655.914 1545.82 659.525 1545.82 Q663.159 1545.82 664.965 1542.27 Q666.793 1538.71 666.793 1531.6 Q666.793 1524.47 664.965 1520.93 Q663.159 1517.37 659.525 1517.37 M659.525 1513.66 Q665.335 1513.66 668.39 1518.27 Q671.469 1522.85 671.469 1531.6 Q671.469 1540.33 668.39 1544.94 Q665.335 1549.52 659.525 1549.52 Q653.715 1549.52 650.636 1544.94 Q647.58 1540.33 647.58 1531.6 Q647.58 1522.85 650.636 1518.27 Q653.715 1513.66 659.525 1513.66 Z" fill="#000000" fill-rule="nonzero" fill-opacity="1" /><path clip-path="url(#clip150)" d="M949.5 1544.91 L957.139 1544.91 L957.139 1518.55 L948.829 1520.21 L948.829 1515.95 L957.093 1514.29 L961.768 1514.29 L961.768 1544.91 L969.407 1544.91 L969.407 1548.85 L949.5 1548.85 L949.5 1544.91 Z" fill="#000000" fill-rule="nonzero" fill-opacity="1" /><path clip-path="url(#clip150)" d="M988.852 1517.37 Q985.241 1517.37 983.412 1520.93 Q981.606 1524.47 981.606 1531.6 Q981.606 1538.71 983.412 1542.27 Q985.241 1545.82 988.852 1545.82 Q992.486 1545.82 994.291 1542.27 Q996.12 1538.71 996.12 1531.6 Q996.12 1524.47 994.291 1520.93 Q992.486 1517.37 988.852 1517.37 M988.852 1513.66 Q994.662 1513.66 997.717 1518.27 Q1000.8 1522.85 1000.8 1531.6 Q1000.8 1540.33 997.717 1544.94 Q994.662 1549.52 988.852 1549.52 Q983.041 1549.52 979.963 1544.94 Q976.907 1540.33 976.907 1531.6 Q976.907 1522.85 979.963 1518.27 Q983.041 1513.66 988.852 1513.66 Z" fill="#000000" fill-rule="nonzero" fill-opacity="1" /><path clip-path="url(#clip150)" d="M1019.01 1517.37 Q1015.4 1517.37 1013.57 1520.93 Q1011.77 1524.47 1011.77 1531.6 Q1011.77 1538.71 1013.57 1542.27 Q1015.4 1545.82 1019.01 1545.82 Q1022.65 1545.82 1024.45 1542.27 Q1026.28 1538.71 1026.28 1531.6 Q1026.28 1524.47 1024.45 1520.93 Q1022.65 1517.37 1019.01 1517.37 M1019.01 1513.66 Q1024.82 1513.66 1027.88 1518.27 Q1030.96 1522.85 1030.96 1531.6 Q1030.96 1540.33 1027.88 1544.94 Q1024.82 1549.52 1019.01 1549.52 Q1013.2 1549.52 1010.12 1544.94 Q1007.07 1540.33 1007.07 1531.6 Q1007.07 1522.85 1010.12 1518.27 Q1013.2 1513.66 1019.01 1513.66 Z" fill="#000000" fill-rule="nonzero" fill-opacity="1" /><path clip-path="url(#clip150)" d="M1049.18 1517.37 Q1045.56 1517.37 1043.74 1520.93 Q1041.93 1524.47 1041.93 1531.6 Q1041.93 1538.71 1043.74 1542.27 Q1045.56 1545.82 1049.18 1545.82 Q1052.81 1545.82 1054.62 1542.27 Q1056.44 1538.71 1056.44 1531.6 Q1056.44 1524.47 1054.62 1520.93 Q1052.81 1517.37 1049.18 1517.37 M1049.18 1513.66 Q1054.99 1513.66 1058.04 1518.27 Q1061.12 1522.85 1061.12 1531.6 Q1061.12 1540.33 1058.04 1544.94 Q1054.99 1549.52 1049.18 1549.52 Q1043.37 1549.52 1040.29 1544.94 Q1037.23 1540.33 1037.23 1531.6 Q1037.23 1522.85 1040.29 1518.27 Q1043.37 1513.66 1049.18 1513.66 Z" fill="#000000" fill-rule="nonzero" fill-opacity="1" /><path clip-path="url(#clip150)" d="M1324.85 1544.91 L1332.48 1544.91 L1332.48 1518.55 L1324.17 1520.21 L1324.17 1515.95 L1332.44 1514.29 L1337.11 1514.29 L1337.11 1544.91 L1344.75 1544.91 L1344.75 1548.85 L1324.85 1548.85 L1324.85 1544.91 Z" fill="#000000" fill-rule="nonzero" fill-opacity="1" /><path clip-path="url(#clip150)" d="M1354.24 1514.29 L1372.6 1514.29 L1372.6 1518.22 L1358.53 1518.22 L1358.53 1526.7 Q1359.54 1526.35 1360.56 1526.19 Q1361.58 1526 1362.6 1526 Q1368.39 1526 1371.77 1529.17 Q1375.15 1532.34 1375.15 1537.76 Q1375.15 1543.34 1371.67 1546.44 Q1368.2 1549.52 1361.88 1549.52 Q1359.71 1549.52 1357.44 1549.15 Q1355.19 1548.78 1352.78 1548.04 L1352.78 1543.34 Q1354.87 1544.47 1357.09 1545.03 Q1359.31 1545.58 1361.79 1545.58 Q1365.79 1545.58 1368.13 1543.48 Q1370.47 1541.37 1370.47 1537.76 Q1370.47 1534.15 1368.13 1532.04 Q1365.79 1529.94 1361.79 1529.94 Q1359.91 1529.94 1358.04 1530.35 Q1356.19 1530.77 1354.24 1531.65 L1354.24 1514.29 Z" fill="#000000" fill-rule="nonzero" fill-opacity="1" /><path clip-path="url(#clip150)" d="M1394.36 1517.37 Q1390.75 1517.37 1388.92 1520.93 Q1387.11 1524.47 1387.11 1531.6 Q1387.11 1538.71 1388.92 1542.27 Q1390.75 1545.82 1394.36 1545.82 Q1397.99 1545.82 1399.8 1542.27 Q1401.63 1538.71 1401.63 1531.6 Q1401.63 1524.47 1399.8 1520.93 Q1397.99 1517.37 1394.36 1517.37 M1394.36 1513.66 Q1400.17 1513.66 1403.22 1518.27 Q1406.3 1522.85 1406.3 1531.6 Q1406.3 1540.33 1403.22 1544.94 Q1400.17 1549.52 1394.36 1549.52 Q1388.55 1549.52 1385.47 1544.94 Q1382.41 1540.33 1382.41 1531.6 Q1382.41 1522.85 1385.47 1518.27 Q1388.55 1513.66 1394.36 1513.66 Z" fill="#000000" fill-rule="nonzero" fill-opacity="1" /><path clip-path="url(#clip150)" d="M1424.52 1517.37 Q1420.91 1517.37 1419.08 1520.93 Q1417.28 1524.47 1417.28 1531.6 Q1417.28 1538.71 1419.08 1542.27 Q1420.91 1545.82 1424.52 1545.82 Q1428.15 1545.82 1429.96 1542.27 Q1431.79 1538.71 1431.79 1531.6 Q1431.79 1524.47 1429.96 1520.93 Q1428.15 1517.37 1424.52 1517.37 M1424.52 1513.66 Q1430.33 1513.66 1433.39 1518.27 Q1436.46 1522.85 1436.46 1531.6 Q1436.46 1540.33 1433.39 1544.94 Q1430.33 1549.52 1424.52 1549.52 Q1418.71 1549.52 1415.63 1544.94 Q1412.58 1540.33 1412.58 1531.6 Q1412.58 1522.85 1415.63 1518.27 Q1418.71 1513.66 1424.52 1513.66 Z" fill="#000000" fill-rule="nonzero" fill-opacity="1" /><path clip-path="url(#clip150)" d="M1704.28 1544.91 L1720.6 1544.91 L1720.6 1548.85 L1698.65 1548.85 L1698.65 1544.91 Q1701.31 1542.16 1705.9 1537.53 Q1710.5 1532.88 1711.68 1531.53 Q1713.93 1529.01 1714.81 1527.27 Q1715.71 1525.51 1715.71 1523.82 Q1715.71 1521.07 1713.77 1519.33 Q1711.85 1517.6 1708.74 1517.6 Q1706.54 1517.6 1704.09 1518.36 Q1701.66 1519.13 1698.88 1520.68 L1698.88 1515.95 Q1701.71 1514.82 1704.16 1514.24 Q1706.61 1513.66 1708.65 1513.66 Q1714.02 1513.66 1717.22 1516.35 Q1720.41 1519.03 1720.41 1523.52 Q1720.41 1525.65 1719.6 1527.57 Q1718.81 1529.47 1716.71 1532.07 Q1716.13 1532.74 1713.03 1535.95 Q1709.92 1539.15 1704.28 1544.91 Z" fill="#000000" fill-rule="nonzero" fill-opacity="1" /><path clip-path="url(#clip150)" d="M1740.41 1517.37 Q1736.8 1517.37 1734.97 1520.93 Q1733.16 1524.47 1733.16 1531.6 Q1733.16 1538.71 1734.97 1542.27 Q1736.8 1545.82 1740.41 1545.82 Q1744.04 1545.82 1745.85 1542.27 Q1747.68 1538.71 1747.68 1531.6 Q1747.68 1524.47 1745.85 1520.93 Q1744.04 1517.37 1740.41 1517.37 M1740.41 1513.66 Q1746.22 1513.66 1749.28 1518.27 Q1752.35 1522.85 1752.35 1531.6 Q1752.35 1540.33 1749.28 1544.94 Q1746.22 1549.52 1740.41 1549.52 Q1734.6 1549.52 1731.52 1544.94 Q1728.47 1540.33 1728.47 1531.6 Q1728.47 1522.85 1731.52 1518.27 Q1734.6 1513.66 1740.41 1513.66 Z" fill="#000000" fill-rule="nonzero" fill-opacity="1" /><path clip-path="url(#clip150)" d="M1770.57 1517.37 Q1766.96 1517.37 1765.13 1520.93 Q1763.33 1524.47 1763.33 1531.6 Q1763.33 1538.71 1765.13 1542.27 Q1766.96 1545.82 1770.57 1545.82 Q1774.21 1545.82 1776.01 1542.27 Q1777.84 1538.71 1777.84 1531.6 Q1777.84 1524.47 1776.01 1520.93 Q1774.21 1517.37 1770.57 1517.37 M1770.57 1513.66 Q1776.38 1513.66 1779.44 1518.27 Q1782.52 1522.85 1782.52 1531.6 Q1782.52 1540.33 1779.44 1544.94 Q1776.38 1549.52 1770.57 1549.52 Q1764.76 1549.52 1761.68 1544.94 Q1758.63 1540.33 1758.63 1531.6 Q1758.63 1522.85 1761.68 1518.27 Q1764.76 1513.66 1770.57 1513.66 Z" fill="#000000" fill-rule="nonzero" fill-opacity="1" /><path clip-path="url(#clip150)" d="M1800.73 1517.37 Q1797.12 1517.37 1795.29 1520.93 Q1793.49 1524.47 1793.49 1531.6 Q1793.49 1538.71 1795.29 1542.27 Q1797.12 1545.82 1800.73 1545.82 Q1804.37 1545.82 1806.17 1542.27 Q1808 1538.71 1808 1531.6 Q1808 1524.47 1806.17 1520.93 Q1804.37 1517.37 1800.73 1517.37 M1800.73 1513.66 Q1806.54 1513.66 1809.6 1518.27 Q1812.68 1522.85 1812.68 1531.6 Q1812.68 1540.33 1809.6 1544.94 Q1806.54 1549.52 1800.73 1549.52 Q1794.92 1549.52 1791.84 1544.94 Q1788.79 1540.33 1788.79 1531.6 Q1788.79 1522.85 1791.84 1518.27 Q1794.92 1513.66 1800.73 1513.66 Z" fill="#000000" fill-rule="nonzero" fill-opacity="1" /><path clip-path="url(#clip150)" d="M2079.62 1544.91 L2095.94 1544.91 L2095.94 1548.85 L2074 1548.85 L2074 1544.91 Q2076.66 1542.16 2081.24 1537.53 Q2085.85 1532.88 2087.03 1531.53 Q2089.27 1529.01 2090.15 1527.27 Q2091.06 1525.51 2091.06 1523.82 Q2091.06 1521.07 2089.11 1519.33 Q2087.19 1517.6 2084.09 1517.6 Q2081.89 1517.6 2079.44 1518.36 Q2077.01 1519.13 2074.23 1520.68 L2074.23 1515.95 Q2077.05 1514.82 2079.51 1514.24 Q2081.96 1513.66 2084 1513.66 Q2089.37 1513.66 2092.56 1516.35 Q2095.76 1519.03 2095.76 1523.52 Q2095.76 1525.65 2094.94 1527.57 Q2094.16 1529.47 2092.05 1532.07 Q2091.47 1532.74 2088.37 1535.95 Q2085.27 1539.15 2079.62 1544.91 Z" fill="#000000" fill-rule="nonzero" fill-opacity="1" /><path clip-path="url(#clip150)" d="M2105.8 1514.29 L2124.16 1514.29 L2124.16 1518.22 L2110.08 1518.22 L2110.08 1526.7 Q2111.1 1526.35 2112.12 1526.19 Q2113.14 1526 2114.16 1526 Q2119.94 1526 2123.32 1529.17 Q2126.7 1532.34 2126.7 1537.76 Q2126.7 1543.34 2123.23 1546.44 Q2119.76 1549.52 2113.44 1549.52 Q2111.26 1549.52 2109 1549.15 Q2106.75 1548.78 2104.34 1548.04 L2104.34 1543.34 Q2106.43 1544.47 2108.65 1545.03 Q2110.87 1545.58 2113.35 1545.58 Q2117.35 1545.58 2119.69 1543.48 Q2122.03 1541.37 2122.03 1537.76 Q2122.03 1534.15 2119.69 1532.04 Q2117.35 1529.94 2113.35 1529.94 Q2111.47 1529.94 2109.6 1530.35 Q2107.75 1530.77 2105.8 1531.65 L2105.8 1514.29 Z" fill="#000000" fill-rule="nonzero" fill-opacity="1" /><path clip-path="url(#clip150)" d="M2145.92 1517.37 Q2142.31 1517.37 2140.48 1520.93 Q2138.67 1524.47 2138.67 1531.6 Q2138.67 1538.71 2140.48 1542.27 Q2142.31 1545.82 2145.92 1545.82 Q2149.55 1545.82 2151.36 1542.27 Q2153.19 1538.71 2153.19 1531.6 Q2153.19 1524.47 2151.36 1520.93 Q2149.55 1517.37 2145.92 1517.37 M2145.92 1513.66 Q2151.73 1513.66 2154.78 1518.27 Q2157.86 1522.85 2157.86 1531.6 Q2157.86 1540.33 2154.78 1544.94 Q2151.73 1549.52 2145.92 1549.52 Q2140.11 1549.52 2137.03 1544.94 Q2133.97 1540.33 2133.97 1531.6 Q2133.97 1522.85 2137.03 1518.27 Q2140.11 1513.66 2145.92 1513.66 Z" fill="#000000" fill-rule="nonzero" fill-opacity="1" /><path clip-path="url(#clip150)" d="M2176.08 1517.37 Q2172.47 1517.37 2170.64 1520.93 Q2168.83 1524.47 2168.83 1531.6 Q2168.83 1538.71 2170.64 1542.27 Q2172.47 1545.82 2176.08 1545.82 Q2179.71 1545.82 2181.52 1542.27 Q2183.35 1538.71 2183.35 1531.6 Q2183.35 1524.47 2181.52 1520.93 Q2179.71 1517.37 2176.08 1517.37 M2176.08 1513.66 Q2181.89 1513.66 2184.94 1518.27 Q2188.02 1522.85 2188.02 1531.6 Q2188.02 1540.33 2184.94 1544.94 Q2181.89 1549.52 2176.08 1549.52 Q2170.27 1549.52 2167.19 1544.94 Q2164.13 1540.33 2164.13 1531.6 Q2164.13 1522.85 2167.19 1518.27 Q2170.27 1513.66 2176.08 1513.66 Z" fill="#000000" fill-rule="nonzero" fill-opacity="1" /><polyline clip-path="url(#clip150)" style="stroke:#000000; stroke-linecap:round; stroke-linejoin:round; stroke-width:4; stroke-opacity:1; fill:none" points="193.936,1486.45 193.936,123.472 "/>
<polyline clip-path="url(#clip150)" style="stroke:#000000; stroke-linecap:round; stroke-linejoin:round; stroke-width:4; stroke-opacity:1; fill:none" points="193.936,1479.68 212.834,1479.68 "/>
<polyline clip-path="url(#clip150)" style="stroke:#000000; stroke-linecap:round; stroke-linejoin:round; stroke-width:4; stroke-opacity:1; fill:none" points="193.936,1187.14 212.834,1187.14 "/>
<polyline clip-path="url(#clip150)" style="stroke:#000000; stroke-linecap:round; stroke-linejoin:round; stroke-width:4; stroke-opacity:1; fill:none" points="193.936,894.599 212.834,894.599 "/>
<polyline clip-path="url(#clip150)" style="stroke:#000000; stroke-linecap:round; stroke-linejoin:round; stroke-width:4; stroke-opacity:1; fill:none" points="193.936,602.061 212.834,602.061 "/>
<polyline clip-path="url(#clip150)" style="stroke:#000000; stroke-linecap:round; stroke-linejoin:round; stroke-width:4; stroke-opacity:1; fill:none" points="193.936,309.522 212.834,309.522 "/>
<path clip-path="url(#clip150)" d="M51.9875 1480.13 L81.6633 1480.13 L81.6633 1484.06 L51.9875 1484.06 L51.9875 1480.13 Z" fill="#000000" fill-rule="nonzero" fill-opacity="1" /><path clip-path="url(#clip150)" d="M90.5752 1462.4 L112.797 1462.4 L112.797 1464.39 L100.251 1496.96 L95.3669 1496.96 L107.172 1466.33 L90.5752 1466.33 L90.5752 1462.4 Z" fill="#000000" fill-rule="nonzero" fill-opacity="1" /><path clip-path="url(#clip150)" d="M121.918 1491.08 L126.802 1491.08 L126.802 1496.96 L121.918 1496.96 L121.918 1491.08 Z" fill="#000000" fill-rule="nonzero" fill-opacity="1" /><path clip-path="url(#clip150)" d="M137.033 1462.4 L155.39 1462.4 L155.39 1466.33 L141.316 1466.33 L141.316 1474.8 Q142.334 1474.46 143.353 1474.29 Q144.371 1474.11 145.39 1474.11 Q151.177 1474.11 154.556 1477.28 Q157.936 1480.45 157.936 1485.87 Q157.936 1491.45 154.464 1494.55 Q150.992 1497.63 144.672 1497.63 Q142.496 1497.63 140.228 1497.26 Q137.982 1496.89 135.575 1496.15 L135.575 1491.45 Q137.658 1492.58 139.881 1493.14 Q142.103 1493.69 144.58 1493.69 Q148.584 1493.69 150.922 1491.59 Q153.26 1489.48 153.26 1485.87 Q153.26 1482.26 150.922 1480.15 Q148.584 1478.04 144.58 1478.04 Q142.705 1478.04 140.83 1478.46 Q138.978 1478.88 137.033 1479.76 L137.033 1462.4 Z" fill="#000000" fill-rule="nonzero" fill-opacity="1" /><path clip-path="url(#clip150)" d="M50.9921 1187.59 L80.6679 1187.59 L80.6679 1191.52 L50.9921 1191.52 L50.9921 1187.59 Z" fill="#000000" fill-rule="nonzero" fill-opacity="1" /><path clip-path="url(#clip150)" d="M90.8067 1169.86 L109.163 1169.86 L109.163 1173.79 L95.0891 1173.79 L95.0891 1182.27 Q96.1076 1181.92 97.1261 1181.76 Q98.1447 1181.57 99.1632 1181.57 Q104.95 1181.57 108.33 1184.74 Q111.709 1187.91 111.709 1193.33 Q111.709 1198.91 108.237 1202.01 Q104.765 1205.09 98.4456 1205.09 Q96.2697 1205.09 94.0012 1204.72 Q91.7558 1204.35 89.3484 1203.61 L89.3484 1198.91 Q91.4317 1200.04 93.6539 1200.6 Q95.8761 1201.15 98.353 1201.15 Q102.358 1201.15 104.696 1199.05 Q107.033 1196.94 107.033 1193.33 Q107.033 1189.72 104.696 1187.61 Q102.358 1185.51 98.353 1185.51 Q96.478 1185.51 94.603 1185.92 Q92.7512 1186.34 90.8067 1187.22 L90.8067 1169.86 Z" fill="#000000" fill-rule="nonzero" fill-opacity="1" /><path clip-path="url(#clip150)" d="M120.922 1198.54 L125.807 1198.54 L125.807 1204.42 L120.922 1204.42 L120.922 1198.54 Z" fill="#000000" fill-rule="nonzero" fill-opacity="1" /><path clip-path="url(#clip150)" d="M145.992 1172.94 Q142.381 1172.94 140.552 1176.5 Q138.746 1180.04 138.746 1187.17 Q138.746 1194.28 140.552 1197.84 Q142.381 1201.39 145.992 1201.39 Q149.626 1201.39 151.431 1197.84 Q153.26 1194.28 153.26 1187.17 Q153.26 1180.04 151.431 1176.5 Q149.626 1172.94 145.992 1172.94 M145.992 1169.23 Q151.802 1169.23 154.857 1173.84 Q157.936 1178.42 157.936 1187.17 Q157.936 1195.9 154.857 1200.51 Q151.802 1205.09 145.992 1205.09 Q140.181 1205.09 137.103 1200.51 Q134.047 1195.9 134.047 1187.17 Q134.047 1178.42 137.103 1173.84 Q140.181 1169.23 145.992 1169.23 Z" fill="#000000" fill-rule="nonzero" fill-opacity="1" /><path clip-path="url(#clip150)" d="M51.9875 895.051 L81.6633 895.051 L81.6633 898.986 L51.9875 898.986 L51.9875 895.051 Z" fill="#000000" fill-rule="nonzero" fill-opacity="1" /><path clip-path="url(#clip150)" d="M95.7836 907.944 L112.103 907.944 L112.103 911.879 L90.1586 911.879 L90.1586 907.944 Q92.8206 905.19 97.4039 900.56 Q102.01 895.907 103.191 894.565 Q105.436 892.041 106.316 890.305 Q107.219 888.546 107.219 886.856 Q107.219 884.102 105.274 882.366 Q103.353 880.629 100.251 880.629 Q98.0521 880.629 95.5984 881.393 Q93.1678 882.157 90.3901 883.708 L90.3901 878.986 Q93.2141 877.852 95.6678 877.273 Q98.1215 876.694 100.159 876.694 Q105.529 876.694 108.723 879.379 Q111.918 882.065 111.918 886.555 Q111.918 888.685 111.108 890.606 Q110.321 892.504 108.214 895.097 Q107.635 895.768 104.534 898.986 Q101.432 902.18 95.7836 907.944 Z" fill="#000000" fill-rule="nonzero" fill-opacity="1" /><path clip-path="url(#clip150)" d="M121.918 906 L126.802 906 L126.802 911.879 L121.918 911.879 L121.918 906 Z" fill="#000000" fill-rule="nonzero" fill-opacity="1" /><path clip-path="url(#clip150)" d="M137.033 877.319 L155.39 877.319 L155.39 881.254 L141.316 881.254 L141.316 889.727 Q142.334 889.379 143.353 889.217 Q144.371 889.032 145.39 889.032 Q151.177 889.032 154.556 892.203 Q157.936 895.375 157.936 900.791 Q157.936 906.37 154.464 909.472 Q150.992 912.551 144.672 912.551 Q142.496 912.551 140.228 912.18 Q137.982 911.81 135.575 911.069 L135.575 906.37 Q137.658 907.504 139.881 908.06 Q142.103 908.615 144.58 908.615 Q148.584 908.615 150.922 906.509 Q153.26 904.402 153.26 900.791 Q153.26 897.18 150.922 895.074 Q148.584 892.967 144.58 892.967 Q142.705 892.967 140.83 893.384 Q138.978 893.801 137.033 894.68 L137.033 877.319 Z" fill="#000000" fill-rule="nonzero" fill-opacity="1" /><path clip-path="url(#clip150)" d="M100.76 587.859 Q97.1493 587.859 95.3206 591.424 Q93.515 594.966 93.515 602.095 Q93.515 609.202 95.3206 612.766 Q97.1493 616.308 100.76 616.308 Q104.395 616.308 106.2 612.766 Q108.029 609.202 108.029 602.095 Q108.029 594.966 106.2 591.424 Q104.395 587.859 100.76 587.859 M100.76 584.156 Q106.571 584.156 109.626 588.762 Q112.705 593.345 112.705 602.095 Q112.705 610.822 109.626 615.429 Q106.571 620.012 100.76 620.012 Q94.9502 620.012 91.8715 615.429 Q88.816 610.822 88.816 602.095 Q88.816 593.345 91.8715 588.762 Q94.9502 584.156 100.76 584.156 Z" fill="#000000" fill-rule="nonzero" fill-opacity="1" /><path clip-path="url(#clip150)" d="M120.922 613.461 L125.807 613.461 L125.807 619.341 L120.922 619.341 L120.922 613.461 Z" fill="#000000" fill-rule="nonzero" fill-opacity="1" /><path clip-path="url(#clip150)" d="M145.992 587.859 Q142.381 587.859 140.552 591.424 Q138.746 594.966 138.746 602.095 Q138.746 609.202 140.552 612.766 Q142.381 616.308 145.992 616.308 Q149.626 616.308 151.431 612.766 Q153.26 609.202 153.26 602.095 Q153.26 594.966 151.431 591.424 Q149.626 587.859 145.992 587.859 M145.992 584.156 Q151.802 584.156 154.857 588.762 Q157.936 593.345 157.936 602.095 Q157.936 610.822 154.857 615.429 Q151.802 620.012 145.992 620.012 Q140.181 620.012 137.103 615.429 Q134.047 610.822 134.047 602.095 Q134.047 593.345 137.103 588.762 Q140.181 584.156 145.992 584.156 Z" fill="#000000" fill-rule="nonzero" fill-opacity="1" /><path clip-path="url(#clip150)" d="M95.7836 322.867 L112.103 322.867 L112.103 326.802 L90.1586 326.802 L90.1586 322.867 Q92.8206 320.112 97.4039 315.482 Q102.01 310.83 103.191 309.487 Q105.436 306.964 106.316 305.228 Q107.219 303.469 107.219 301.779 Q107.219 299.024 105.274 297.288 Q103.353 295.552 100.251 295.552 Q98.0521 295.552 95.5984 296.316 Q93.1678 297.08 90.3901 298.631 L90.3901 293.908 Q93.2141 292.774 95.6678 292.195 Q98.1215 291.617 100.159 291.617 Q105.529 291.617 108.723 294.302 Q111.918 296.987 111.918 301.478 Q111.918 303.607 111.108 305.529 Q110.321 307.427 108.214 310.019 Q107.635 310.691 104.534 313.908 Q101.432 317.103 95.7836 322.867 Z" fill="#000000" fill-rule="nonzero" fill-opacity="1" /><path clip-path="url(#clip150)" d="M121.918 320.922 L126.802 320.922 L126.802 326.802 L121.918 326.802 L121.918 320.922 Z" fill="#000000" fill-rule="nonzero" fill-opacity="1" /><path clip-path="url(#clip150)" d="M137.033 292.242 L155.39 292.242 L155.39 296.177 L141.316 296.177 L141.316 304.649 Q142.334 304.302 143.353 304.14 Q144.371 303.955 145.39 303.955 Q151.177 303.955 154.556 307.126 Q157.936 310.297 157.936 315.714 Q157.936 321.293 154.464 324.394 Q150.992 327.473 144.672 327.473 Q142.496 327.473 140.228 327.103 Q137.982 326.732 135.575 325.992 L135.575 321.293 Q137.658 322.427 139.881 322.982 Q142.103 323.538 144.58 323.538 Q148.584 323.538 150.922 321.431 Q153.26 319.325 153.26 315.714 Q153.26 312.103 150.922 309.996 Q148.584 307.89 144.58 307.89 Q142.705 307.89 140.83 308.306 Q138.978 308.723 137.033 309.603 L137.033 292.242 Z" fill="#000000" fill-rule="nonzero" fill-opacity="1" /><path clip-path="url(#clip150)" d="M800.99 43.6931 L800.99 65.8515 L814.115 65.8515 Q820.718 65.8515 823.878 63.1374 Q827.078 60.3828 827.078 54.752 Q827.078 49.0808 823.878 46.4072 Q820.718 43.6931 814.115 43.6931 L800.99 43.6931 M800.99 18.8205 L800.99 37.0496 L813.102 37.0496 Q819.098 37.0496 822.014 34.8216 Q824.972 32.5531 824.972 27.935 Q824.972 23.3575 822.014 21.089 Q819.098 18.8205 813.102 18.8205 L800.99 18.8205 M792.807 12.096 L813.71 12.096 Q823.068 12.096 828.131 15.9849 Q833.195 19.8737 833.195 27.0438 Q833.195 32.5936 830.602 35.8748 Q828.01 39.156 822.987 39.9662 Q829.023 41.2625 832.344 45.3944 Q835.707 49.4858 835.707 55.6432 Q835.707 63.745 830.197 68.1605 Q824.688 72.576 814.52 72.576 L792.807 72.576 L792.807 12.096 Z" fill="#000000" fill-rule="nonzero" fill-opacity="1" /><path clip-path="url(#clip150)" d="M872.813 17.6457 Q863.901 17.6457 858.635 24.2892 Q853.409 30.9327 853.409 42.3968 Q853.409 53.8203 858.635 60.4638 Q863.901 67.1073 872.813 67.1073 Q881.725 67.1073 886.91 60.4638 Q892.136 53.8203 892.136 42.3968 Q892.136 30.9327 886.91 24.2892 Q881.725 17.6457 872.813 17.6457 M872.813 11.0023 Q885.533 11.0023 893.148 19.5497 Q900.764 28.0566 900.764 42.3968 Q900.764 56.6965 893.148 65.2439 Q885.533 73.7508 872.813 73.7508 Q860.052 73.7508 852.396 65.2439 Q844.781 56.737 844.781 42.3968 Q844.781 28.0566 852.396 19.5497 Q860.052 11.0023 872.813 11.0023 Z" fill="#000000" fill-rule="nonzero" fill-opacity="1" /><path clip-path="url(#clip150)" d="M913.565 12.096 L921.748 12.096 L921.748 65.6895 L951.198 65.6895 L951.198 72.576 L913.565 72.576 L913.565 12.096 Z" fill="#000000" fill-rule="nonzero" fill-opacity="1" /><path clip-path="url(#clip150)" d="M967.969 18.8205 L967.969 65.8515 L977.853 65.8515 Q990.37 65.8515 996.163 60.1802 Q1002 54.509 1002 42.2752 Q1002 30.1225 996.163 24.4918 Q990.37 18.8205 977.853 18.8205 L967.969 18.8205 M959.786 12.096 L976.597 12.096 Q994.178 12.096 1002.4 19.4281 Q1010.62 26.7198 1010.62 42.2752 Q1010.62 57.9117 1002.36 65.2439 Q994.097 72.576 976.597 72.576 L959.786 72.576 L959.786 12.096 Z" fill="#000000" fill-rule="nonzero" fill-opacity="1" /><path clip-path="url(#clip150)" d="M1078.64 28.5427 L1078.64 35.5912 Q1075.48 33.9709 1072.08 33.1607 Q1068.67 32.3505 1065.03 32.3505 Q1059.48 32.3505 1056.68 34.0519 Q1053.93 35.7533 1053.93 39.156 Q1053.93 41.7486 1055.91 43.2475 Q1057.9 44.7058 1063.89 46.0426 L1066.45 46.6097 Q1074.39 48.3111 1077.71 51.4303 Q1081.07 54.509 1081.07 60.0587 Q1081.07 66.3781 1076.05 70.0644 Q1071.06 73.7508 1062.31 73.7508 Q1058.67 73.7508 1054.7 73.0216 Q1050.77 72.3329 1046.39 70.9151 L1046.39 63.2184 Q1050.53 65.3654 1054.54 66.4591 Q1058.55 67.5124 1062.48 67.5124 Q1067.74 67.5124 1070.58 65.73 Q1073.41 63.9071 1073.41 60.6258 Q1073.41 57.5877 1071.35 55.9673 Q1069.32 54.3469 1062.4 52.8481 L1059.8 52.2405 Q1052.88 50.7821 1049.8 47.7845 Q1046.72 44.7463 1046.72 39.4801 Q1046.72 33.0797 1051.26 29.5959 Q1055.79 26.1121 1064.14 26.1121 Q1068.27 26.1121 1071.91 26.7198 Q1075.56 27.3274 1078.64 28.5427 Z" fill="#000000" fill-rule="nonzero" fill-opacity="1" /><path clip-path="url(#clip150)" d="M1092.94 27.2059 L1100.39 27.2059 L1100.39 72.576 L1092.94 72.576 L1092.94 27.2059 M1092.94 9.54393 L1100.39 9.54393 L1100.39 18.9825 L1092.94 18.9825 L1092.94 9.54393 Z" fill="#000000" fill-rule="nonzero" fill-opacity="1" /><path clip-path="url(#clip150)" d="M1145.84 49.3643 Q1145.84 41.2625 1142.48 36.8065 Q1139.16 32.3505 1133.12 32.3505 Q1127.13 32.3505 1123.77 36.8065 Q1120.44 41.2625 1120.44 49.3643 Q1120.44 57.4256 1123.77 61.8816 Q1127.13 66.3376 1133.12 66.3376 Q1139.16 66.3376 1142.48 61.8816 Q1145.84 57.4256 1145.84 49.3643 M1153.3 66.9452 Q1153.3 78.5308 1148.15 84.1616 Q1143.01 89.8329 1132.39 89.8329 Q1128.47 89.8329 1124.98 89.2252 Q1121.5 88.6581 1118.22 87.4428 L1118.22 80.1917 Q1121.5 81.9741 1124.7 82.8248 Q1127.9 83.6755 1131.22 83.6755 Q1138.55 83.6755 1142.2 79.8271 Q1145.84 76.0193 1145.84 68.282 L1145.84 64.5957 Q1143.53 68.6061 1139.93 70.5911 Q1136.32 72.576 1131.3 72.576 Q1122.96 72.576 1117.85 66.2161 Q1112.75 59.8562 1112.75 49.3643 Q1112.75 38.832 1117.85 32.472 Q1122.96 26.1121 1131.3 26.1121 Q1136.32 26.1121 1139.93 28.0971 Q1143.53 30.082 1145.84 34.0924 L1145.84 27.2059 L1153.3 27.2059 L1153.3 66.9452 Z" fill="#000000" fill-rule="nonzero" fill-opacity="1" /><path clip-path="url(#clip150)" d="M1206.36 45.1919 L1206.36 72.576 L1198.91 72.576 L1198.91 45.4349 Q1198.91 38.994 1196.4 35.7938 Q1193.89 32.5936 1188.86 32.5936 Q1182.83 32.5936 1179.34 36.4419 Q1175.86 40.2903 1175.86 46.9338 L1175.86 72.576 L1168.37 72.576 L1168.37 27.2059 L1175.86 27.2059 L1175.86 34.2544 Q1178.53 30.163 1182.14 28.1376 Q1185.79 26.1121 1190.53 26.1121 Q1198.34 26.1121 1202.35 30.9732 Q1206.36 35.7938 1206.36 45.1919 Z" fill="#000000" fill-rule="nonzero" fill-opacity="1" /><path clip-path="url(#clip150)" d="M1241.85 49.7694 Q1232.82 49.7694 1229.33 51.8354 Q1225.85 53.9013 1225.85 58.8839 Q1225.85 62.8538 1228.44 65.2034 Q1231.07 67.5124 1235.57 67.5124 Q1241.77 67.5124 1245.5 63.1374 Q1249.26 58.7219 1249.26 51.4303 L1249.26 49.7694 L1241.85 49.7694 M1256.72 46.6907 L1256.72 72.576 L1249.26 72.576 L1249.26 65.6895 Q1246.71 69.8214 1242.9 71.8063 Q1239.1 73.7508 1233.59 73.7508 Q1226.62 73.7508 1222.49 69.8619 Q1218.4 65.9325 1218.4 59.3701 Q1218.4 51.7138 1223.5 47.825 Q1228.64 43.9361 1238.81 43.9361 L1249.26 43.9361 L1249.26 43.2069 Q1249.26 38.0623 1245.86 35.2672 Q1242.5 32.4315 1236.38 32.4315 Q1232.49 32.4315 1228.81 33.3632 Q1225.12 34.295 1221.72 36.1584 L1221.72 29.2718 Q1225.81 27.692 1229.66 26.9223 Q1233.51 26.1121 1237.15 26.1121 Q1246.99 26.1121 1251.86 31.2163 Q1256.72 36.3204 1256.72 46.6907 Z" fill="#000000" fill-rule="nonzero" fill-opacity="1" /><path clip-path="url(#clip150)" d="M1272.07 9.54393 L1279.52 9.54393 L1279.52 72.576 L1272.07 72.576 L1272.07 9.54393 Z" fill="#000000" fill-rule="nonzero" fill-opacity="1" /><path clip-path="url(#clip150)" d="M1339.07 32.4315 Q1333.08 32.4315 1329.59 37.1306 Q1326.11 41.7891 1326.11 49.9314 Q1326.11 58.0738 1329.55 62.7728 Q1333.04 67.4314 1339.07 67.4314 Q1345.03 67.4314 1348.51 62.7323 Q1351.99 58.0333 1351.99 49.9314 Q1351.99 41.8701 1348.51 37.1711 Q1345.03 32.4315 1339.07 32.4315 M1339.07 26.1121 Q1348.79 26.1121 1354.34 32.4315 Q1359.89 38.7509 1359.89 49.9314 Q1359.89 61.0714 1354.34 67.4314 Q1348.79 73.7508 1339.07 73.7508 Q1329.31 73.7508 1323.76 67.4314 Q1318.25 61.0714 1318.25 49.9314 Q1318.25 38.7509 1323.76 32.4315 Q1329.31 26.1121 1339.07 26.1121 Z" fill="#000000" fill-rule="nonzero" fill-opacity="1" /><path clip-path="url(#clip150)" d="M1395.22 9.54393 L1395.22 15.7418 L1388.09 15.7418 Q1384.08 15.7418 1382.5 17.3622 Q1380.96 18.9825 1380.96 23.1955 L1380.96 27.2059 L1393.23 27.2059 L1393.23 32.9987 L1380.96 32.9987 L1380.96 72.576 L1373.46 72.576 L1373.46 32.9987 L1366.33 32.9987 L1366.33 27.2059 L1373.46 27.2059 L1373.46 24.0462 Q1373.46 16.471 1376.99 13.0277 Q1380.51 9.54393 1388.17 9.54393 L1395.22 9.54393 Z" fill="#000000" fill-rule="nonzero" fill-opacity="1" /><path clip-path="url(#clip150)" d="M1454.12 34.1734 Q1452.86 33.4443 1451.36 33.1202 Q1449.9 32.7556 1448.12 32.7556 Q1441.8 32.7556 1438.4 36.8875 Q1435.04 40.9789 1435.04 48.6757 L1435.04 72.576 L1427.54 72.576 L1427.54 27.2059 L1435.04 27.2059 L1435.04 34.2544 Q1437.39 30.1225 1441.15 28.1376 Q1444.92 26.1121 1450.31 26.1121 Q1451.08 26.1121 1452.01 26.2337 Q1452.94 26.3147 1454.08 26.5172 L1454.12 34.1734 Z" fill="#000000" fill-rule="nonzero" fill-opacity="1" /><path clip-path="url(#clip150)" d="M1498.92 48.0275 L1498.92 51.6733 L1464.65 51.6733 Q1465.14 59.3701 1469.27 63.421 Q1473.44 67.4314 1480.85 67.4314 Q1485.15 67.4314 1489.16 66.3781 Q1493.21 65.3249 1497.18 63.2184 L1497.18 70.267 Q1493.17 71.9684 1488.96 72.8596 Q1484.74 73.7508 1480.41 73.7508 Q1469.55 73.7508 1463.19 67.4314 Q1456.87 61.1119 1456.87 50.3365 Q1456.87 39.1965 1462.87 32.6746 Q1468.9 26.1121 1479.11 26.1121 Q1488.27 26.1121 1493.57 32.0264 Q1498.92 37.9003 1498.92 48.0275 M1491.47 45.84 Q1491.39 39.7232 1488.02 36.0774 Q1484.7 32.4315 1479.19 32.4315 Q1472.95 32.4315 1469.19 35.9558 Q1465.46 39.4801 1464.89 45.8805 L1491.47 45.84 Z" fill="#000000" fill-rule="nonzero" fill-opacity="1" /><path clip-path="url(#clip150)" d="M1541.01 49.3643 Q1541.01 41.2625 1537.65 36.8065 Q1534.33 32.3505 1528.29 32.3505 Q1522.29 32.3505 1518.93 36.8065 Q1515.61 41.2625 1515.61 49.3643 Q1515.61 57.4256 1518.93 61.8816 Q1522.29 66.3376 1528.29 66.3376 Q1534.33 66.3376 1537.65 61.8816 Q1541.01 57.4256 1541.01 49.3643 M1548.46 66.9452 Q1548.46 78.5308 1543.32 84.1616 Q1538.17 89.8329 1527.56 89.8329 Q1523.63 89.8329 1520.15 89.2252 Q1516.66 88.6581 1513.38 87.4428 L1513.38 80.1917 Q1516.66 81.9741 1519.86 82.8248 Q1523.06 83.6755 1526.39 83.6755 Q1533.72 83.6755 1537.36 79.8271 Q1541.01 76.0193 1541.01 68.282 L1541.01 64.5957 Q1538.7 68.6061 1535.1 70.5911 Q1531.49 72.576 1526.47 72.576 Q1518.12 72.576 1513.02 66.2161 Q1507.91 59.8562 1507.91 49.3643 Q1507.91 38.832 1513.02 32.472 Q1518.12 26.1121 1526.47 26.1121 Q1531.49 26.1121 1535.1 28.0971 Q1538.7 30.082 1541.01 34.0924 L1541.01 27.2059 L1548.46 27.2059 L1548.46 66.9452 Z" fill="#000000" fill-rule="nonzero" fill-opacity="1" /><path clip-path="url(#clip150)" d="M1563.82 27.2059 L1571.27 27.2059 L1571.27 72.576 L1563.82 72.576 L1563.82 27.2059 M1563.82 9.54393 L1571.27 9.54393 L1571.27 18.9825 L1563.82 18.9825 L1563.82 9.54393 Z" fill="#000000" fill-rule="nonzero" fill-opacity="1" /><path clip-path="url(#clip150)" d="M1604.45 32.4315 Q1598.45 32.4315 1594.97 37.1306 Q1591.48 41.7891 1591.48 49.9314 Q1591.48 58.0738 1594.93 62.7728 Q1598.41 67.4314 1604.45 67.4314 Q1610.4 67.4314 1613.89 62.7323 Q1617.37 58.0333 1617.37 49.9314 Q1617.37 41.8701 1613.89 37.1711 Q1610.4 32.4315 1604.45 32.4315 M1604.45 26.1121 Q1614.17 26.1121 1619.72 32.4315 Q1625.27 38.7509 1625.27 49.9314 Q1625.27 61.0714 1619.72 67.4314 Q1614.17 73.7508 1604.45 73.7508 Q1594.68 73.7508 1589.13 67.4314 Q1583.62 61.0714 1583.62 49.9314 Q1583.62 38.7509 1589.13 32.4315 Q1594.68 26.1121 1604.45 26.1121 Z" fill="#000000" fill-rule="nonzero" fill-opacity="1" /><path clip-path="url(#clip150)" d="M1675.34 45.1919 L1675.34 72.576 L1667.88 72.576 L1667.88 45.4349 Q1667.88 38.994 1665.37 35.7938 Q1662.86 32.5936 1657.84 32.5936 Q1651.8 32.5936 1648.32 36.4419 Q1644.83 40.2903 1644.83 46.9338 L1644.83 72.576 L1637.34 72.576 L1637.34 27.2059 L1644.83 27.2059 L1644.83 34.2544 Q1647.51 30.163 1651.11 28.1376 Q1654.76 26.1121 1659.5 26.1121 Q1667.32 26.1121 1671.33 30.9732 Q1675.34 35.7938 1675.34 45.1919 Z" fill="#000000" fill-rule="nonzero" fill-opacity="1" /><path clip-path="url(#clip150)" d="M1719.05 65.6895 L1732.41 65.6895 L1732.41 19.5497 L1717.87 22.4663 L1717.87 15.0127 L1732.33 12.096 L1740.52 12.096 L1740.52 65.6895 L1753.88 65.6895 L1753.88 72.576 L1719.05 72.576 L1719.05 65.6895 Z" fill="#000000" fill-rule="nonzero" fill-opacity="1" /><polyline clip-path="url(#clip152)" style="stroke:#009af9; stroke-linecap:round; stroke-linejoin:round; stroke-width:4; stroke-opacity:1; fill:none" points="255.035,530.797 255.785,612.111 256.536,580.704 257.287,587.34 258.037,609.555 258.788,565.74 259.539,539.69 260.29,607.537 261.04,640.135 261.791,658.181 262.542,616.811 263.292,657.52 264.043,575.014 264.794,686.602 265.544,591.504 266.295,618.912 267.046,715.807 267.796,612.667 268.547,688.709 269.298,683.457 270.048,512.795 270.799,565.5 271.55,544.344 272.301,490.464 273.051,515.183 273.802,577.804 274.553,668.379 275.303,642.812 276.054,478.929 276.805,646.014 277.555,590.645 278.306,596.779 279.057,612.426 279.807,494.654 280.558,564.361 281.309,594.923 282.06,603.633 282.81,557.873 283.561,624.739 284.312,566.845 285.062,812.403 285.813,645.193 286.564,648.109 287.314,530.198 288.065,604.578 288.816,514.542 289.566,555.577 290.317,622.669 291.068,507.724 291.818,583.624 292.569,474.711 293.32,635.684 294.071,699.655 294.821,579.911 295.572,505.421 296.323,560.797 297.073,600.945 297.824,579.746 298.575,538.988 299.325,675.376 300.076,566.164 300.827,595.523 301.577,432.026 302.328,536.865 303.079,488.642 303.83,669.641 304.58,546.208 305.331,749.753 306.082,592.706 306.832,599.506 307.583,449.795 308.334,389.755 309.084,492.851 309.835,390.349 310.586,426.338 311.336,408.122 312.087,319.481 312.838,384.62 313.589,404.066 314.339,396.893 315.09,291.35 315.841,378.893 316.591,358.333 317.342,369.181 318.093,288.299 318.843,256.581 319.594,293.697 320.345,419.794 321.095,287.063 321.846,480.605 322.597,449.716 323.347,392.266 324.098,492.444 324.849,467.567 325.6,522.351 326.35,476.716 327.101,409.462 327.852,562.498 328.602,529.71 329.353,654.774 330.104,615.235 330.854,650.51 331.605,713.687 332.356,741.038 333.106,635.175 333.857,846.868 334.608,848.19 335.359,850.991 336.109,936.601 336.86,921.594 337.611,1079.6 338.361,946.909 339.112,940.754 339.863,977.813 340.613,1036.18 341.364,993.94 342.115,973.776 342.865,1013.47 343.616,1047.53 344.367,995.682 345.117,1029.52 345.868,827.39 346.619,843.249 347.37,882.349 348.12,779.843 348.871,901.855 349.622,789.332 350.372,863.46 351.123,759.314 351.874,749.225 352.624,823.695 353.375,800.864 354.126,891.193 354.876,784.002 355.627,735.947 356.378,694.879 357.129,658.013 357.879,680.715 358.63,758.59 359.381,643.523 360.131,684.522 360.882,638.22 361.633,759.054 362.383,718.203 363.134,665.953 363.885,514.015 364.635,603.376 365.386,643.746 366.137,585.69 366.888,792.733 367.638,628.712 368.389,654.557 369.14,707.185 369.89,623.578 370.641,540.046 371.392,607.4 372.142,636.161 372.893,467.195 373.644,615.433 374.394,592.773 375.145,649.906 375.896,579.647 376.646,531.383 377.397,531.036 378.148,582.333 378.899,554.586 379.649,575.39 380.4,556.138 381.151,505.309 381.901,506.408 382.652,680.012 383.403,618.731 384.153,596.974 384.904,664.378 385.655,566.623 386.405,680.574 387.156,624.222 387.907,517.285 388.658,551.227 389.408,512.499 390.159,589.971 390.91,660.259 391.66,449.693 392.411,639.533 393.162,552.971 393.912,537.737 394.663,565.936 395.414,565.42 396.164,591.652 396.915,468.944 397.666,489.34 398.417,453.48 399.167,443.347 399.918,455.247 400.669,277.889 401.419,388.722 402.17,513.612 402.921,417.94 403.671,366.615 404.422,367.561 405.173,283.361 405.923,344.549 406.674,241.353 407.425,364.877 408.175,351.766 408.926,338.852 409.677,321.43 410.428,289.252 411.178,301.447 411.929,347.087 412.68,308.029 413.43,437.432 414.181,336.519 414.932,392.737 415.682,367.851 416.433,343.234 417.184,414.876 417.934,306.299 418.685,448.729 419.436,346.93 420.187,415.532 420.937,596.263 421.688,532.077 422.439,643.433 423.189,690.529 423.94,509.189 424.691,529.33 425.441,531.869 426.192,708.253 426.943,744.696 427.693,571.853 428.444,706.233 429.195,637.603 429.945,547.414 430.696,638.552 431.447,556.609 432.198,723.42 432.948,542.846 433.699,792.679 434.45,535.029 435.2,603.813 435.951,585.728 436.702,668.024 437.452,712.986 438.203,606.952 438.954,787.538 439.704,604.617 440.455,627.502 441.206,776.476 441.957,597.97 442.707,789.201 443.458,772.335 444.209,783.85 444.959,718.992 445.71,787.603 446.461,814.135 447.211,747.986 447.962,737.551 448.713,918.347 449.463,782.817 450.214,843.975 450.965,908.857 451.716,709.212 452.466,842.354 453.217,842.42 453.968,797.495 454.718,833.629 455.469,841.676 456.22,773.154 456.97,766.12 457.721,871.316 458.472,626.009 459.222,674.393 459.973,637.089 460.724,940.883 461.474,750.914 462.225,714.905 462.976,727.148 463.727,686.338 464.477,817.62 465.228,620.275 465.979,673.449 466.729,580.048 467.48,441.923 468.231,585.613 468.981,606.876 469.732,670.456 470.483,675.565 471.233,513.836 471.984,644.554 472.735,609.553 473.486,540.165 474.236,597.261 474.987,541.372 475.738,683.508 476.488,590.167 477.239,689.398 477.99,552.923 478.74,647.37 479.491,600.614 480.242,578.679 480.992,542.857 481.743,520.003 482.494,453.881 483.244,500.257 483.995,507.288 484.746,394.836 485.497,581.635 486.247,519.064 486.998,494.816 487.749,473.24 488.499,343.514 489.25,318.819 490.001,184.064 490.751,230.019 491.502,336.535 492.253,226.645 493.003,325.436 493.754,162.047 494.505,205.553 495.256,250.987 496.006,269.689 496.757,172.548 497.508,268.432 498.258,378.634 499.009,274.258 499.76,389.616 500.51,372.912 501.261,269.134 502.012,454.874 502.762,339.372 503.513,384.589 504.264,400.997 505.015,415.465 505.765,381.64 506.516,413.72 507.267,540.849 508.017,544.794 508.768,460.634 509.519,524.612 510.269,593.779 511.02,672.223 511.771,537.622 512.521,591.64 513.272,605.771 514.023,542.645 514.773,697.065 515.524,661.603 516.275,617.403 517.026,657.469 517.776,738.586 518.527,703.685 519.278,719.076 520.028,605.522 520.779,638.312 521.53,579.178 522.28,714.327 523.031,601.731 523.782,568.337 524.532,570.724 525.283,498.694 526.034,694.128 526.785,532.357 527.535,553.542 528.286,679.758 529.037,564.196 529.787,661.28 530.538,674.597 531.289,614.221 532.039,594.697 532.79,557.318 533.541,553.999 534.291,503.71 535.042,624.161 535.793,688.31 536.544,639.313 537.294,616.041 538.045,496.132 538.796,540.29 539.546,621.627 540.297,461.912 541.048,745.622 541.798,609.97 542.549,630.628 543.3,647.727 544.05,634.462 544.801,605.749 545.552,645.6 546.302,627.167 547.053,715.686 547.804,615.85 548.555,578.959 549.305,574.942 550.056,611.392 550.807,534.307 551.557,671.842 552.308,662.695 553.059,579.703 553.809,728.882 554.56,551.126 555.311,578.321 556.061,600.552 556.812,583.389 557.563,612.866 558.314,646.245 559.064,740.85 559.815,710.167 560.566,560.737 561.316,589.521 562.067,611.888 562.818,575.427 563.568,583.447 564.319,637.642 565.07,636.32 565.82,549.304 566.571,518.532 567.322,641.276 568.072,608.151 568.823,684.567 569.574,548.677 570.325,617.851 571.075,724.494 571.826,624.907 572.577,629.816 573.327,602.731 574.078,573.064 574.829,653.081 575.579,511.037 576.33,621.681 577.081,629.867 577.831,647.992 578.582,491.062 579.333,586.403 580.084,648.338 580.834,640.7 581.585,607.417 582.336,520.159 583.086,680.649 583.837,625.416 584.588,483.72 585.338,604.855 586.089,678.159 586.84,652.23 587.59,612.039 588.341,579.231 589.092,741.294 589.843,660.81 590.593,639.453 591.344,735.795 592.095,641.642 592.845,645.861 593.596,692.595 594.347,704.444 595.097,772.949 595.848,667.579 596.599,671.33 597.349,569.278 598.1,741.922 598.851,706.221 599.601,729.244 600.352,626.701 601.103,707.04 601.854,763.302 602.604,624.774 603.355,729.47 604.106,657.616 604.856,750.83 605.607,615.471 606.358,609.007 607.108,575.323 607.859,580.043 608.61,670.876 609.36,676.412 610.111,588.874 610.862,733.628 611.613,731.034 612.363,701.066 613.114,762.042 613.865,736.388 614.615,828.787 615.366,704.473 616.117,770.464 616.867,735.033 617.618,818.684 618.369,809.272 619.119,915.802 619.87,931.975 620.621,888.222 621.371,979.435 622.122,1061.09 622.873,934.97 623.624,986.875 624.374,1082.53 625.125,1070.51 625.876,1054.71 626.626,1040.15 627.377,1113.26 628.128,1016.08 628.878,1035.48 629.629,1082.3 630.38,1055.64 631.13,1024.53 631.881,1249.26 632.632,1041.65 633.383,1073.07 634.133,1124.52 634.884,1113.68 635.635,1183.84 636.385,1049.78 637.136,978.949 637.887,884.94 638.637,975.549 639.388,952.644 640.139,903.555 640.889,901.891 641.64,918.517 642.391,911.654 643.142,889.242 643.892,814.993 644.643,881.967 645.394,803.412 646.144,705.065 646.895,684.975 647.646,793.673 648.396,738.635 649.147,772.467 649.898,648.171 650.648,726.974 651.399,664.296 652.15,618.252 652.9,597.964 653.651,656.169 654.402,737.746 655.153,668.042 655.903,707.033 656.654,890.048 657.405,764.344 658.155,770.366 658.906,648.657 659.657,851.136 660.407,713.399 661.158,792.324 661.909,864.844 662.659,746.739 663.41,881.444 664.161,904.212 664.912,874.958 665.662,895.907 666.413,974.306 667.164,910.742 667.914,958.539 668.665,950.326 669.416,902.659 670.166,938.941 670.917,945.054 671.668,950.13 672.418,1010.26 673.169,938.39 673.92,943.709 674.671,922.161 675.421,976.069 676.172,998.871 676.923,1045.39 677.673,986.99 678.424,968.25 679.175,952.852 679.925,890.691 680.676,949.528 681.427,896.398 682.177,967.55 682.928,1014.82 683.679,977.256 684.429,1008.82 685.18,829.296 685.931,903.08 686.682,884.331 687.432,784.952 688.183,780.675 688.934,883.388 689.684,928.543 690.435,908.31 691.186,867.665 691.936,878.947 692.687,887.914 693.438,904.064 694.188,910.194 694.939,870.255 695.69,894.156 696.441,839.657 697.191,728.686 697.942,849.596 698.693,687.558 699.443,868.493 700.194,691.039 700.945,739.436 701.695,788.774 702.446,795.215 703.197,766.518 703.947,641.239 704.698,687.722 705.449,515.859 706.199,609.31 706.95,705.578 707.701,611.779 708.452,694.788 709.202,610.342 709.953,658.408 710.704,717.691 711.454,695.584 712.205,791.147 712.956,760.074 713.706,627.401 714.457,605.602 715.208,548.732 715.958,580.223 716.709,554.096 717.46,509.975 718.211,668.131 718.961,620.463 719.712,547.164 720.463,593.633 721.213,598.772 721.964,665.247 722.715,620.46 723.465,650.673 724.216,672.348 724.967,579.386 725.717,570.283 726.468,592.508 727.219,653.995 727.97,620.433 728.72,542.154 729.471,660.359 730.222,604.993 730.972,601.985 731.723,711.819 732.474,484.768 733.224,523.587 733.975,494.368 734.726,493.582 735.476,704.129 736.227,570.915 736.978,583.312 737.728,539.225 738.479,569.565 739.23,568.875 739.981,564.057 740.731,683.993 741.482,659.469 742.233,585.794 742.983,556.234 743.734,593.73 744.485,651.032 745.235,603.27 745.986,530.07 746.737,750.178 747.487,686.545 748.238,741.463 748.989,634.494 749.74,725.477 750.49,629.238 751.241,705.824 751.992,620.42 752.742,690.24 753.493,776.818 754.244,655.28 754.994,725.059 755.745,640.129 756.496,670.891 757.246,732.038 757.997,685.452 758.748,600.48 759.498,780.666 760.249,768.694 761,780.007 761.751,712.356 762.501,871.737 763.252,830.311 764.003,772.092 764.753,792.435 765.504,874.074 766.255,904.3 767.005,769.211 767.756,735.854 768.507,865.981 769.257,949.714 770.008,902.299 770.759,867.377 771.51,789.594 772.26,906.104 773.011,913.029 773.762,851.081 774.512,811.694 775.263,744.369 776.014,756.518 776.764,816.57 777.515,822.603 778.266,768.719 779.016,737.752 779.767,759.163 780.518,886.562 781.269,727.324 782.019,724.985 782.77,779.52 783.521,772.509 784.271,647.066 785.022,600.822 785.773,715.511 786.523,506.372 787.274,676.378 788.025,532.514 788.775,703.204 789.526,653.967 790.277,772.762 791.027,579.162 791.778,594.178 792.529,631.458 793.28,520.912 794.03,650.516 794.781,671.942 795.532,610.079 796.282,628.208 797.033,676.519 797.784,595.626 798.534,578.725 799.285,615.329 800.036,681.223 800.786,732.531 801.537,562.016 802.288,596.606 803.039,638.666 803.789,600.235 804.54,713.747 805.291,539.369 806.041,571.686 806.792,564.974 807.543,439.58 808.293,635.535 809.044,661.274 809.795,667.687 810.545,700.98 811.296,657.225 812.047,720.384 812.798,593.953 813.548,609.725 814.299,672.602 815.05,510.566 815.8,617.344 816.551,605.581 817.302,594.882 818.052,545.861 818.803,511.474 819.554,513.399 820.304,473.913 821.055,665.539 821.806,481.369 822.556,571.926 823.307,451.93 824.058,631.614 824.809,476.691 825.559,542.238 826.31,567.424 827.061,631.436 827.811,587.73 828.562,450.524 829.313,523.271 830.063,534.21 830.814,622.175 831.565,513.703 832.315,597.016 833.066,618.348 833.817,657.151 834.568,519.802 835.318,499.85 836.069,658.176 836.82,607.007 837.57,663.028 838.321,622.318 839.072,793.537 839.822,727.391 840.573,791.136 841.324,706.167 842.074,806.848 842.825,811.873 843.576,841.488 844.326,853.934 845.077,975.213 845.828,947.116 846.579,962.135 847.329,911.268 848.08,1095.64 848.831,1211.47 849.581,1170.32 850.332,1144.47 851.083,1233.35 851.833,1235.68 852.584,1320.43 853.335,1252.7 854.085,1282.69 854.836,1294.94 855.587,1281 856.338,1430.29 857.088,1249.61 857.839,1360.22 858.59,1447.87 859.34,1429.3 860.091,1263.29 860.842,1372.27 861.592,1407.5 862.343,1358.7 863.094,1348.99 863.844,1309.39 864.595,1174.14 865.346,1320.79 866.097,1235.99 866.847,1202.42 867.598,1184.92 868.349,1010.13 869.099,1096.68 869.85,1135.72 870.601,1153.27 871.351,1100.09 872.102,987.505 872.853,872.608 873.603,979.25 874.354,980.913 875.105,901.568 875.855,934.594 876.606,852.89 877.357,892.569 878.108,745.447 878.858,719.582 879.609,767.882 880.36,690.624 881.11,847.727 881.861,616.987 882.612,715.18 883.362,730.024 884.113,720.794 884.864,636.109 885.614,636.248 886.365,676.518 887.116,662.26 887.867,618.853 888.617,728.953 889.368,648.103 890.119,673.782 890.869,574.195 891.62,665.239 892.371,674.944 893.121,688.465 893.872,593.442 894.623,606.49 895.373,540.072 896.124,553.256 896.875,639.878 897.625,713.964 898.376,699.304 899.127,660.851 899.878,449.743 900.628,645.185 901.379,645.636 902.13,635.043 902.88,516.601 903.631,602.969 904.382,654.176 905.132,580.244 905.883,588.344 906.634,595.31 907.384,614.303 908.135,599.911 908.886,555.646 909.637,649.009 910.387,584.413 911.138,678.007 911.889,550.353 912.639,564.011 913.39,469.72 914.141,606.867 914.891,690.053 915.642,624.348 916.393,610.329 917.143,686.55 917.894,653.219 918.645,692.106 919.396,727.53 920.146,688.345 920.897,578.694 921.648,628.306 922.398,603.749 923.149,559.578 923.9,543.601 924.65,652.175 925.401,564.398 926.152,723.468 926.902,635.978 927.653,546.15 928.404,583.413 929.154,687.727 929.905,652.916 930.656,616.684 931.407,656.099 932.157,749.917 932.908,541.382 933.659,631.328 934.409,680.173 935.16,584.965 935.911,633.491 936.661,638.075 937.412,651.316 938.163,673.396 938.913,612.342 939.664,549.629 940.415,563.079 941.166,586.651 941.916,607.515 942.667,598.432 943.418,561.166 944.168,736.661 944.919,577.378 945.67,690.746 946.42,592.429 947.171,559.734 947.922,636.863 948.672,685.646 949.423,648.808 950.174,606.525 950.925,549.661 951.675,574.71 952.426,589.472 953.177,629.985 953.927,605.92 954.678,547.19 955.429,639.766 956.179,554.923 956.93,642.459 957.681,618.257 958.431,545.147 959.182,555.464 959.933,615.016 960.683,564.536 961.434,548.021 962.185,678.103 962.936,719.507 963.686,665.442 964.437,609.841 965.188,749.684 965.938,650.689 966.689,704.984 967.44,794.445 968.19,732.102 968.941,694.825 969.692,706.541 970.442,818.862 971.193,702.311 971.944,731.832 972.695,792.11 973.445,814.762 974.196,772.176 974.947,842.695 975.697,755.22 976.448,695.908 977.199,771.561 977.949,837.817 978.7,854.647 979.451,887.705 980.201,729.808 980.952,718.045 981.703,668.357 982.453,826.646 983.204,858.756 983.955,810.935 984.706,721.851 985.456,797.383 986.207,706.732 986.958,719.995 987.708,699.555 988.459,705.395 989.21,661.611 989.96,739.961 990.711,656.835 991.462,691.61 992.212,635.916 992.963,652.267 993.714,539.217 994.465,578.03 995.215,774.087 995.966,703.09 996.717,686.44 997.467,595.718 998.218,628.63 998.969,674.429 999.719,566.406 1000.47,614.191 1001.22,582.563 1001.97,656.697 1002.72,500.094 1003.47,615.103 1004.22,650.794 1004.97,613.453 1005.72,660.225 1006.48,717.742 1007.23,516.624 1007.98,641.018 1008.73,569.257 1009.48,609.495 1010.23,465.176 1010.98,575.475 1011.73,568.495 1012.48,417.681 1013.23,503.112 1013.98,408.443 1014.73,450.718 1015.48,646.24 1016.23,518.352 1016.99,508.755 1017.74,444.951 1018.49,467.671 1019.24,438.165 1019.99,435.77 1020.74,411.965 1021.49,567.263 1022.24,581.186 1022.99,589.314 1023.74,617.222 1024.49,710.277 1025.24,616.968 1025.99,708.913 1026.74,711.557 1027.49,758.172 1028.25,749.235 1029,794.422 1029.75,816.468 1030.5,933.522 1031.25,805.323 1032,891.822 1032.75,811.596 1033.5,985.458 1034.25,961.628 1035,1080.39 1035.75,965.276 1036.5,1095.35 1037.25,1174.89 1038,1098.65 1038.76,1023.3 1039.51,1120.03 1040.26,1020.22 1041.01,1124.53 1041.76,991.6 1042.51,1070.07 1043.26,1016.63 1044.01,1031.49 1044.76,976.168 1045.51,975.811 1046.26,840.594 1047.01,887.026 1047.76,846.112 1048.51,884.759 1049.26,750.942 1050.02,860.798 1050.77,688.459 1051.52,818.408 1052.27,696.585 1053.02,737.035 1053.77,690.151 1054.52,612.853 1055.27,643.454 1056.02,671.62 1056.77,664.242 1057.52,702.198 1058.27,699.482 1059.02,628.629 1059.77,751.255 1060.53,631.285 1061.28,641.178 1062.03,630.029 1062.78,749.663 1063.53,712.27 1064.28,705.12 1065.03,851.505 1065.78,819.743 1066.53,866.588 1067.28,847.801 1068.03,822.077 1068.78,871.33 1069.53,921.236 1070.28,792.439 1071.03,849.424 1071.79,1050.05 1072.54,1076.32 1073.29,1003.81 1074.04,1190.7 1074.79,1093.3 1075.54,1012.18 1076.29,1105.52 1077.04,1136.94 1077.79,1099.36 1078.54,1165.97 1079.29,1142.17 1080.04,1218.8 1080.79,1160.28 1081.54,1122.27 1082.3,1118.33 1083.05,1231.43 1083.8,1099.79 1084.55,1036.35 1085.3,1133.06 1086.05,1023.05 1086.8,1106.01 1087.55,1012.31 1088.3,1011.7 1089.05,971.906 1089.8,897.114 1090.55,970.498 1091.3,843.92 1092.05,882.87 1092.8,933.693 1093.56,866.829 1094.31,899.546 1095.06,843.893 1095.81,814.064 1096.56,777.765 1097.31,652.478 1098.06,681.165 1098.81,688.96 1099.56,834.723 1100.31,689.284 1101.06,744.74 1101.81,717.518 1102.56,626.573 1103.31,668.896 1104.07,647.633 1104.82,704.361 1105.57,659.252 1106.32,734.301 1107.07,662.215 1107.82,780.621 1108.57,718.292 1109.32,845.597 1110.07,832.103 1110.82,910.118 1111.57,811.89 1112.32,692.191 1113.07,738.308 1113.82,780.593 1114.57,633.146 1115.33,648.383 1116.08,671.116 1116.83,783.777 1117.58,799.986 1118.33,707.592 1119.08,797.259 1119.83,759.351 1120.58,623.395 1121.33,665.337 1122.08,715.24 1122.83,673.367 1123.58,752.241 1124.33,698.338 1125.08,685.03 1125.84,638.948 1126.59,836.781 1127.34,783.378 1128.09,601.989 1128.84,603.164 1129.59,680.894 1130.34,653.961 1131.09,706.359 1131.84,597.82 1132.59,539.328 1133.34,572.509 1134.09,580.542 1134.84,746.104 1135.59,657.743 1136.34,572.51 1137.1,750.682 1137.85,559.801 1138.6,725.276 1139.35,589.535 1140.1,597.761 1140.85,625.688 1141.6,572.42 1142.35,540.184 1143.1,572.603 1143.85,632.051 1144.6,663.27 1145.35,644.908 1146.1,695.483 1146.85,478.787 1147.61,707.128 1148.36,674.898 1149.11,552.278 1149.86,704.204 1150.61,555.036 1151.36,728.373 1152.11,650.013 1152.86,693.535 1153.61,653.961 1154.36,700.685 1155.11,680.301 1155.86,711.866 1156.61,666.658 1157.36,718.043 1158.12,649.171 1158.87,792.187 1159.62,823.429 1160.37,790.694 1161.12,818.857 1161.87,766.066 1162.62,736.039 1163.37,927.376 1164.12,900.435 1164.87,908.878 1165.62,930.877 1166.37,826.283 1167.12,829.509 1167.87,887.69 1168.62,878.686 1169.38,883.644 1170.13,925.81 1170.88,794.816 1171.63,903.796 1172.38,865.415 1173.13,988.224 1173.88,873.988 1174.63,863.399 1175.38,891.956 1176.13,904.286 1176.88,906.216 1177.63,795.584 1178.38,886.546 1179.13,934.656 1179.89,944.949 1180.64,852.438 1181.39,830.124 1182.14,926.482 1182.89,834.693 1183.64,867.431 1184.39,856.351 1185.14,863.348 1185.89,905.769 1186.64,864.008 1187.39,737.662 1188.14,817.306 1188.89,893.91 1189.64,940.892 1190.39,852.059 1191.15,895.381 1191.9,893.666 1192.65,929.896 1193.4,1027.97 1194.15,964.671 1194.9,1013.93 1195.65,795.337 1196.4,850.477 1197.15,1038.65 1197.9,953.065 1198.65,1024.29 1199.4,1073.78 1200.15,962.482 1200.9,1089.26 1201.66,1006.33 1202.41,1009.55 1203.16,1023.91 1203.91,1037.86 1204.66,1016.04 1205.41,974.631 1206.16,1010.12 1206.91,1105.56 1207.66,1157.94 1208.41,1006.05 1209.16,1016.14 1209.91,979.175 1210.66,1078.05 1211.41,926.445 1212.16,840.855 1212.92,852.254 1213.67,902.891 1214.42,869.131 1215.17,995.458 1215.92,823.303 1216.67,907.547 1217.42,925.068 1218.17,904.662 1218.92,711.198 1219.67,778.784 1220.42,960.114 1221.17,851.033 1221.92,611.002 1222.67,812.592 1223.43,878.745 1224.18,691.018 1224.93,835.434 1225.68,678.951 1226.43,681.458 1227.18,708.71 1227.93,644.605 1228.68,706.875 1229.43,649.143 1230.18,740.264 1230.93,723.209 1231.68,738.391 1232.43,695.487 1233.18,695.525 1233.93,685.848 1234.69,721.018 1235.44,729.118 1236.19,803.256 1236.94,838.828 1237.69,829.225 1238.44,755.622 1239.19,786.189 1239.94,730.203 1240.69,833.578 1241.44,747.6 1242.19,843.122 1242.94,876.989 1243.69,862.202 1244.44,962.508 1245.2,956.058 1245.95,940.465 1246.7,1088.12 1247.45,1172.51 1248.2,1117.97 1248.95,1130.28 1249.7,1031.73 1250.45,1040.07 1251.2,1070.87 1251.95,1196.82 1252.7,1146.15 1253.45,1060.71 1254.2,1160.89 1254.95,1118.99 1255.7,1136.86 1256.46,1106.35 1257.21,1154.39 1257.96,1061.72 1258.71,1082.64 1259.46,1020.48 1260.21,1192.21 1260.96,1107.29 1261.71,1024.39 1262.46,1009.13 1263.21,961.338 1263.96,954.078 1264.71,941.819 1265.46,937.126 1266.21,926.698 1266.97,955.948 1267.72,834.385 1268.47,864.512 1269.22,818.354 1269.97,678.964 1270.72,810.622 1271.47,841.512 1272.22,756.971 1272.97,758.522 1273.72,719.244 1274.47,579.041 1275.22,756.364 1275.97,800.702 1276.72,721.936 1277.47,690.373 1278.23,662.6 1278.98,665.219 1279.73,693.869 1280.48,634.04 1281.23,649.584 1281.98,711.913 1282.73,598.641 1283.48,651.012 1284.23,650.07 1284.98,623.044 1285.73,543.372 1286.48,677.339 1287.23,609.649 1287.98,625.668 1288.74,636.646 1289.49,607.391 1290.24,746.178 1290.99,582.861 1291.74,555.001 1292.49,546.002 1293.24,661.046 1293.99,607.311 1294.74,620.327 1295.49,629.68 1296.24,594.031 1296.99,707.994 1297.74,616.956 1298.49,713.947 1299.24,699.622 1300,584.182 1300.75,592.84 1301.5,478.769 1302.25,607.134 1303,573.282 1303.75,489.154 1304.5,537.746 1305.25,546.201 1306,722.019 1306.75,498.327 1307.5,590.437 1308.25,537.229 1309,536.543 1309.75,638.184 1310.51,691.215 1311.26,567.532 1312.01,642.195 1312.76,518.217 1313.51,574.224 1314.26,616.67 1315.01,820.868 1315.76,531.755 1316.51,575.396 1317.26,748.032 1318.01,634.429 1318.76,546.139 1319.51,784.051 1320.26,687.187 1321.01,747.381 1321.77,773.289 1322.52,733.521 1323.27,712.842 1324.02,908.653 1324.77,846.191 1325.52,825.061 1326.27,839.124 1327.02,898.897 1327.77,962.534 1328.52,929.176 1329.27,979.215 1330.02,1095.5 1330.77,1236.82 1331.52,1022.36 1332.28,1037.79 1333.03,1047.66 1333.78,1054.29 1334.53,1056.35 1335.28,1140.51 1336.03,1074.31 1336.78,1083 1337.53,1078.85 1338.28,1195.67 1339.03,1215.15 1339.78,1167.33 1340.53,1184.18 1341.28,1096.51 1342.03,1102.17 1342.78,1216.79 1343.54,1053.24 1344.29,1076.36 1345.04,1153.3 1345.79,1117.97 1346.54,1014.74 1347.29,1028.44 1348.04,1004.97 1348.79,1007.44 1349.54,1013.24 1350.29,1049.78 1351.04,783.185 1351.79,1155.36 1352.54,846.755 1353.29,904.706 1354.05,677.504 1354.8,743.872 1355.55,862.939 1356.3,893.977 1357.05,753.516 1357.8,703.212 1358.55,663.416 1359.3,733.32 1360.05,823.968 1360.8,687.321 1361.55,666.268 1362.3,586.43 1363.05,734.012 1363.8,728.037 1364.55,758.035 1365.31,785.924 1366.06,789.189 1366.81,609.896 1367.56,829.064 1368.31,740.946 1369.06,748.258 1369.81,792.229 1370.56,806.586 1371.31,934.951 1372.06,940.093 1372.81,965.914 1373.56,947.813 1374.31,909.108 1375.06,909.51 1375.82,930.603 1376.57,1071.44 1377.32,1038.81 1378.07,925.603 1378.82,981.376 1379.57,955.803 1380.32,1059.03 1381.07,1105.4 1381.82,1102.48 1382.57,1047.1 1383.32,1079.85 1384.07,1095.33 1384.82,1046.74 1385.57,1017.16 1386.32,932.69 1387.08,939.169 1387.83,1025.36 1388.58,790.148 1389.33,934.293 1390.08,1063.83 1390.83,861.561 1391.58,881.2 1392.33,927.832 1393.08,887.04 1393.83,788.198 1394.58,872.383 1395.33,868.168 1396.08,865.261 1396.83,848.449 1397.59,800.617 1398.34,804.231 1399.09,587.404 1399.84,592.897 1400.59,765.017 1401.34,660.719 1402.09,705.683 1402.84,732.916 1403.59,623.68 1404.34,737.827 1405.09,605.228 1405.84,684.539 1406.59,657.186 1407.34,862.253 1408.09,709.314 1408.85,792.209 1409.6,706.174 1410.35,855.496 1411.1,695.355 1411.85,649.904 1412.6,724.91 1413.35,518.136 1414.1,733.436 1414.85,733.923 1415.6,846.537 1416.35,741.325 1417.1,845.839 1417.85,730.074 1418.6,797.193 1419.36,797.973 1420.11,775.947 1420.86,782.772 1421.61,921.127 1422.36,640.254 1423.11,886.237 1423.86,895.503 1424.61,841.08 1425.36,808.249 1426.11,744.102 1426.86,859.748 1427.61,818.498 1428.36,676.86 1429.11,622.717 1429.86,790.115 1430.62,824.022 1431.37,806.884 1432.12,622.234 1432.87,810.872 1433.62,736.534 1434.37,768.705 1435.12,815.367 1435.87,718.13 1436.62,781.249 1437.37,720.094 1438.12,695.617 1438.87,700.716 1439.62,627.776 1440.37,648.264 1441.13,677.037 1441.88,648.96 1442.63,667.558 1443.38,692.603 1444.13,575.06 1444.88,595.75 1445.63,576.141 1446.38,475.497 1447.13,481.302 1447.88,547.501 1448.63,444.677 1449.38,466.187 1450.13,404.051 1450.88,353.2 1451.63,340.943 1452.39,350.116 1453.14,393.233 1453.89,338.287 1454.64,301.109 1455.39,310.776 1456.14,270.306 1456.89,281.322 1457.64,340.176 1458.39,278.304 1459.14,243.326 1459.89,389.008 1460.64,235.711 1461.39,353.855 1462.14,268.689 1462.9,327.741 1463.65,421.539 1464.4,379.931 1465.15,400.474 1465.9,400.592 1466.65,470.435 1467.4,549.308 1468.15,485.06 1468.9,527.691 1469.65,434.046 1470.4,484.811 1471.15,596.918 1471.9,610.333 1472.65,668.336 1473.4,572.557 1474.16,725.719 1474.91,709.289 1475.66,675.597 1476.41,569.429 1477.16,763.63 1477.91,675.724 1478.66,825.776 1479.41,689.499 1480.16,664.297 1480.91,719.613 1481.66,694.071 1482.41,713.856 1483.16,734.323 1483.91,597.222 1484.67,768.557 1485.42,763.026 1486.17,674.509 1486.92,662.436 1487.67,698.543 1488.42,686.38 1489.17,735.904 1489.92,729.664 1490.67,876.687 1491.42,727.108 1492.17,921.959 1492.92,780.132 1493.67,821.85 1494.42,829.094 1495.17,826.917 1495.93,870.427 1496.68,1031.28 1497.43,946.995 1498.18,958.308 1498.93,1034.3 1499.68,1027.65 1500.43,1087.19 1501.18,1013.47 1501.93,995.574 1502.68,1104.91 1503.43,1103.77 1504.18,1025.79 1504.93,1008.25 1505.68,983.168 1506.44,1077.66 1507.19,1053.26 1507.94,1170.64 1508.69,1109.34 1509.44,1098.62 1510.19,1113.13 1510.94,1078.09 1511.69,1107.12 1512.44,1076.72 1513.19,1118.47 1513.94,1082.47 1514.69,1026.68 1515.44,928.77 1516.19,1013.25 1516.94,910.297 1517.7,914.726 1518.45,982.375 1519.2,982.604 1519.95,913.813 1520.7,827.298 1521.45,835.383 1522.2,838.335 1522.95,799.961 1523.7,855.873 1524.45,710.388 1525.2,747.72 1525.95,789.286 1526.7,736.197 1527.45,683.542 1528.21,723.118 1528.96,843.567 1529.71,764.457 1530.46,835.946 1531.21,613.275 1531.96,804.178 1532.71,708.015 1533.46,600.273 1534.21,623.629 1534.96,587.768 1535.71,737.338 1536.46,529.114 1537.21,747.738 1537.96,707.923 1538.71,674.933 1539.47,771.077 1540.22,702.88 1540.97,765.336 1541.72,885.82 1542.47,699.158 1543.22,786.291 1543.97,787.918 1544.72,857.454 1545.47,896.062 1546.22,921.083 1546.97,881.566 1547.72,926.054 1548.47,928.335 1549.22,954.395 1549.98,923.657 1550.73,971.157 1551.48,889.738 1552.23,1057.25 1552.98,1012.64 1553.73,1149.61 1554.48,1070.23 1555.23,1147.62 1555.98,1119.96 1556.73,1270.35 1557.48,1244.05 1558.23,1213.97 1558.98,1162.48 1559.73,1226.8 1560.48,1233.81 1561.24,1185.5 1561.99,1222.88 1562.74,1161.33 1563.49,1237.21 1564.24,1129.89 1564.99,1152.33 1565.74,1166.95 1566.49,1171.19 1567.24,1117 1567.99,1114.64 1568.74,1181.17 1569.49,963.867 1570.24,1024.62 1570.99,972.705 1571.75,929.583 1572.5,945.693 1573.25,934.987 1574,967.698 1574.75,754.075 1575.5,881.411 1576.25,773.909 1577,823.302 1577.75,696.411 1578.5,801.34 1579.25,716.773 1580,687.577 1580.75,728.766 1581.5,746.923 1582.25,752.131 1583.01,708.411 1583.76,749.037 1584.51,666.682 1585.26,491.26 1586.01,636.455 1586.76,703.497 1587.51,627.201 1588.26,729.923 1589.01,739.152 1589.76,660.726 1590.51,603.22 1591.26,661.843 1592.01,584.479 1592.76,755.308 1593.52,532.446 1594.27,549.669 1595.02,664.854 1595.77,557.162 1596.52,679.058 1597.27,641.43 1598.02,657.061 1598.77,646.382 1599.52,698.813 1600.27,578.721 1601.02,567.519 1601.77,519.911 1602.52,506.89 1603.27,580.217 1604.02,599.21 1604.78,588.728 1605.53,604.387 1606.28,565.622 1607.03,594.182 1607.78,622.832 1608.53,720.943 1609.28,619.741 1610.03,610.473 1610.78,616.433 1611.53,600.272 1612.28,616.911 1613.03,656.978 1613.78,605.371 1614.53,542.959 1615.29,639.139 1616.04,525.315 1616.79,728.247 1617.54,611.909 1618.29,662.843 1619.04,556.641 1619.79,623.815 1620.54,706.046 1621.29,698.916 1622.04,523.14 1622.79,536.314 1623.54,645.76 1624.29,584.457 1625.04,496.766 1625.8,596.086 1626.55,649.608 1627.3,580.15 1628.05,661.32 1628.8,713.37 1629.55,554.67 1630.3,630.205 1631.05,631.41 1631.8,540.379 1632.55,657.014 1633.3,587.632 1634.05,674.488 1634.8,673.449 1635.55,562.679 1636.3,635.938 1637.06,624.826 1637.81,594.019 1638.56,546.618 1639.31,543.096 1640.06,539.271 1640.81,547.787 1641.56,711.743 1642.31,632.985 1643.06,581.48 1643.81,560.73 1644.56,626.094 1645.31,612.749 1646.06,551.076 1646.81,623.75 1647.57,564.34 1648.32,597.358 1649.07,582.129 1649.82,636.965 1650.57,648.951 1651.32,669.717 1652.07,584.708 1652.82,724.368 1653.57,593.4 1654.32,651.101 1655.07,608.822 1655.82,556.336 1656.57,530.475 1657.32,573.798 1658.07,564.26 1658.83,600.811 1659.58,527.008 1660.33,623.907 1661.08,544.977 1661.83,590.987 1662.58,601.964 1663.33,602.172 1664.08,615.107 1664.83,630.956 1665.58,745.303 1666.33,620.477 1667.08,641.825 1667.83,469.675 1668.58,587.361 1669.34,643.856 1670.09,637.005 1670.84,555.842 1671.59,596.277 1672.34,650.435 1673.09,643.427 1673.84,803.441 1674.59,563.389 1675.34,631.257 1676.09,618.625 1676.84,596.747 1677.59,646.707 1678.34,610.207 1679.09,617.312 1679.84,660.085 1680.6,681.902 1681.35,602.201 1682.1,567.827 1682.85,577.068 1683.6,593.582 1684.35,501.341 1685.1,557.068 1685.85,630.932 1686.6,548.373 1687.35,508.487 1688.1,456.049 1688.85,647.322 1689.6,534.591 1690.35,543.491 1691.11,576.582 1691.86,520.008 1692.61,539.021 1693.36,557.28 1694.11,485.126 1694.86,497.273 1695.61,496.746 1696.36,499.512 1697.11,446.523 1697.86,486.501 1698.61,578.479 1699.36,517.135 1700.11,670.938 1700.86,498.423 1701.61,432.67 1702.37,593.077 1703.12,572.908 1703.87,615.871 1704.62,518.509 1705.37,478.441 1706.12,489.49 1706.87,551.163 1707.62,556.202 1708.37,534.281 1709.12,557.403 1709.87,572.536 1710.62,617.464 1711.37,527.472 1712.12,471.159 1712.88,574.237 1713.63,478.129 1714.38,459.514 1715.13,649.643 1715.88,610.275 1716.63,472.884 1717.38,621.967 1718.13,630.189 1718.88,705.555 1719.63,614.578 1720.38,734.694 1721.13,580.14 1721.88,554.821 1722.63,613.413 1723.38,611.521 1724.14,714.419 1724.89,780.844 1725.64,756.226 1726.39,690.578 1727.14,816.39 1727.89,800.696 1728.64,754.643 1729.39,848.112 1730.14,780.79 1730.89,710.055 1731.64,842.002 1732.39,791.433 1733.14,872.591 1733.89,862.003 1734.65,881.172 1735.4,871.652 1736.15,825.493 1736.9,870.532 1737.65,862.345 1738.4,796.62 1739.15,870.824 1739.9,933.351 1740.65,852.715 1741.4,790.296 1742.15,927.292 1742.9,799.469 1743.65,814.838 1744.4,949.896 1745.15,800.204 1745.91,904.77 1746.66,797.338 1747.41,702.016 1748.16,1007.39 1748.91,850.97 1749.66,881.354 1750.41,920.754 1751.16,892.932 1751.91,849.288 1752.66,858.128 1753.41,666.945 1754.16,785.198 1754.91,742.438 1755.66,755.044 1756.42,788.737 1757.17,754.874 1757.92,628.399 1758.67,671.601 1759.42,728.647 1760.17,735.431 1760.92,705.523 1761.67,726.112 1762.42,771.716 1763.17,785.182 1763.92,709.468 1764.67,673.388 1765.42,668.551 1766.17,668.107 1766.92,657.76 1767.68,647.281 1768.43,606.552 1769.18,682.823 1769.93,757.402 1770.68,710.642 1771.43,535.797 1772.18,632.671 1772.93,646.016 1773.68,713.106 1774.43,611.702 1775.18,667.378 1775.93,535.636 1776.68,644.05 1777.43,670.462 1778.19,669.651 1778.94,606.498 1779.69,620.444 1780.44,408.726 1781.19,615.367 1781.94,582.308 1782.69,587.335 1783.44,606.339 1784.19,515.078 1784.94,605.239 1785.69,475.737 1786.44,587.213 1787.19,560.84 1787.94,541.656 1788.69,580.119 1789.45,570.185 1790.2,600.55 1790.95,435.917 1791.7,502.214 1792.45,568.435 1793.2,562.947 1793.95,692.5 1794.7,584.525 1795.45,591.788 1796.2,643.989 1796.95,646.938 1797.7,530.401 1798.45,499.194 1799.2,749.003 1799.96,626.481 1800.71,523.107 1801.46,597.779 1802.21,617.176 1802.96,610.3 1803.71,540.774 1804.46,655.634 1805.21,574.798 1805.96,644.916 1806.71,611.037 1807.46,763.781 1808.21,620.348 1808.96,692.605 1809.71,767.101 1810.46,641.451 1811.22,745.644 1811.97,735.451 1812.72,735.794 1813.47,789.168 1814.22,801.99 1814.97,709.207 1815.72,776.058 1816.47,855.211 1817.22,833.494 1817.97,1028.06 1818.72,828.553 1819.47,896.576 1820.22,827.588 1820.97,909.081 1821.73,758.953 1822.48,900.652 1823.23,990.34 1823.98,1002.11 1824.73,952.163 1825.48,968.101 1826.23,805.07 1826.98,846.18 1827.73,893.719 1828.48,1011.64 1829.23,852.233 1829.98,881.98 1830.73,873.555 1831.48,876.078 1832.23,901.86 1832.99,789.165 1833.74,789.348 1834.49,750.883 1835.24,778.218 1835.99,780.277 1836.74,756.375 1837.49,618.071 1838.24,944.591 1838.99,727.129 1839.74,766.36 1840.49,664.035 1841.24,671.922 1841.99,700.123 1842.74,715.531 1843.5,575.68 1844.25,645.059 1845,689.117 1845.75,599.868 1846.5,629.903 1847.25,806.63 1848,637.079 1848.75,657.25 1849.5,766.694 1850.25,677.952 1851,890.398 1851.75,747.514 1852.5,830.393 1853.25,836.713 1854,909.986 1854.76,880.216 1855.51,840.247 1856.26,956.612 1857.01,951.154 1857.76,1066.89 1858.51,1083.57 1859.26,981.308 1860.01,996.083 1860.76,1102.87 1861.51,1221.91 1862.26,1193.54 1863.01,1192.84 1863.76,1301.48 1864.51,1194.66 1865.27,1300.99 1866.02,1170.51 1866.77,1269.21 1867.52,1164.88 1868.27,1236.34 1869.02,1208.81 1869.77,1231.04 1870.52,1193.45 1871.27,1200.46 1872.02,1244.67 1872.77,1200.62 1873.52,1145.25 1874.27,1133.1 1875.02,1103.61 1875.77,1085.85 1876.53,1091.78 1877.28,1115.52 1878.03,1043.95 1878.78,929.49 1879.53,979.071 1880.28,1034.75 1881.03,944.117 1881.78,830.318 1882.53,806.118 1883.28,909.075 1884.03,778.858 1884.78,770.673 1885.53,683.136 1886.28,779.24 1887.04,707.122 1887.79,738.486 1888.54,766.676 1889.29,785.373 1890.04,887.239 1890.79,759.611 1891.54,736.559 1892.29,854.632 1893.04,750.92 1893.79,746.197 1894.54,818.03 1895.29,870.515 1896.04,917.662 1896.79,904.587 1897.54,848.327 1898.3,846.784 1899.05,932.569 1899.8,894.83 1900.55,938.71 1901.3,896.753 1902.05,959.718 1902.8,939.426 1903.55,955.733 1904.3,1052.66 1905.05,954.819 1905.8,1059.07 1906.55,1074.66 1907.3,995.516 1908.05,982.051 1908.81,1019.42 1909.56,1057.99 1910.31,1129.11 1911.06,1017.6 1911.81,994.746 1912.56,1062.08 1913.31,1098.69 1914.06,1012.3 1914.81,1009.81 1915.56,1017.2 1916.31,985.732 1917.06,1006.41 1917.81,1018.32 1918.56,844.636 1919.31,803.893 1920.07,805.622 1920.82,807.56 1921.57,808.615 1922.32,758.074 1923.07,800.405 1923.82,880.12 1924.57,796.558 1925.32,957.502 1926.07,918.347 1926.82,810.364 1927.57,766.148 1928.32,692.994 1929.07,691.215 1929.82,852.754 1930.58,734.105 1931.33,776.812 1932.08,612.222 1932.83,716.128 1933.58,790.252 1934.33,609.547 1935.08,840.029 1935.83,711.102 1936.58,749.281 1937.33,634.377 1938.08,764.387 1938.83,709.166 1939.58,710.52 1940.33,736.537 1941.08,840.367 1941.84,716.938 1942.59,718 1943.34,750.48 1944.09,813.327 1944.84,804.826 1945.59,697.798 1946.34,807.816 1947.09,807.879 1947.84,903.618 1948.59,975.504 1949.34,890.979 1950.09,872.61 1950.84,898.761 1951.59,903.257 1952.35,855.731 1953.1,1027.6 1953.85,1063.57 1954.6,969.274 1955.35,812.149 1956.1,902.465 1956.85,893.099 1957.6,929.971 1958.35,864.074 1959.1,961.188 1959.85,890.133 1960.6,829.549 1961.35,820.918 1962.1,962.664 1962.85,781.117 1963.61,855.1 1964.36,900.277 1965.11,856.888 1965.86,760.537 1966.61,861.698 1967.36,719.062 1968.11,784.968 1968.86,808.844 1969.61,673.43 1970.36,792.743 1971.11,773.183 1971.86,814.895 1972.61,634.35 1973.36,692.61 1974.12,705.295 1974.87,729.239 1975.62,624.587 1976.37,639.714 1977.12,607.475 1977.87,641.81 1978.62,773.854 1979.37,760.599 1980.12,804.982 1980.87,683.191 1981.62,780.222 1982.37,854.325 1983.12,924.911 1983.87,856.523 1984.62,753.514 1985.38,962.858 1986.13,1072.39 1986.88,1029.27 1987.63,1232.79 1988.38,987.228 1989.13,1051.35 1989.88,1008.83 1990.63,1053.98 1991.38,1081.81 1992.13,1221.24 1992.88,1234.43 1993.63,1311.22 1994.38,1194.22 1995.13,1251.07 1995.89,1259.51 1996.64,1290.8 1997.39,1323.12 1998.14,1297.56 1998.89,1160.07 1999.64,1169.94 2000.39,1334.06 2001.14,1341.55 2001.89,1282.43 2002.64,1203.83 2003.39,1237.19 2004.14,1179.79 2004.89,1247.62 2005.64,1053.53 2006.39,1104.7 2007.15,1133.55 2007.9,985.566 2008.65,1095.81 2009.4,1005.62 2010.15,1064.02 2010.9,1006.51 2011.65,951.46 2012.4,820.226 2013.15,780.017 2013.9,929.699 2014.65,720.054 2015.4,773.307 2016.15,843.853 2016.9,723.835 2017.66,709.5 2018.41,612.814 2019.16,512.591 2019.91,524.252 2020.66,578.973 2021.41,492.376 2022.16,390.069 2022.91,429.827 2023.66,418.229 2024.41,448.384 2025.16,423.219 2025.91,405.928 2026.66,361.847 2027.41,363.433 2028.16,271.693 2028.92,354.94 2029.67,418.143 2030.42,345.495 2031.17,286.843 2031.92,319.042 2032.67,321.032 2033.42,298.357 2034.17,351.463 2034.92,384.618 2035.67,468.228 2036.42,494.072 2037.17,390.366 2037.92,490.131 2038.67,528.586 2039.43,535.46 2040.18,528.175 2040.93,548.948 2041.68,628.686 2042.43,619.514 2043.18,697.705 2043.93,573.129 2044.68,818.537 2045.43,767.711 2046.18,595.96 2046.93,772.327 2047.68,736.415 2048.43,723.811 2049.18,745.053 2049.93,690.111 2050.69,716.582 2051.44,637.11 2052.19,618.912 2052.94,730.917 2053.69,770.087 2054.44,701.944 2055.19,638.879 2055.94,764.128 2056.69,598.557 2057.44,643.111 2058.19,617.705 2058.94,566.152 2059.69,657.204 2060.44,641.546 2061.2,632.616 2061.95,626 2062.7,729.071 2063.45,568.308 2064.2,618.409 2064.95,623.67 2065.7,574.603 2066.45,719.235 2067.2,692.427 2067.95,666.316 2068.7,647.88 2069.45,614.917 2070.2,738.155 2070.95,698.932 2071.7,602.819 2072.46,739.705 2073.21,655.354 2073.96,738.949 2074.71,678.435 2075.46,767.293 2076.21,732.03 2076.96,791.745 2077.71,808.685 2078.46,879.337 2079.21,694.554 2079.96,813.743 2080.71,780.567 2081.46,902.259 2082.21,843.757 2082.97,731.957 2083.72,677.734 2084.47,925.143 2085.22,960.698 2085.97,847.124 2086.72,864.624 2087.47,912.1 2088.22,857.041 2088.97,845.072 2089.72,939.861 2090.47,787.131 2091.22,917.045 2091.97,721.509 2092.72,836.039 2093.48,718.421 2094.23,748.796 2094.98,827.941 2095.73,747.568 2096.48,741.458 2097.23,829.169 2097.98,649.079 2098.73,791.607 2099.48,733.352 2100.23,705.495 2100.98,649.616 2101.73,736.6 2102.48,696.34 2103.23,751.87 2103.98,678.123 2104.74,562.336 2105.49,675.876 2106.24,650.333 2106.99,675.304 2107.74,593.648 2108.49,642.457 2109.24,595.432 2109.99,650.826 2110.74,705.102 2111.49,586.783 2112.24,711.254 2112.99,683.838 2113.74,652.031 2114.49,579.435 2115.25,742.685 2116,678.768 2116.75,779.689 2117.5,785.375 2118.25,741.281 2119,660.176 2119.75,725.271 2120.5,729.56 2121.25,710.671 2122,847.878 2122.75,773.211 2123.5,881.609 2124.25,852.64 2125,821.96 2125.75,748.965 2126.51,792.621 2127.26,847.897 2128.01,763.093 2128.76,780.433 2129.51,875.339 2130.26,834.142 2131.01,823.433 2131.76,848.04 2132.51,823.045 2133.26,803.061 2134.01,759.673 2134.76,733.029 2135.51,861.564 2136.26,629.562 2137.02,690.387 2137.77,812.467 2138.52,717.266 2139.27,715.868 2140.02,800.59 2140.77,663.081 2141.52,789.217 2142.27,629.897 2143.02,765.889 2143.77,718.881 2144.52,981.711 2145.27,632.429 2146.02,748.806 2146.77,727.982 2147.52,576.196 2148.28,677.384 2149.03,701.664 2149.78,675.743 2150.53,641.334 2151.28,664.802 2152.03,679.475 2152.78,610.011 2153.53,536.941 2154.28,621.394 2155.03,713.788 2155.78,582.869 2156.53,590.41 2157.28,570.617 2158.03,641.704 2158.79,618.467 2159.54,703.365 2160.29,681.626 2161.04,693.455 2161.79,651.23 2162.54,728.603 2163.29,599.277 2164.04,594.477 2164.79,633.638 2165.54,689.598 2166.29,675.974 2167.04,655.248 2167.79,688.812 2168.54,632.065 2169.29,661.358 2170.05,571.131 2170.8,696.654 2171.55,606.275 2172.3,726.593 2173.05,642.305 2173.8,715.746 2174.55,692.346 2175.3,638.748 2176.05,616.856 2176.8,691.148 2177.55,579.512 2178.3,517.737 2179.05,721.98 2179.8,792.753 2180.56,651.814 2181.31,644.437 2182.06,663.639 2182.81,510.099 2183.56,630.477 2184.31,623.359 2185.06,640.014 2185.81,570.25 2186.56,673.185 2187.31,516.621 2188.06,657.755 2188.81,580.79 2189.56,627.084 2190.31,666.307 2191.06,574.491 2191.82,654.413 2192.57,593.254 2193.32,514.44 2194.07,535.822 2194.82,546.984 2195.57,561.67 2196.32,566.347 2197.07,594.785 2197.82,554.238 2198.57,647.787 2199.32,568.968 2200.07,557.946 2200.82,639.033 2201.57,765.676 2202.33,675.306 2203.08,720.244 2203.83,801.014 2204.58,767.297 2205.33,859.667 2206.08,844.19 2206.83,820.982 2207.58,833.931 2208.33,878.86 2209.08,850.903 2209.83,816.855 2210.58,953.885 2211.33,929.086 2212.08,940.938 2212.83,1082.73 2213.59,885.695 2214.34,987.923 2215.09,964.096 2215.84,1116.93 2216.59,1165.51 2217.34,1056.28 2218.09,1089.19 2218.84,1066.38 2219.59,1162.06 2220.34,1039.2 2221.09,1022.34 2221.84,1173.57 2222.59,1173.57 2223.34,1007.33 2224.1,1094.85 2224.85,1008.48 2225.6,1063.7 2226.35,1072.33 2227.1,1080.92 2227.85,825.743 2228.6,981.999 2229.35,943.305 2230.1,975.192 2230.85,780.158 2231.6,857.454 2232.35,848.496 2233.1,835.299 2233.85,774.315 2234.6,838.666 2235.36,930.675 2236.11,706.11 2236.86,792.319 2237.61,811.126 2238.36,647.695 2239.11,784.759 2239.86,759.562 2240.61,624.467 2241.36,707.353 2242.11,758.71 2242.86,656.144 2243.61,750.865 2244.36,746.058 2245.11,714.413 2245.87,789.074 2246.62,705.05 2247.37,609.113 2248.12,658.549 2248.87,670.053 2249.62,804.698 2250.37,657.365 2251.12,821.965 2251.87,886.568 2252.62,691.759 2253.37,875.7 2254.12,910.879 2254.87,844.172 2255.62,832.577 2256.37,846.274 2257.13,746.693 2257.88,840.712 2258.63,769.502 2259.38,897.383 2260.13,723.036 2260.88,882.507 2261.63,722.378 2262.38,821.14 2263.13,755.267 2263.88,835.273 2264.63,893.588 2265.38,827.481 2266.13,881.522 2266.88,802.795 2267.64,839.45 2268.39,690.314 2269.14,729.727 2269.89,835.485 2270.64,746.386 2271.39,764.721 2272.14,807.657 2272.89,705.278 2273.64,721.124 2274.39,804.02 2275.14,694.699 2275.89,792.621 2276.64,805.068 2277.39,721.139 2278.14,804.827 2278.9,601.815 2279.65,618.244 2280.4,610.033 2281.15,683.747 2281.9,599.155 2282.65,695.589 2283.4,720.883 2284.15,592.179 2284.9,624.358 2285.65,707.16 2286.4,689.601 2287.15,699.05 2287.9,624.654 2288.65,618.539 2289.41,579.791 2290.16,588.418 2290.91,530.479 2291.66,563.212 "/>
<path clip-path="url(#clip150)" d="M265.897 1441.02 L728.652 1441.02 L728.652 1337.34 L265.897 1337.34  Z" fill="#ffffff" fill-rule="evenodd" fill-opacity="1"/>
<polyline clip-path="url(#clip150)" style="stroke:#000000; stroke-linecap:round; stroke-linejoin:round; stroke-width:4; stroke-opacity:1; fill:none" points="265.897,1441.02 728.652,1441.02 728.652,1337.34 265.897,1337.34 265.897,1441.02 "/>
<polyline clip-path="url(#clip150)" style="stroke:#009af9; stroke-linecap:round; stroke-linejoin:round; stroke-width:4; stroke-opacity:1; fill:none" points="289.884,1389.18 433.805,1389.18 "/>
<path clip-path="url(#clip150)" d="M465.199 1373.17 L465.199 1380.53 L473.972 1380.53 L473.972 1383.84 L465.199 1383.84 L465.199 1397.91 Q465.199 1401.09 466.056 1401.99 Q466.935 1402.89 469.597 1402.89 L473.972 1402.89 L473.972 1406.46 L469.597 1406.46 Q464.667 1406.46 462.792 1404.63 Q460.917 1402.77 460.917 1397.91 L460.917 1383.84 L457.792 1383.84 L457.792 1380.53 L460.917 1380.53 L460.917 1373.17 L465.199 1373.17 Z" fill="#000000" fill-rule="nonzero" fill-opacity="1" /><path clip-path="url(#clip150)" d="M494.597 1384.51 Q493.88 1384.09 493.023 1383.91 Q492.19 1383.7 491.171 1383.7 Q487.56 1383.7 485.616 1386.06 Q483.694 1388.4 483.694 1392.8 L483.694 1406.46 L479.412 1406.46 L479.412 1380.53 L483.694 1380.53 L483.694 1384.56 Q485.037 1382.2 487.19 1381.06 Q489.343 1379.9 492.421 1379.9 Q492.861 1379.9 493.393 1379.97 Q493.926 1380.02 494.574 1380.14 L494.597 1384.51 Z" fill="#000000" fill-rule="nonzero" fill-opacity="1" /><path clip-path="url(#clip150)" d="M498.625 1396.22 L498.625 1380.53 L502.884 1380.53 L502.884 1396.06 Q502.884 1399.74 504.319 1401.59 Q505.754 1403.42 508.625 1403.42 Q512.074 1403.42 514.065 1401.22 Q516.078 1399.02 516.078 1395.23 L516.078 1380.53 L520.338 1380.53 L520.338 1406.46 L516.078 1406.46 L516.078 1402.47 Q514.528 1404.83 512.467 1405.99 Q510.43 1407.13 507.722 1407.13 Q503.254 1407.13 500.94 1404.35 Q498.625 1401.57 498.625 1396.22 M509.342 1379.9 L509.342 1379.9 Z" fill="#000000" fill-rule="nonzero" fill-opacity="1" /><path clip-path="url(#clip150)" d="M551.287 1392.43 L551.287 1394.51 L531.703 1394.51 Q531.981 1398.91 534.342 1401.22 Q536.727 1403.52 540.963 1403.52 Q543.416 1403.52 545.708 1402.91 Q548.023 1402.31 550.291 1401.11 L550.291 1405.14 Q548 1406.11 545.592 1406.62 Q543.185 1407.13 540.708 1407.13 Q534.504 1407.13 530.87 1403.52 Q527.259 1399.9 527.259 1393.75 Q527.259 1387.38 530.685 1383.65 Q534.134 1379.9 539.967 1379.9 Q545.199 1379.9 548.231 1383.28 Q551.287 1386.64 551.287 1392.43 M547.027 1391.18 Q546.981 1387.68 545.06 1385.6 Q543.162 1383.52 540.014 1383.52 Q536.449 1383.52 534.296 1385.53 Q532.166 1387.54 531.842 1391.2 L547.027 1391.18 Z" fill="#000000" fill-rule="nonzero" fill-opacity="1" /><path clip-path="url(#clip150)" d="M589.874 1381.29 L589.874 1385.32 Q588.069 1384.4 586.124 1383.93 Q584.18 1383.47 582.097 1383.47 Q578.925 1383.47 577.328 1384.44 Q575.754 1385.41 575.754 1387.36 Q575.754 1388.84 576.888 1389.7 Q578.023 1390.53 581.449 1391.29 L582.907 1391.62 Q587.444 1392.59 589.342 1394.37 Q591.263 1396.13 591.263 1399.3 Q591.263 1402.91 588.393 1405.02 Q585.546 1407.13 580.546 1407.13 Q578.462 1407.13 576.194 1406.71 Q573.949 1406.32 571.449 1405.51 L571.449 1401.11 Q573.81 1402.34 576.101 1402.96 Q578.393 1403.56 580.638 1403.56 Q583.648 1403.56 585.268 1402.54 Q586.888 1401.5 586.888 1399.63 Q586.888 1397.89 585.708 1396.96 Q584.55 1396.04 580.592 1395.18 L579.111 1394.84 Q575.152 1394 573.393 1392.29 Q571.634 1390.55 571.634 1387.54 Q571.634 1383.89 574.226 1381.9 Q576.819 1379.9 581.587 1379.9 Q583.948 1379.9 586.032 1380.25 Q588.115 1380.6 589.874 1381.29 Z" fill="#000000" fill-rule="nonzero" fill-opacity="1" /><path clip-path="url(#clip150)" d="M598.046 1380.53 L602.305 1380.53 L602.305 1406.46 L598.046 1406.46 L598.046 1380.53 M598.046 1370.44 L602.305 1370.44 L602.305 1375.83 L598.046 1375.83 L598.046 1370.44 Z" fill="#000000" fill-rule="nonzero" fill-opacity="1" /><path clip-path="url(#clip150)" d="M628.277 1393.19 Q628.277 1388.56 626.356 1386.02 Q624.458 1383.47 621.008 1383.47 Q617.583 1383.47 615.661 1386.02 Q613.763 1388.56 613.763 1393.19 Q613.763 1397.8 615.661 1400.34 Q617.583 1402.89 621.008 1402.89 Q624.458 1402.89 626.356 1400.34 Q628.277 1397.8 628.277 1393.19 M632.536 1403.24 Q632.536 1409.86 629.596 1413.08 Q626.657 1416.32 620.592 1416.32 Q618.346 1416.32 616.356 1415.97 Q614.365 1415.65 612.49 1414.95 L612.49 1410.81 Q614.365 1411.83 616.194 1412.31 Q618.022 1412.8 619.921 1412.8 Q624.11 1412.8 626.194 1410.6 Q628.277 1408.42 628.277 1404 L628.277 1401.9 Q626.958 1404.19 624.897 1405.32 Q622.837 1406.46 619.967 1406.46 Q615.198 1406.46 612.282 1402.82 Q609.365 1399.19 609.365 1393.19 Q609.365 1387.17 612.282 1383.54 Q615.198 1379.9 619.967 1379.9 Q622.837 1379.9 624.897 1381.04 Q626.958 1382.17 628.277 1384.46 L628.277 1380.53 L632.536 1380.53 L632.536 1403.24 Z" fill="#000000" fill-rule="nonzero" fill-opacity="1" /><path clip-path="url(#clip150)" d="M662.86 1390.81 L662.86 1406.46 L658.601 1406.46 L658.601 1390.95 Q658.601 1387.27 657.166 1385.44 Q655.731 1383.61 652.86 1383.61 Q649.411 1383.61 647.42 1385.81 Q645.43 1388.01 645.43 1391.8 L645.43 1406.46 L641.147 1406.46 L641.147 1380.53 L645.43 1380.53 L645.43 1384.56 Q646.957 1382.22 649.018 1381.06 Q651.101 1379.9 653.809 1379.9 Q658.277 1379.9 660.568 1382.68 Q662.86 1385.44 662.86 1390.81 Z" fill="#000000" fill-rule="nonzero" fill-opacity="1" /><path clip-path="url(#clip150)" d="M683.138 1393.42 Q677.976 1393.42 675.985 1394.6 Q673.994 1395.78 673.994 1398.63 Q673.994 1400.9 675.476 1402.24 Q676.98 1403.56 679.55 1403.56 Q683.091 1403.56 685.221 1401.06 Q687.374 1398.54 687.374 1394.37 L687.374 1393.42 L683.138 1393.42 M691.633 1391.66 L691.633 1406.46 L687.374 1406.46 L687.374 1402.52 Q685.916 1404.88 683.74 1406.02 Q681.564 1407.13 678.416 1407.13 Q674.434 1407.13 672.073 1404.9 Q669.735 1402.66 669.735 1398.91 Q669.735 1394.53 672.652 1392.31 Q675.592 1390.09 681.402 1390.09 L687.374 1390.09 L687.374 1389.67 Q687.374 1386.73 685.429 1385.14 Q683.508 1383.52 680.013 1383.52 Q677.791 1383.52 675.684 1384.05 Q673.578 1384.58 671.633 1385.65 L671.633 1381.71 Q673.971 1380.81 676.17 1380.37 Q678.369 1379.9 680.453 1379.9 Q686.078 1379.9 688.855 1382.82 Q691.633 1385.74 691.633 1391.66 Z" fill="#000000" fill-rule="nonzero" fill-opacity="1" /><path clip-path="url(#clip150)" d="M700.406 1370.44 L704.665 1370.44 L704.665 1406.46 L700.406 1406.46 L700.406 1370.44 Z" fill="#000000" fill-rule="nonzero" fill-opacity="1" /></svg>
